<svg width="25" height="25" viewBox="0 0 25 25" fill="none" xmlns="http://www.w3.org/2000/svg">
<g clip-path="url(#clip0_47_10107)">
<path d="M7.30966 24.6113H4.30966C3.2488 24.6113 2.23138 24.1899 1.48123 23.4398C0.731089 22.6896 0.309662 21.6722 0.309662 20.6113L0.309662 17.6113C0.309662 16.5505 0.731089 15.533 1.48123 14.7829C2.23138 14.0328 3.2488 13.6113 4.30966 13.6113H7.30966C8.37053 13.6113 9.38794 14.0328 10.1381 14.7829C10.8882 15.533 11.3097 16.5505 11.3097 17.6113V20.6113C11.3097 21.6722 10.8882 22.6896 10.1381 23.4398C9.38794 24.1899 8.37053 24.6113 7.30966 24.6113ZM9.30966 17.6113C9.30966 17.0809 9.09895 16.5722 8.72388 16.1971C8.3488 15.822 7.8401 15.6113 7.30966 15.6113H4.30966C3.77923 15.6113 3.27052 15.822 2.89545 16.1971C2.52038 16.5722 2.30966 17.0809 2.30966 17.6113V20.6113C2.30966 21.1418 2.52038 21.6505 2.89545 22.0255C3.27052 22.4006 3.77923 22.6113 4.30966 22.6113H7.30966C7.8401 22.6113 8.3488 22.4006 8.72388 22.0255C9.09895 21.6505 9.30966 21.1418 9.30966 20.6113V17.6113Z" fill="#484C52"/>
<path d="M20.3097 24.6113H17.3097C16.2488 24.6113 15.2314 24.1899 14.4812 23.4398C13.7311 22.6896 13.3097 21.6722 13.3097 20.6113V17.6113C13.3097 16.5505 13.7311 15.533 14.4812 14.7829C15.2314 14.0328 16.2488 13.6113 17.3097 13.6113H20.3097C21.3705 13.6113 22.3879 14.0328 23.1381 14.7829C23.8882 15.533 24.3097 16.5505 24.3097 17.6113V20.6113C24.3097 21.6722 23.8882 22.6896 23.1381 23.4398C22.3879 24.1899 21.3705 24.6113 20.3097 24.6113ZM22.3097 17.6113C22.3097 17.0809 22.0989 16.5722 21.7239 16.1971C21.3488 15.822 20.8401 15.6113 20.3097 15.6113H17.3097C16.7792 15.6113 16.2705 15.822 15.8954 16.1971C15.5204 16.5722 15.3097 17.0809 15.3097 17.6113V20.6113C15.3097 21.1418 15.5204 21.6505 15.8954 22.0255C16.2705 22.4006 16.7792 22.6113 17.3097 22.6113H20.3097C20.8401 22.6113 21.3488 22.4006 21.7239 22.0255C22.0989 21.6505 22.3097 21.1418 22.3097 20.6113V17.6113Z" fill="#484C52"/>
<path d="M7.30966 11.6113H4.30966C3.2488 11.6113 2.23138 11.1899 1.48123 10.4398C0.731089 9.68961 0.309662 8.67219 0.309662 7.61133L0.309662 4.61133C0.309662 3.55046 0.731089 2.53305 1.48123 1.7829C2.23138 1.03276 3.2488 0.611328 4.30966 0.611328H7.30966C8.37053 0.611328 9.38794 1.03276 10.1381 1.7829C10.8882 2.53305 11.3097 3.55046 11.3097 4.61133V7.61133C11.3097 8.67219 10.8882 9.68961 10.1381 10.4398C9.38794 11.1899 8.37053 11.6113 7.30966 11.6113ZM9.30966 4.61133C9.30966 4.08089 9.09895 3.57219 8.72388 3.19711C8.3488 2.82204 7.8401 2.61133 7.30966 2.61133H4.30966C3.77923 2.61133 3.27052 2.82204 2.89545 3.19711C2.52038 3.57219 2.30966 4.08089 2.30966 4.61133V7.61133C2.30966 8.14176 2.52038 8.65047 2.89545 9.02554C3.27052 9.40061 3.77923 9.61133 4.30966 9.61133H7.30966C7.8401 9.61133 8.3488 9.40061 8.72388 9.02554C9.09895 8.65047 9.30966 8.14176 9.30966 7.61133V4.61133Z" fill="#484C52"/>
<path d="M20.3097 11.6113H17.3097C16.2488 11.6113 15.2314 11.1899 14.4812 10.4398C13.7311 9.68961 13.3097 8.67219 13.3097 7.61133V4.61133C13.3097 3.55046 13.7311 2.53305 14.4812 1.7829C15.2314 1.03276 16.2488 0.611328 17.3097 0.611328H20.3097C21.3705 0.611328 22.3879 1.03276 23.1381 1.7829C23.8882 2.53305 24.3097 3.55046 24.3097 4.61133V7.61133C24.3097 8.67219 23.8882 9.68961 23.1381 10.4398C22.3879 11.1899 21.3705 11.6113 20.3097 11.6113ZM22.3097 4.61133C22.3097 4.08089 22.0989 3.57219 21.7239 3.19711C21.3488 2.82204 20.8401 2.61133 20.3097 2.61133H17.3097C16.7792 2.61133 16.2705 2.82204 15.8954 3.19711C15.5204 3.57219 15.3097 4.08089 15.3097 4.61133V7.61133C15.3097 8.14176 15.5204 8.65047 15.8954 9.02554C16.2705 9.40061 16.7792 9.61133 17.3097 9.61133H20.3097C20.8401 9.61133 21.3488 9.40061 21.7239 9.02554C22.0989 8.65047 22.3097 8.14176 22.3097 7.61133V4.61133Z" fill="#484C52"/>
</g>
<defs>
<clipPath id="clip0_47_10107">
<rect width="24" height="24" fill="white" transform="matrix(1 0 0 -1 0.309662 24.6113)"/>
</clipPath>
</defs>
</svg>
