<svg width="27" height="27" viewBox="0 0 27 27" fill="none" xmlns="http://www.w3.org/2000/svg">
<path d="M24.2011 11.7562L19.3111 16.6462C19.1582 16.7991 18.9508 16.885 18.7345 16.885C18.5182 16.885 18.3108 16.7991 18.1579 16.6462C18.005 16.4933 17.9191 16.2858 17.9191 16.0696C17.9191 15.8533 18.005 15.6459 18.1579 15.493L21.6573 11.9946H13.8445C11.4677 11.9973 9.18896 12.9427 7.50828 14.6233C5.8276 16.304 4.88221 18.5827 4.87951 20.9596C4.87951 21.1757 4.79365 21.383 4.6408 21.5359C4.48796 21.6887 4.28066 21.7746 4.06451 21.7746C3.84836 21.7746 3.64106 21.6887 3.48822 21.5359C3.33538 21.383 3.24951 21.1757 3.24951 20.9596C3.25248 18.1505 4.36969 15.4574 6.35599 13.4711C8.3423 11.4847 11.0355 10.3675 13.8445 10.3646H21.6573L18.1579 6.86619C18.0822 6.79046 18.0221 6.70057 17.9811 6.60163C17.9402 6.5027 17.9191 6.39666 17.9191 6.28957C17.9191 6.18249 17.9402 6.07645 17.9811 5.97751C18.0221 5.87858 18.0822 5.78868 18.1579 5.71296C18.3108 5.56003 18.5182 5.47412 18.7345 5.47412C18.8416 5.47412 18.9476 5.49521 19.0466 5.53619C19.1455 5.57717 19.2354 5.63724 19.3111 5.71296L24.2011 10.603C24.2769 10.6787 24.337 10.7685 24.378 10.8675C24.419 10.9664 24.4402 11.0725 24.4402 11.1796C24.4402 11.2867 24.419 11.3927 24.378 11.4917C24.337 11.5906 24.2769 11.6805 24.2011 11.7562Z" fill="black"/>
</svg>
