<svg width="27" height="27" viewBox="0 0 27 27" fill="none" xmlns="http://www.w3.org/2000/svg">
<path d="M24.4397 20.8033C24.4397 21.0195 24.3538 21.2268 24.201 21.3796C24.0481 21.5325 23.8408 21.6183 23.6247 21.6183C23.4085 21.6183 23.2012 21.5325 23.0484 21.3796C22.8955 21.2268 22.8097 21.0195 22.8097 20.8033C22.807 18.4265 21.8616 16.1478 20.1809 14.4671C18.5002 12.7864 16.2215 11.841 13.8447 11.8383H6.03187L9.53128 15.3367C9.6842 15.4896 9.77012 15.6971 9.77012 15.9133C9.77012 16.1296 9.6842 16.337 9.53128 16.4899C9.37835 16.6429 9.17094 16.7288 8.95466 16.7288C8.73839 16.7288 8.53098 16.6429 8.37805 16.4899L3.48805 11.5999C3.41228 11.5242 3.35216 11.4344 3.31115 11.3354C3.27013 11.2365 3.24902 11.1304 3.24902 11.0233C3.24902 10.9162 3.27013 10.8102 3.31115 10.7112C3.35216 10.6123 3.41228 10.5224 3.48805 10.4467L8.37805 5.55671C8.53098 5.40378 8.73839 5.31787 8.95466 5.31787C9.17094 5.31787 9.37835 5.40378 9.53128 5.55671C9.6842 5.70964 9.77012 5.91705 9.77012 6.13332C9.77012 6.3496 9.6842 6.55701 9.53128 6.70994L6.03187 10.2083H13.8447C16.6537 10.2113 19.3469 11.3285 21.3332 13.3148C23.3195 15.3011 24.4367 17.9943 24.4397 20.8033Z" fill="black"/>
</svg>
