<svg width="25" height="23" viewBox="0 0 25 23" fill="none" xmlns="http://www.w3.org/2000/svg">
<path d="M23.683 10.6749L13.1603 19.864C11.8712 20.9897 10.1228 21.6222 8.29969 21.6222C6.47662 21.6222 4.72821 20.9897 3.4391 19.864C2.14999 18.7383 1.42578 17.2115 1.42578 15.6194C1.42578 14.0274 2.14999 12.5006 3.4391 11.3749L13.9618 2.18578C14.8212 1.43529 15.9868 1.01367 17.2022 1.01367C18.4176 1.01367 19.5832 1.43529 20.4426 2.18578C21.302 2.93627 21.7848 3.95415 21.7848 5.0155C21.7848 6.07685 21.302 7.09473 20.4426 7.84522L9.90844 17.0343C9.47874 17.4095 8.89593 17.6204 8.28824 17.6204C7.68055 17.6204 7.09775 17.4095 6.66805 17.0343C6.23834 16.6591 5.99694 16.1501 5.99694 15.6194C5.99694 15.0888 6.23834 14.5798 6.66805 14.2046L16.3892 5.72543" stroke="#118376" stroke-width="1.64868" stroke-linecap="round" stroke-linejoin="round"/>
</svg>
