<svg width="29" height="30" viewBox="0 0 29 30" fill="none" xmlns="http://www.w3.org/2000/svg">
<g clip-path="url(#clip0_47_10067)">
<path d="M5.15285 21.9449H23.7147C24.2859 21.9449 24.8488 21.8073 25.3556 21.5438C25.8625 21.2802 26.2984 20.8985 26.6265 20.4308C26.9546 19.9632 27.1652 19.4234 27.2405 18.8571C27.3159 18.2908 27.2537 17.7147 27.0593 17.1776L23.6779 7.82908C23.1004 5.75155 21.8583 3.92036 20.1416 2.61558C18.4249 1.3108 16.328 0.604255 14.1717 0.604004C11.9271 0.603969 9.74949 1.36942 7.99855 2.77396C6.24761 4.17851 5.02799 6.13818 4.54108 8.3294L1.75491 17.34C1.59087 17.872 1.55399 18.435 1.64724 18.9839C1.74049 19.5327 1.96127 20.052 2.29181 20.4999C2.62235 20.9479 3.05342 21.312 3.55034 21.5629C4.04726 21.8139 4.59615 21.9447 5.15285 21.9449Z" fill="#B8D7D3"/>
<path d="M8.74759 24.3169C9.0197 25.657 9.74673 26.8618 10.8055 27.7271C11.8643 28.5925 13.1896 29.0653 14.557 29.0653C15.9245 29.0653 17.2498 28.5925 18.3086 27.7271C19.3674 26.8618 20.0944 25.657 20.3665 24.3169H8.74759Z" fill="#B8D7D3"/>
</g>
<defs>
<clipPath id="clip0_47_10067">
<rect width="28.4545" height="28.4545" fill="white" transform="translate(0.330307 0.604004)"/>
</clipPath>
</defs>
</svg>
