<svg width="51" height="52" viewBox="0 0 51 52" fill="none" xmlns="http://www.w3.org/2000/svg">
<path d="M38.4829 29.7213C33.3532 29.7213 29.1798 33.9781 29.1798 39.2105C29.1798 44.4429 33.3531 48.6997 38.4829 48.6997C43.6127 48.6997 47.7861 44.4429 47.7861 39.2105C47.7861 33.9781 43.6128 29.7213 38.4829 29.7213ZM42.2977 42.9372H34.6682C34.1289 42.9372 33.6916 42.4912 33.6916 41.9411C33.6916 41.3911 34.1289 40.945 34.6682 40.945H42.2977C42.8369 40.945 43.2742 41.3911 43.2742 41.9411C43.2742 42.4912 42.8369 42.9372 42.2977 42.9372ZM42.2977 37.476H34.6682C34.1289 37.476 33.6916 37.03 33.6916 36.4799C33.6916 35.9299 34.1289 35.4838 34.6682 35.4838H42.2977C42.8369 35.4838 43.2742 35.9299 43.2742 36.4799C43.2742 37.03 42.8369 37.476 42.2977 37.476ZM13.144 22.8538C18.2736 22.8538 22.4471 18.597 22.4471 13.3646C22.4471 8.1322 18.2736 3.87549 13.144 3.87549C8.01426 3.87549 3.84083 8.1323 3.84083 13.3647C3.84083 18.5971 8.01417 22.8539 13.144 22.8539V22.8538ZM9.32921 12.3685H12.1674V9.47354C12.1674 8.92339 12.6047 8.47744 13.144 8.47744C13.6832 8.47744 14.1205 8.92339 14.1205 9.47354V12.3685H16.9587C17.498 12.3685 17.9353 12.8144 17.9353 13.3646C17.9353 13.9147 17.498 14.3607 16.9587 14.3607H14.1205V17.2556C14.1205 17.8058 13.6832 18.2517 13.144 18.2517C12.6047 18.2517 12.1674 17.8058 12.1674 17.2556V14.3607H9.32921C8.78995 14.3607 8.35264 13.9147 8.35264 13.3646C8.35264 12.8144 8.78995 12.3685 9.32921 12.3685ZM38.4829 3.87549C33.3532 3.87549 29.1798 8.1323 29.1798 13.3647C29.1798 13.9436 29.2312 14.5232 29.3326 15.0875C29.9887 18.7357 28.9339 22.1893 26.3627 24.812L24.3667 26.8479C22.2941 28.962 19.6916 30.071 16.887 30.0712C16.2124 30.0712 15.5265 30.007 14.833 29.8773C14.2798 29.7738 13.7114 29.7214 13.1439 29.7214C8.01417 29.7214 3.84073 33.9782 3.84073 39.2107C3.84073 44.4432 8.01407 48.6999 13.1439 48.6999C18.2736 48.6999 22.447 44.4431 22.447 39.2107C22.447 38.6318 22.3956 38.0522 22.2941 37.4879C21.6381 33.8397 22.6929 30.3861 25.2642 27.7633L27.2602 25.7275C29.8315 23.1047 33.2177 22.029 36.7939 22.6981C37.347 22.8016 37.9152 22.854 38.4829 22.854C43.6127 22.854 47.7861 18.5972 47.7861 13.3648C47.7861 8.13239 43.6128 3.87549 38.4829 3.87549ZM16.9587 40.2066H9.32911C8.78985 40.2066 8.35254 39.7606 8.35254 39.2105C8.35254 38.6605 8.78985 38.2144 9.32911 38.2144H16.9587C17.498 38.2144 17.9353 38.6605 17.9353 39.2105C17.9353 39.7606 17.498 40.2066 16.9587 40.2066ZM41.871 15.4118C42.2523 15.8008 42.2523 16.4315 41.871 16.8205C41.6803 17.0151 41.4304 17.1123 41.1805 17.1123C40.9306 17.1123 40.6807 17.015 40.4899 16.8205L38.483 14.7735L36.4761 16.8205C36.2854 17.015 36.0354 17.1123 35.7856 17.1123C35.5357 17.1123 35.2857 17.0151 35.095 16.8205C34.7137 16.4315 34.7137 15.8008 35.095 15.4118L37.102 13.3648L35.095 11.3177C34.7137 10.9287 34.7137 10.298 35.095 9.90903C35.4765 9.52005 36.0946 9.52005 36.4762 9.90903L38.4831 11.9561L40.49 9.90903C40.8716 9.51995 41.4898 9.52005 41.8712 9.90903C42.2525 10.298 42.2525 10.9287 41.8712 11.3177L39.8643 13.3648L41.8712 15.4118H41.871Z" fill="black"/>
</svg>
