<svg width="48" height="48" viewBox="0 0 48 48" fill="none" xmlns="http://www.w3.org/2000/svg">
<rect width="48" height="48" rx="7.74194" fill="#88A9FF"/>
<path d="M33.6425 26.0839C33.284 25.758 32.8128 25.5842 32.3286 25.5991C31.8443 25.6141 31.3847 25.8167 31.047 26.1641L26.5818 30.7562C25.507 30.5509 23.3463 29.8773 21.1221 27.6587C18.8979 25.4326 18.2243 23.2663 18.0246 22.199L22.613 17.7319C22.9608 17.3944 23.1637 16.9348 23.1786 16.4504C23.1936 15.966 23.0195 15.4947 22.6932 15.1364L15.7985 7.55506C15.4721 7.1956 15.0183 6.97756 14.5337 6.94725C14.0491 6.91693 13.5717 7.07674 13.203 7.39272L9.15391 10.8652C8.83131 11.189 8.63876 11.6199 8.61279 12.0762C8.5848 12.5427 8.05114 23.5928 16.6195 32.165C24.0945 39.6381 33.4578 40.1848 36.0365 40.1848C36.4135 40.1848 36.6448 40.1736 36.7064 40.1699C37.1627 40.1443 37.5933 39.9509 37.9155 39.6269L41.3862 35.5759C41.7024 35.2074 41.8625 34.7302 41.8326 34.2456C41.8026 33.761 41.5849 33.3071 41.2257 32.9804L33.6425 26.0839Z" fill="white"/>
</svg>
