<svg width="27" height="23" viewBox="0 0 27 23" fill="none" xmlns="http://www.w3.org/2000/svg">
<path fill-rule="evenodd" clip-rule="evenodd" d="M17.6548 0.923981C17.1056 0.422549 16.3924 0.14502 15.6529 0.14502H11.6027C10.8634 0.14502 10.1503 0.422406 9.6012 0.923606L8.80626 1.64915C8.26601 2.14225 7.56446 2.41515 6.83712 2.41515C3.53516 2.41515 0.858398 5.12548 0.858398 8.46884V16.0359C0.858398 19.3793 3.53516 22.0896 6.83712 22.0896H20.2892C23.5912 22.0896 26.268 19.3793 26.268 16.0359V8.46884C26.268 5.12548 23.5912 2.41515 20.2892 2.41515L20.0754 2.40626C19.5083 2.35899 18.9698 2.12469 18.5444 1.73621L17.6548 0.923981ZM11.6031 1.53095H15.6533C16.0464 1.53095 16.4265 1.67884 16.7207 1.94746L17.6103 2.75968C18.2607 3.35353 19.0868 3.71456 19.9607 3.7874L20.2321 3.79989C22.8223 3.80109 24.8824 5.88705 24.8824 8.4688V16.0359C24.8824 18.6176 22.8223 20.7036 20.2897 20.7036H6.83756C4.30495 20.7036 2.24481 18.6176 2.24481 16.0359V8.4688C2.24481 5.96529 4.18198 3.92796 6.60867 3.80679L7.10503 3.79275C8.08195 3.73176 9.01209 3.33812 9.74104 2.6728L10.536 1.94726C10.8301 1.67876 11.2101 1.53095 11.6031 1.53095ZM13.563 5.92585C16.7524 5.92585 19.3379 8.51136 19.3379 11.7007C19.3379 14.8901 16.7524 17.4756 13.563 17.4756C10.3736 17.4756 7.78807 14.8901 7.78807 11.7007C7.78807 8.51136 10.3736 5.92585 13.563 5.92585ZM9.17449 11.7007C9.17449 9.27677 11.1395 7.31179 13.5634 7.31179C15.9873 7.31179 17.9523 9.27677 17.9523 11.7007C17.9523 14.1246 15.9873 16.0896 13.5634 16.0896C11.1395 16.0896 9.17449 14.1246 9.17449 11.7007Z" fill="#118376"/>
</svg>
