<svg width="10" height="11" viewBox="0 0 10 11" fill="none" xmlns="http://www.w3.org/2000/svg">
<path d="M9.64687 9.37219C9.69197 9.41729 9.72774 9.47082 9.75214 9.52974C9.77655 9.58866 9.78911 9.65181 9.78911 9.71558C9.78911 9.77936 9.77655 9.84251 9.75214 9.90143C9.72774 9.96035 9.69197 10.0139 9.64687 10.059C9.60178 10.1041 9.54824 10.1398 9.48932 10.1643C9.4304 10.1887 9.36725 10.2012 9.30348 10.2012C9.2397 10.2012 9.17655 10.1887 9.11763 10.1643C9.05871 10.1398 9.00518 10.1041 8.96008 10.059L4.9352 6.0335L0.910327 10.059C0.819253 10.1501 0.69573 10.2012 0.566932 10.2012C0.438134 10.2012 0.314611 10.1501 0.223538 10.059C0.132464 9.96791 0.0812988 9.84438 0.0812988 9.71558C0.0812988 9.58679 0.132464 9.46326 0.223538 9.37219L4.24902 5.34731L0.223538 1.32244C0.132464 1.23136 0.0812988 1.10784 0.0812988 0.979042C0.0812988 0.850244 0.132464 0.726721 0.223538 0.635647C0.314611 0.544573 0.438134 0.493408 0.566932 0.493408C0.69573 0.493408 0.819253 0.544573 0.910327 0.635647L4.9352 4.66113L8.96008 0.635647C9.05116 0.544573 9.17468 0.493408 9.30348 0.493408C9.43227 0.493408 9.5558 0.544573 9.64687 0.635647C9.73794 0.726721 9.78911 0.850244 9.78911 0.979042C9.78911 1.10784 9.73794 1.23136 9.64687 1.32244L5.62139 5.34731L9.64687 9.37219Z" fill="#118376"/>
</svg>
