<svg width="29" height="28" viewBox="0 0 29 28" fill="none" xmlns="http://www.w3.org/2000/svg">
<g clip-path="url(#clip0_47_10102)">
<path d="M22.2626 13.8451H16.856C16.2475 13.8451 15.6639 13.6034 15.2337 13.1732C14.8034 12.7429 14.5617 12.1593 14.5617 11.5508V6.12934C14.5632 5.60163 14.4434 5.08062 14.2115 4.60661C13.9795 4.13259 13.6417 3.71826 13.2241 3.39566C12.8283 3.08227 12.3659 2.86403 11.8724 2.75782C11.3789 2.6516 10.8676 2.66024 10.378 2.78307C7.59686 3.47345 5.13468 5.09238 3.39861 7.37213C1.66255 9.65189 0.756591 12.4559 0.830567 15.3205C0.904542 18.185 1.95402 20.9386 3.80544 23.1257C5.65685 25.3128 8.19931 26.8025 11.0124 27.3484C14.1752 27.9538 17.4498 27.3271 20.1656 25.5966C22.8814 23.8661 24.8328 21.1628 25.6203 18.0403C25.7436 17.5501 25.7526 17.038 25.6466 16.5438C25.5405 16.0495 25.3224 15.5862 25.0089 15.1896C24.6824 14.7726 24.2657 14.4349 23.7901 14.2021C23.3144 13.9692 22.7922 13.8472 22.2626 13.8451ZM23.396 17.4793C22.9567 19.2481 22.0556 20.8685 20.7846 22.1747C19.5137 23.4809 17.9186 24.4261 16.1626 24.9136C14.4065 25.4011 12.5524 25.4134 10.79 24.9493C9.02764 24.4851 7.42015 23.5612 6.13199 22.272C4.84384 20.9828 3.92123 19.3745 3.45855 17.6117C2.99587 15.849 3.00972 13.9949 3.49868 12.2392C3.98763 10.4836 4.93415 8.88928 6.24143 7.61944C7.5487 6.34959 9.1698 5.44977 10.9389 5.01201C11.0903 4.97419 11.2484 4.97234 11.4006 5.00661C11.5528 5.04087 11.6948 5.11029 11.8154 5.20932C11.9577 5.31785 12.0732 5.45771 12.1527 5.61806C12.2323 5.7784 12.2739 5.95492 12.2742 6.13393V11.5508C12.2742 12.7678 12.7577 13.9349 13.6182 14.7955C14.4787 15.656 15.6459 16.1395 16.8629 16.1395H22.2683C22.4489 16.1402 22.6269 16.1819 22.7891 16.2614C22.9512 16.3408 23.0932 16.456 23.2044 16.5983C23.3019 16.7206 23.3698 16.8637 23.4029 17.0165C23.4359 17.1694 23.4343 17.3278 23.396 17.4793Z" fill="#484C52"/>
<path d="M27.9273 8.62106C27.3991 6.67945 26.3732 4.90942 24.9509 3.48611C23.5285 2.0628 21.7592 1.03556 19.818 0.506039C19.6145 0.45133 19.4047 0.423561 19.194 0.423443C18.8908 0.420564 18.5901 0.477782 18.3093 0.591792C18.0284 0.705803 17.7729 0.874345 17.5575 1.08768C17.3422 1.30101 17.1712 1.55491 17.0545 1.8347C16.9379 2.11449 16.8778 2.41463 16.8778 2.71777V8.10942C16.8778 9.02216 17.2404 9.89751 17.8858 10.5429C18.5312 11.1883 19.4066 11.5509 20.3193 11.5509H25.7328C26.0869 11.5475 26.4354 11.4625 26.7513 11.3025C27.0672 11.1425 27.342 10.9119 27.5543 10.6285C27.7666 10.345 27.9107 10.0165 27.9753 9.66834C28.04 9.32019 28.0236 8.96182 27.9273 8.62106ZM25.0617 9.25658H20.3147C20.0105 9.25658 19.7187 9.13572 19.5036 8.92059C19.2884 8.70545 19.1676 8.41367 19.1676 8.10942L19.1584 2.7258C19.1668 2.71972 19.1767 2.71615 19.1871 2.71547H19.2169C20.7794 3.14116 22.203 3.96922 23.3456 5.11699C24.4881 6.26476 25.3096 7.69211 25.7282 9.25658H25.0617Z" fill="#484C52"/>
</g>
<defs>
<clipPath id="clip0_47_10102">
<rect width="27.5319" height="27.5319" fill="white" transform="translate(0.795624 0.0795898)"/>
</clipPath>
</defs>
</svg>
