<svg width="33" height="33" viewBox="0 0 33 33" fill="none" xmlns="http://www.w3.org/2000/svg">
<path d="M21.7859 14.748C21.7859 15.0117 21.6811 15.2647 21.4946 15.4512C21.3081 15.6377 21.0552 15.7425 20.7914 15.7425H12.8355C12.5718 15.7425 12.3188 15.6377 12.1323 15.4512C11.9458 15.2647 11.8411 15.0117 11.8411 14.748C11.8411 14.4842 11.9458 14.2313 12.1323 14.0448C12.3188 13.8583 12.5718 13.7535 12.8355 13.7535H20.7914C21.0552 13.7535 21.3081 13.8583 21.4946 14.0448C21.6811 14.2313 21.7859 14.4842 21.7859 14.748ZM20.7914 17.7314H12.8355C12.5718 17.7314 12.3188 17.8362 12.1323 18.0227C11.9458 18.2092 11.8411 18.4622 11.8411 18.7259C11.8411 18.9897 11.9458 19.2426 12.1323 19.4291C12.3188 19.6156 12.5718 19.7204 12.8355 19.7204H20.7914C21.0552 19.7204 21.3081 19.6156 21.4946 19.4291C21.6811 19.2426 21.7859 18.9897 21.7859 18.7259C21.7859 18.4622 21.6811 18.2092 21.4946 18.0227C21.3081 17.8362 21.0552 17.7314 20.7914 17.7314ZM29.7418 16.737C29.7423 18.969 29.1649 21.1631 28.0658 23.1058C26.9667 25.0485 25.3834 26.6735 23.4699 27.8227C21.5565 28.972 19.3781 29.6062 17.1468 29.6638C14.9155 29.7213 12.7073 29.2002 10.7372 28.1511L6.50441 29.5621C6.15397 29.6789 5.77789 29.6959 5.41835 29.611C5.0588 29.5262 4.72999 29.3429 4.46877 29.0817C4.20755 28.8204 4.02424 28.4916 3.93939 28.1321C3.85454 27.7725 3.8715 27.3965 3.98837 27.046L5.39929 22.8132C4.4771 21.0794 3.96201 19.1583 3.89315 17.1956C3.82428 15.233 4.20343 13.2805 5.00184 11.4862C5.80024 9.69203 6.9969 8.10327 8.50099 6.84058C10.0051 5.5779 11.7771 4.67446 13.6824 4.19884C15.5878 3.72323 17.5765 3.68794 19.4976 4.09566C21.4186 4.50337 23.2215 5.34338 24.7695 6.55191C26.3174 7.76044 27.5697 9.30574 28.4312 11.0705C29.2928 12.8353 29.741 14.7731 29.7418 16.737ZM27.7528 16.737C27.7523 15.0589 27.3658 13.4035 26.6232 11.8987C25.8805 10.394 24.8017 9.08022 23.4701 8.05913C22.1385 7.03804 20.5898 6.33698 18.9439 6.01019C17.298 5.68339 15.599 5.73963 13.9783 6.17454C12.3576 6.60945 10.8586 7.41138 9.59745 8.51828C8.33627 9.62518 7.34664 11.0074 6.70513 12.558C6.06361 14.1085 5.78741 15.7859 5.8979 17.4603C6.00838 19.1347 6.50258 20.7612 7.34227 22.2141C7.41274 22.336 7.4565 22.4716 7.47065 22.6118C7.48479 22.7519 7.469 22.8935 7.42431 23.0271L5.87416 27.6763L10.5234 26.1261C10.6246 26.0916 10.7309 26.074 10.8379 26.0739C11.0125 26.0742 11.184 26.1205 11.3351 26.2082C12.9981 27.1704 14.8853 27.6776 16.8066 27.6788C18.7279 27.68 20.6156 27.1752 22.2799 26.2151C23.9441 25.255 25.3261 23.8735 26.2869 22.2097C27.2477 20.5458 27.7532 18.6583 27.7528 16.737Z" fill="#484C52"/>
</svg>
