<svg width="33" height="33" viewBox="0 0 33 33" fill="none" xmlns="http://www.w3.org/2000/svg">
<path d="M16.6673 3.05273C13.0229 3.05674 9.52891 4.50624 6.95193 7.08322C4.37495 9.6602 2.92545 13.1542 2.92145 16.7986V28.3451C2.92145 28.9284 3.15316 29.4878 3.56562 29.9002C3.97807 30.3127 4.53748 30.5444 5.12078 30.5444H16.6673C20.3129 30.5444 23.8092 29.0962 26.3871 26.5184C28.9649 23.9405 30.4131 20.4442 30.4131 16.7986C30.4131 13.153 28.9649 9.65664 26.3871 7.0788C23.8092 4.50095 20.3129 3.05273 16.6673 3.05273ZM21.066 20.6474H11.7188C11.4271 20.6474 11.1474 20.5316 10.9412 20.3253C10.735 20.1191 10.6191 19.8394 10.6191 19.5477C10.6191 19.2561 10.735 18.9764 10.9412 18.7702C11.1474 18.5639 11.4271 18.4481 11.7188 18.4481H21.066C21.3576 18.4481 21.6373 18.5639 21.8435 18.7702C22.0498 18.9764 22.1656 19.2561 22.1656 19.5477C22.1656 19.8394 22.0498 20.1191 21.8435 20.3253C21.6373 20.5316 21.3576 20.6474 21.066 20.6474ZM21.066 16.2487H11.7188C11.4271 16.2487 11.1474 16.1329 10.9412 15.9267C10.735 15.7204 10.6191 15.4407 10.6191 15.1491C10.6191 14.8574 10.735 14.5777 10.9412 14.3715C11.1474 14.1653 11.4271 14.0494 11.7188 14.0494H21.066C21.3576 14.0494 21.6373 14.1653 21.8435 14.3715C22.0498 14.5777 22.1656 14.8574 22.1656 15.1491C22.1656 15.4407 22.0498 15.7204 21.8435 15.9267C21.6373 16.1329 21.3576 16.2487 21.066 16.2487Z" fill="#128377"/>
</svg>
