<svg width="27" height="27" viewBox="0 0 27 27" fill="none" xmlns="http://www.w3.org/2000/svg">
<path d="M15.0665 13.6363C15.0665 13.8781 14.9948 14.1145 14.8605 14.3155C14.7262 14.5165 14.5352 14.6732 14.3119 14.7658C14.0885 14.8583 13.8427 14.8825 13.6055 14.8353C13.3684 14.7881 13.1506 14.6717 12.9796 14.5007C12.8086 14.3298 12.6922 14.1119 12.645 13.8748C12.5978 13.6377 12.6221 13.3919 12.7146 13.1685C12.8071 12.9451 12.9638 12.7542 13.1648 12.6198C13.3659 12.4855 13.6022 12.4138 13.844 12.4138C14.1683 12.4138 14.4792 12.5426 14.7085 12.7719C14.9377 13.0011 15.0665 13.3121 15.0665 13.6363ZM9.36152 12.4138C9.11974 12.4138 8.88338 12.4855 8.68234 12.6198C8.4813 12.7542 8.32461 12.9451 8.23208 13.1685C8.13955 13.3919 8.11534 13.6377 8.16251 13.8748C8.20968 14.1119 8.32612 14.3298 8.49708 14.5007C8.66805 14.6717 8.88588 14.7881 9.12302 14.8353C9.36017 14.8825 9.60597 14.8583 9.82935 14.7658C10.0527 14.6732 10.2437 14.5165 10.378 14.3155C10.5123 14.1145 10.584 13.8781 10.584 13.6363C10.584 13.3121 10.4552 13.0011 10.226 12.7719C9.9967 12.5426 9.68575 12.4138 9.36152 12.4138ZM18.3265 12.4138C18.0847 12.4138 17.8484 12.4855 17.6473 12.6198C17.4463 12.7542 17.2896 12.9451 17.1971 13.1685C17.1046 13.3919 17.0803 13.6377 17.1275 13.8748C17.1747 14.1119 17.2911 14.3298 17.4621 14.5007C17.6331 14.6717 17.8509 14.7881 18.088 14.8353C18.3252 14.8825 18.571 14.8583 18.7944 14.7658C19.0177 14.6732 19.2087 14.5165 19.343 14.3155C19.4773 14.1145 19.549 13.8781 19.549 13.6363C19.549 13.3121 19.4202 13.0011 19.191 12.7719C18.9617 12.5426 18.6508 12.4138 18.3265 12.4138ZM24.439 13.6363C24.4394 15.4655 23.9662 17.2637 23.0655 18.8557C22.1648 20.4478 20.8672 21.7795 19.2991 22.7213C17.731 23.6632 15.9458 24.1829 14.1172 24.2301C12.2886 24.2773 10.4789 23.8502 8.86437 22.9905L5.39553 24.1468C5.10833 24.2425 4.80013 24.2564 4.50548 24.1869C4.21082 24.1174 3.94135 23.9671 3.72728 23.7531C3.5132 23.539 3.36298 23.2695 3.29344 22.9749C3.2239 22.6802 3.2378 22.372 3.33358 22.0848L4.48986 18.616C3.7341 17.195 3.31198 15.6206 3.25554 14.0122C3.1991 12.4038 3.50983 10.8036 4.16414 9.33325C4.81844 7.86285 5.79913 6.56083 7.03176 5.52603C8.26439 4.49123 9.71657 3.75084 11.2781 3.36107C12.8396 2.97129 14.4693 2.94237 16.0437 3.27651C17.618 3.61064 19.0955 4.29904 20.3641 5.28946C21.6327 6.27987 22.6589 7.54628 23.365 8.99254C24.0711 10.4388 24.4384 12.0269 24.439 13.6363ZM22.809 13.6363C22.8086 12.2611 22.4919 10.9045 21.8833 9.67128C21.2747 8.4381 20.3905 7.36146 19.2992 6.52465C18.208 5.68785 16.9388 5.11332 15.5899 4.8455C14.2411 4.57769 12.8487 4.62377 11.5205 4.98019C10.1923 5.33661 8.9639 5.99381 7.93034 6.90094C6.89677 7.80807 6.08575 8.94081 5.56002 10.2115C5.03428 11.4823 4.80793 12.8569 4.89848 14.2291C4.98902 15.6013 5.39403 16.9343 6.08217 18.1249C6.13992 18.2249 6.17578 18.336 6.18738 18.4508C6.19897 18.5657 6.18602 18.6817 6.1494 18.7912L4.87902 22.6013L8.68915 21.3309C8.77214 21.3026 8.85921 21.2882 8.94689 21.2881C9.09003 21.2884 9.23058 21.3263 9.35439 21.3982C10.7173 22.1867 12.2638 22.6024 13.8384 22.6034C15.4129 22.6044 16.96 22.1906 18.3238 21.4038C19.6877 20.617 20.8203 19.4849 21.6077 18.1213C22.395 16.7578 22.8094 15.2109 22.809 13.6363Z" fill="black"/>
</svg>
