<svg width="24" height="22" viewBox="0 0 24 22" fill="none" xmlns="http://www.w3.org/2000/svg">
<path d="M21.5066 0.264893H2.12028C1.65286 0.264893 1.20459 0.450573 0.874075 0.781086C0.543561 1.1116 0.357881 1.55987 0.357881 2.02729V19.6512C0.355849 19.9873 0.450921 20.3168 0.631669 20.6002C0.812418 20.8835 1.07115 21.1086 1.37677 21.2484C1.60965 21.3569 1.86338 21.4132 2.12028 21.4136C2.534 21.4127 2.93401 21.2651 3.24931 20.9973L3.25923 20.9896L6.85672 17.8889H21.5066C21.974 17.8889 22.4223 17.7032 22.7528 17.3727C23.0833 17.0421 23.269 16.5939 23.269 16.1265V2.02729C23.269 1.55987 23.0833 1.1116 22.7528 0.781086C22.4223 0.450573 21.974 0.264893 21.5066 0.264893ZM15.3382 11.7205H8.28866C8.05495 11.7205 7.83082 11.6276 7.66556 11.4624C7.5003 11.2971 7.40746 11.073 7.40746 10.8393C7.40746 10.6056 7.5003 10.3814 7.66556 10.2162C7.83082 10.0509 8.05495 9.95807 8.28866 9.95807H15.3382C15.572 9.95807 15.7961 10.0509 15.9613 10.2162C16.1266 10.3814 16.2194 10.6056 16.2194 10.8393C16.2194 11.073 16.1266 11.2971 15.9613 11.4624C15.7961 11.6276 15.572 11.7205 15.3382 11.7205ZM15.3382 8.19567H8.28866C8.05495 8.19567 7.83082 8.10283 7.66556 7.93758C7.5003 7.77232 7.40746 7.54818 7.40746 7.31448C7.40746 7.08077 7.5003 6.85663 7.66556 6.69138C7.83082 6.52612 8.05495 6.43328 8.28866 6.43328H15.3382C15.572 6.43328 15.7961 6.52612 15.9613 6.69138C16.1266 6.85663 16.2194 7.08077 16.2194 7.31448C16.2194 7.54818 16.1266 7.77232 15.9613 7.93758C15.7961 8.10283 15.572 8.19567 15.3382 8.19567Z" fill="white"/>
</svg>
