<svg width="21" height="19" viewBox="0 0 21 19" fill="none" xmlns="http://www.w3.org/2000/svg">
<path d="M19.1422 0.755859H1.65225C1.23056 0.755859 0.826133 0.923376 0.527951 1.22156C0.229769 1.51974 0.062252 1.92416 0.062252 2.34586V16.6558C0.062252 17.0775 0.229769 17.4819 0.527951 17.7801C0.826133 18.0783 1.23056 18.2458 1.65225 18.2458H2.98288C3.13334 18.2459 3.28072 18.2032 3.4079 18.1228C3.53509 18.0424 3.63685 17.9276 3.70136 17.7917C4.08794 16.9755 4.69829 16.2858 5.46143 15.8029C6.22456 15.3199 7.10912 15.0635 8.01223 15.0635C8.91535 15.0635 9.79991 15.3199 10.563 15.8029C11.3262 16.2858 11.9365 16.9755 12.3231 17.7917C12.3876 17.9276 12.4894 18.0424 12.6166 18.1228C12.7437 18.2032 12.8911 18.2459 13.0416 18.2458H19.1422C19.5639 18.2458 19.9683 18.0783 20.2665 17.7801C20.5647 17.4819 20.7322 17.0775 20.7322 16.6558V2.34586C20.7322 1.92416 20.5647 1.51974 20.2665 1.22156C19.9683 0.923376 19.5639 0.755859 19.1422 0.755859ZM8.01223 13.4758C7.38329 13.4758 6.76847 13.2893 6.24552 12.9399C5.72258 12.5905 5.31499 12.0938 5.0743 11.5128C4.83362 10.9317 4.77064 10.2923 4.89334 9.67545C5.01604 9.05859 5.31891 8.49197 5.76364 8.04724C6.20837 7.60251 6.77499 7.29965 7.39185 7.17695C8.00871 7.05425 8.6481 7.11722 9.22916 7.35791C9.81023 7.59859 10.3069 8.00618 10.6563 8.52913C11.0057 9.05208 11.1922 9.66689 11.1922 10.2958C11.1922 11.1392 10.8572 11.9481 10.2608 12.5444C9.66446 13.1408 8.85562 13.4758 8.01223 13.4758ZM19.1422 16.6558H13.5206C13.174 16.0582 12.7323 15.5212 12.2128 15.0658H16.7572C16.9681 15.0658 17.1703 14.9821 17.3194 14.833C17.4685 14.6839 17.5522 14.4817 17.5522 14.2708V4.73085C17.5522 4.52 17.4685 4.31779 17.3194 4.1687C17.1703 4.01961 16.9681 3.93585 16.7572 3.93585H4.03724C3.8264 3.93585 3.62419 4.01961 3.47509 4.1687C3.326 4.31779 3.24224 4.52 3.24224 4.73085V14.2708C3.24216 14.4471 3.30068 14.6185 3.40862 14.7579C3.51656 14.8973 3.66778 14.9969 3.83849 15.041C3.30705 15.5014 2.85601 16.0472 2.50389 16.6558H1.65225V2.34586H19.1422V16.6558Z" fill="white"/>
</svg>
