<svg width="24" height="22" viewBox="0 0 24 22" fill="none" xmlns="http://www.w3.org/2000/svg">
<path d="M21.3781 0.56958H2.24899C1.78778 0.56958 1.34545 0.752797 1.01932 1.07893C0.693196 1.40505 0.509979 1.84738 0.509979 2.30859V19.6987C0.508014 20.0302 0.601719 20.3552 0.779853 20.6347C0.957986 20.9143 1.21299 21.1365 1.51426 21.2747C1.74448 21.3816 1.99517 21.4372 2.24899 21.4377C2.65723 21.4368 3.05192 21.2912 3.36305 21.0269L3.37283 21.0193L6.92259 17.9597H21.3781C21.8394 17.9597 22.2817 17.7765 22.6078 17.4504C22.9339 17.1242 23.1172 16.6819 23.1172 16.2207V2.30859C23.1172 1.84738 22.9339 1.40505 22.6078 1.07893C22.2817 0.752797 21.8394 0.56958 21.3781 0.56958ZM21.3781 16.2207H6.59653C6.38775 16.2208 6.18598 16.296 6.02809 16.4326L2.24899 19.6987V2.30859H21.3781V16.2207ZM7.46603 7.52563C7.46603 7.29503 7.55764 7.07386 7.72071 6.9108C7.88377 6.74774 8.10493 6.65613 8.33554 6.65613H15.2916C15.5222 6.65613 15.7434 6.74774 15.9064 6.9108C16.0695 7.07386 16.1611 7.29503 16.1611 7.52563C16.1611 7.75624 16.0695 7.9774 15.9064 8.14047C15.7434 8.30353 15.5222 8.39514 15.2916 8.39514H8.33554C8.10493 8.39514 7.88377 8.30353 7.72071 8.14047C7.55764 7.9774 7.46603 7.75624 7.46603 7.52563ZM7.46603 11.0037C7.46603 10.7731 7.55764 10.5519 7.72071 10.3888C7.88377 10.2258 8.10493 10.1342 8.33554 10.1342H15.2916C15.5222 10.1342 15.7434 10.2258 15.9064 10.3888C16.0695 10.5519 16.1611 10.7731 16.1611 11.0037C16.1611 11.2343 16.0695 11.4554 15.9064 11.6185C15.7434 11.7816 15.5222 11.8732 15.2916 11.8732H8.33554C8.10493 11.8732 7.88377 11.7816 7.72071 11.6185C7.55764 11.4554 7.46603 11.2343 7.46603 11.0037Z" fill="white"/>
</svg>
