<svg width="19" height="20" viewBox="0 0 19 20" fill="none" xmlns="http://www.w3.org/2000/svg">
<g clip-path="url(#clip0_47_8133)">
<path d="M11.0109 6.61613L4.45213 13.0577C4.3426 13.1655 4.19511 13.2259 4.04148 13.2259C3.88784 13.2259 3.74035 13.1655 3.63082 13.0577L0.819934 10.2974C0.765093 10.2434 0.72141 10.1792 0.691381 10.1084C0.661352 10.0376 0.645564 9.96159 0.644918 9.88468C0.644272 9.80777 0.658782 9.73148 0.687618 9.66018C0.716454 9.58887 0.759052 9.52395 0.812979 9.46911C0.866907 9.41427 0.931109 9.37058 1.00192 9.34056C1.07273 9.31053 1.14876 9.29474 1.22567 9.29409C1.30258 9.29345 1.37887 9.30796 1.45017 9.33679C1.52147 9.36563 1.5864 9.40823 1.64124 9.46215L4.04148 11.8192L10.1903 5.78018C10.3011 5.67127 10.4507 5.61086 10.6061 5.61223C10.6831 5.61291 10.7591 5.62874 10.83 5.65881C10.9008 5.68888 10.965 5.73261 11.0189 5.7875C11.0728 5.84239 11.1154 5.90736 11.1443 5.97871C11.1731 6.05006 11.1876 6.12639 11.1869 6.20333C11.1862 6.28028 11.1704 6.35633 11.1403 6.42716C11.1102 6.49799 11.0665 6.5622 11.0116 6.61613H11.0109ZM18.0454 5.7875C17.9915 5.73257 17.9273 5.68881 17.8565 5.65871C17.7856 5.62861 17.7096 5.61276 17.6326 5.61208C17.5557 5.6114 17.4793 5.6259 17.408 5.65474C17.3366 5.68359 17.2717 5.72621 17.2168 5.78018L11.068 11.8192L9.6896 10.465C9.57875 10.3562 9.42921 10.2959 9.27388 10.2973C9.11855 10.2987 8.97016 10.3618 8.86134 10.4727C8.75253 10.5835 8.69221 10.7331 8.69365 10.8884C8.69509 11.0437 8.75818 11.1921 8.86903 11.3009L10.6573 13.0577C10.7668 13.1655 10.9143 13.2259 11.068 13.2259C11.2216 13.2259 11.3691 13.1655 11.4786 13.0577L18.0374 6.61613C18.0923 6.56227 18.1362 6.49811 18.1663 6.4273C18.1965 6.3565 18.2124 6.28044 18.2131 6.20348C18.2139 6.12653 18.1995 6.05018 18.1707 5.9788C18.1419 5.90742 18.0993 5.84242 18.0454 5.7875Z" fill="#60BB58"/>
</g>
<defs>
<clipPath id="clip0_47_8133">
<rect width="18.7393" height="18.7393" fill="white" transform="translate(0.0595703 0.342041)"/>
</clipPath>
</defs>
</svg>
