<svg width="28" height="28" viewBox="0 0 28 28" fill="none" xmlns="http://www.w3.org/2000/svg">
<g opacity="0.6" clip-path="url(#clip0_47_9935)">
<path d="M20.0078 0.0249023H8.66986C7.16692 0.0267026 5.72604 0.624543 4.6633 1.68729C3.60056 2.75003 3.00272 4.1909 3.00092 5.69385V22.7007C3.00092 23.9035 3.47873 25.057 4.32923 25.9075C5.17974 26.758 6.33327 27.2358 7.53607 27.2358H20.0078C21.5107 27.234 22.9516 26.6362 24.0143 25.5735C25.0771 24.5107 25.6749 23.0698 25.6767 21.5669V5.69385C25.6749 4.1909 25.0771 2.75003 24.0143 1.68729C22.9516 0.624543 21.5107 0.0267026 20.0078 0.0249023ZM23.4091 5.69385V18.1655H9.80365V2.29248H20.0078C20.9099 2.29248 21.775 2.65084 22.4129 3.28872C23.0508 3.9266 23.4091 4.79175 23.4091 5.69385ZM7.53607 2.48749V18.1655C6.73973 18.1648 5.95739 18.3749 5.26849 18.7744V5.69385C5.26859 4.99055 5.4867 4.30457 5.8928 3.73035C6.29889 3.15614 6.87299 2.72193 7.53607 2.48749ZM20.0078 24.9683H7.53607C6.93467 24.9683 6.35791 24.7294 5.93265 24.3041C5.5074 23.8788 5.26849 23.3021 5.26849 22.7007C5.26849 22.0993 5.5074 21.5225 5.93265 21.0973C6.35791 20.672 6.93467 20.4331 7.53607 20.4331H23.4091V21.5669C23.4091 22.469 23.0508 23.3341 22.4129 23.972C21.775 24.6099 20.9099 24.9683 20.0078 24.9683Z" fill="white"/>
</g>
<defs>
<clipPath id="clip0_47_9935">
<rect width="27.2109" height="27.2109" fill="white" transform="translate(0.733398 0.0249023)"/>
</clipPath>
</defs>
</svg>
