<svg width="28" height="28" viewBox="0 0 28 28" fill="none" xmlns="http://www.w3.org/2000/svg">
<g clip-path="url(#clip0_47_10094)">
<path d="M14.0654 27.6114C6.61261 27.6114 0.549713 21.5485 0.549713 14.0957C0.549713 6.64297 6.61261 0.580078 14.0654 0.580078C21.5181 0.580078 27.581 6.64297 27.581 14.0957C27.581 21.5485 21.5181 27.6114 14.0654 27.6114ZM14.0654 2.83269C7.85492 2.83269 2.80232 7.88529 2.80232 14.0957C2.80232 20.3062 7.85492 25.3588 14.0654 25.3588C20.2758 25.3588 25.3284 20.3062 25.3284 14.0957C25.3284 7.88529 20.2758 2.83269 14.0654 2.83269ZM19.6969 12.9694H15.1917V6.2116H12.9391V15.222H19.6969V12.9694Z" fill="#484C52"/>
</g>
<defs>
<clipPath id="clip0_47_10094">
<rect width="27.0313" height="27.0313" fill="white" transform="translate(0.549713 0.580078)"/>
</clipPath>
</defs>
</svg>
