<svg width="27" height="28" viewBox="0 0 27 28" fill="none" xmlns="http://www.w3.org/2000/svg">
<path d="M19.1823 7.47509H4.51227C4.29611 7.47509 4.08882 7.56095 3.93597 7.7138C3.78313 7.86664 3.69727 8.07394 3.69727 8.29009V22.9601C3.69727 23.1762 3.78313 23.3835 3.93597 23.5364C4.08882 23.6892 4.29611 23.7751 4.51227 23.7751H19.1823C19.3984 23.7751 19.6057 23.6892 19.7586 23.5364C19.9114 23.3835 19.9973 23.1762 19.9973 22.9601V8.29009C19.9973 8.07394 19.9114 7.86664 19.7586 7.7138C19.6057 7.56095 19.3984 7.47509 19.1823 7.47509ZM18.3673 22.1451H5.32727V9.10509H18.3673V22.1451ZM23.2573 5.03009V19.7001C23.2573 19.9162 23.1714 20.1235 23.0186 20.2764C22.8657 20.4292 22.6584 20.5151 22.4423 20.5151C22.2261 20.5151 22.0188 20.4292 21.866 20.2764C21.7131 20.1235 21.6273 19.9162 21.6273 19.7001V5.84509H7.77227C7.55611 5.84509 7.34882 5.75922 7.19597 5.60638C7.04313 5.45354 6.95727 5.24624 6.95727 5.03009C6.95727 4.81394 7.04313 4.60664 7.19597 4.4538C7.34882 4.30095 7.55611 4.21509 7.77227 4.21509H22.4423C22.6584 4.21509 22.8657 4.30095 23.0186 4.4538C23.1714 4.60664 23.2573 4.81394 23.2573 5.03009Z" fill="black"/>
</svg>
