<svg width="26" height="26" viewBox="0 0 26 26" fill="none" xmlns="http://www.w3.org/2000/svg">
<g opacity="0.5">
<path d="M13.1282 9.9939C12.5218 9.9939 11.929 10.1737 11.4247 10.5107C10.9205 10.8476 10.5275 11.3265 10.2954 11.8867C10.0633 12.447 10.0026 13.0636 10.1209 13.6583C10.2392 14.2531 10.5312 14.7995 10.9601 15.2283C11.3889 15.6571 11.9352 15.9492 12.53 16.0675C13.1248 16.1858 13.7414 16.1251 14.3016 15.893C14.8619 15.6609 15.3408 15.2679 15.6777 14.7637C16.0147 14.2594 16.1945 13.6666 16.1945 13.0602C16.1945 12.2469 15.8714 11.467 15.2964 10.892C14.7214 10.3169 13.9415 9.9939 13.1282 9.9939ZM13.1282 14.5933C12.825 14.5933 12.5286 14.5034 12.2765 14.3349C12.0244 14.1664 11.8279 13.927 11.7118 13.6469C11.5958 13.3667 11.5654 13.0584 11.6246 12.7611C11.6837 12.4637 11.8297 12.1905 12.0442 11.9761C12.2586 11.7617 12.5317 11.6156 12.8291 11.5565C13.1265 11.4973 13.4348 11.5277 13.7149 11.6437C13.9951 11.7598 14.2345 11.9563 14.403 12.2084C14.5714 12.4605 14.6614 12.7569 14.6614 13.0602C14.6614 13.4668 14.4998 13.8567 14.2123 14.1442C13.9248 14.4318 13.5348 14.5933 13.1282 14.5933ZM5.4626 9.9939C4.85615 9.9939 4.26333 10.1737 3.75908 10.5107C3.25484 10.8476 2.86183 11.3265 2.62975 11.8867C2.39768 12.447 2.33695 13.0636 2.45527 13.6583C2.57358 14.2531 2.86561 14.7995 3.29443 15.2283C3.72326 15.6571 4.26961 15.9492 4.86441 16.0675C5.4592 16.1858 6.07572 16.1251 6.63601 15.893C7.19629 15.6609 7.67517 15.2679 8.0121 14.7637C8.34902 14.2594 8.52886 13.6666 8.52886 13.0602C8.52886 12.2469 8.20581 11.467 7.63077 10.892C7.05574 10.3169 6.27582 9.9939 5.4626 9.9939ZM5.4626 14.5933C5.15938 14.5933 4.86296 14.5034 4.61084 14.3349C4.35872 14.1664 4.16222 13.927 4.04618 13.6469C3.93014 13.3667 3.89978 13.0584 3.95893 12.7611C4.01809 12.4637 4.16411 12.1905 4.37852 11.9761C4.59293 11.7617 4.86611 11.6156 5.1635 11.5565C5.4609 11.4973 5.76916 11.5277 6.0493 11.6437C6.32945 11.7598 6.56889 11.9563 6.73735 12.2084C6.90581 12.4605 6.99573 12.7569 6.99573 13.0602C6.99573 13.4668 6.8342 13.8567 6.54669 14.1442C6.25917 14.4318 5.86921 14.5933 5.4626 14.5933ZM20.7939 9.9939C20.1874 9.9939 19.5946 10.1737 19.0904 10.5107C18.5861 10.8476 18.1931 11.3265 17.961 11.8867C17.7289 12.447 17.6682 13.0636 17.7865 13.6583C17.9048 14.2531 18.1969 14.7995 18.6257 15.2283C19.0545 15.6571 19.6009 15.9492 20.1957 16.0675C20.7905 16.1858 21.407 16.1251 21.9673 15.893C22.5276 15.6609 23.0064 15.2679 23.3434 14.7637C23.6803 14.2594 23.8601 13.6666 23.8601 13.0602C23.8601 12.2469 23.5371 11.467 22.962 10.892C22.387 10.3169 21.6071 9.9939 20.7939 9.9939ZM20.7939 14.5933C20.4906 14.5933 20.1942 14.5034 19.9421 14.3349C19.69 14.1664 19.4935 13.927 19.3774 13.6469C19.2614 13.3667 19.231 13.0584 19.2902 12.7611C19.3494 12.4637 19.4954 12.1905 19.7098 11.9761C19.9242 11.7617 20.1974 11.6156 20.4948 11.5565C20.7922 11.4973 21.1004 11.5277 21.3806 11.6437C21.6607 11.7598 21.9002 11.9563 22.0686 12.2084C22.2371 12.4605 22.327 12.7569 22.327 13.0602C22.327 13.4668 22.1655 13.8567 21.878 14.1442C21.5904 14.4318 21.2005 14.5933 20.7939 14.5933Z" fill="black"/>
</g>
</svg>
