<svg width="20" height="20" viewBox="0 0 20 20" fill="none" xmlns="http://www.w3.org/2000/svg">
<rect width="20" height="20" rx="10" fill="#DC2626"/>
<path fill-rule="evenodd" clip-rule="evenodd" d="M10 6.25C10.6904 6.25 11.25 6.80964 11.25 7.5V8.75H12.5C13.1904 8.75 13.75 9.30964 13.75 10C13.75 10.6904 13.1904 11.25 12.5 11.25H11.25V12.5C11.25 13.1904 10.6904 13.75 10 13.75C9.30964 13.75 8.75 13.1904 8.75 12.5V11.25H7.5C6.80964 11.25 6.25 10.6904 6.25 10C6.25 9.30964 6.80964 8.75 7.5 8.75H8.75V7.5C8.75 6.80964 9.30964 6.25 10 6.25Z" fill="white"/>
</svg>
