<svg width="27" height="28" viewBox="0 0 27 28" fill="none" xmlns="http://www.w3.org/2000/svg">
<path d="M19.5499 7.47509H4.87994C4.66379 7.47509 4.45649 7.56095 4.30365 7.7138C4.15081 7.86664 4.06494 8.07394 4.06494 8.29009V22.9601C4.06494 23.1762 4.15081 23.3835 4.30365 23.5364C4.45649 23.6892 4.66379 23.7751 4.87994 23.7751H19.5499C19.7661 23.7751 19.9734 23.6892 20.1262 23.5364C20.2791 23.3835 20.3649 23.1762 20.3649 22.9601V8.29009C20.3649 8.07394 20.2791 7.86664 20.1262 7.7138C19.9734 7.56095 19.7661 7.47509 19.5499 7.47509ZM18.7349 22.1451H5.69494V9.10509H18.7349V22.1451ZM23.6249 5.03009V19.7001C23.6249 19.9162 23.5391 20.1235 23.3862 20.2764C23.2334 20.4292 23.0261 20.5151 22.8099 20.5151C22.5938 20.5151 22.3865 20.4292 22.2336 20.2764C22.0808 20.1235 21.9949 19.9162 21.9949 19.7001V5.84509H8.13994C7.92379 5.84509 7.71649 5.75922 7.56365 5.60638C7.41081 5.45354 7.32494 5.24624 7.32494 5.03009C7.32494 4.81394 7.41081 4.60664 7.56365 4.4538C7.71649 4.30095 7.92379 4.21509 8.13994 4.21509H22.8099C23.0261 4.21509 23.2334 4.30095 23.3862 4.4538C23.5391 4.60664 23.6249 4.81394 23.6249 5.03009Z" fill="black"/>
</svg>
