<svg width="28" height="26" viewBox="0 0 28 26" fill="none" xmlns="http://www.w3.org/2000/svg">
<g opacity="0.5">
<path d="M5.2517 5.89516C6.57402 5.89516 7.64597 4.74961 7.64597 3.3365C7.64597 1.92339 6.57402 0.777832 5.2517 0.777832C3.92938 0.777832 2.85742 1.92339 2.85742 3.3365C2.85742 4.74961 3.92938 5.89516 5.2517 5.89516Z" fill="#595A5A"/>
<path d="M21.0906 5.89516C22.4129 5.89516 23.4848 4.74961 23.4848 3.3365C23.4848 1.92339 22.4129 0.777832 21.0906 0.777832C19.7682 0.777832 18.6963 1.92339 18.6963 3.3365C18.6963 4.74961 19.7682 5.89516 21.0906 5.89516Z" fill="#595A5A"/>
<path d="M8.15287 6.60303H2.3513C1.36121 6.60303 0.555664 7.33104 0.555664 8.22555V15.8844C0.555664 16.3668 0.988551 16.758 1.52255 16.758C2.05654 16.758 2.48943 16.3668 2.48943 15.8844V8.35043H2.98585V16.2614V24.3487C2.98585 24.831 3.41874 25.2222 3.95273 25.2222C4.48673 25.2222 4.91962 24.831 4.91962 24.3487V16.8849H5.58483V24.3484C5.58483 24.8307 6.01772 25.2219 6.55171 25.2219C7.08571 25.2219 7.5186 24.8307 7.5186 24.3484V16.2614V8.35043H8.01502V15.8847C8.01502 16.3671 8.44791 16.7583 8.9819 16.7583C9.5159 16.7583 9.94878 16.3671 9.94878 15.8847V8.22555C9.94851 7.33104 9.14296 6.60303 8.15287 6.60303Z" fill="#595A5A"/>
<path d="M27.4259 15.7168L25.783 8.12493C25.7258 7.27706 24.944 6.60278 23.9913 6.60278H18.1891C17.2363 6.60278 16.4546 7.27706 16.3974 8.12493L14.7545 15.7168C14.652 16.1903 14.9935 16.6488 15.5178 16.7415C16.044 16.836 16.5496 16.5257 16.6521 16.0519L18.3096 8.39299C18.3129 8.37882 18.3154 8.36436 18.3173 8.34989H18.6566L16.6231 19.6004C16.5905 19.7817 16.6474 19.9659 16.7786 20.1052C16.9104 20.2449 17.1024 20.3252 17.3049 20.3252H18.8242V24.3481C18.8242 24.8302 19.2571 25.2214 19.7911 25.2214C20.3251 25.2214 20.758 24.8302 20.758 24.3481V20.3258H21.4229V24.3484C21.4229 24.8308 21.8556 25.222 22.3898 25.222C22.9241 25.222 23.3567 24.8308 23.3567 24.3484V20.3258H24.8761C24.8783 20.326 24.8805 20.326 24.8816 20.3258C25.2631 20.3258 25.5722 20.0465 25.5722 19.702C25.5722 19.64 25.5626 19.58 25.5435 19.5233L23.5238 8.34989H23.8631C23.8653 8.36465 23.8683 8.37882 23.8708 8.39299L25.5283 16.0519C25.6184 16.4684 26.0231 16.758 26.4764 16.758C26.538 16.758 26.6005 16.7524 26.6632 16.7415C27.1861 16.6491 27.5284 16.1906 27.4259 15.7168Z" fill="#595A5A"/>
<path d="M12.4631 0.999268C12.0816 0.999268 11.7725 1.27854 11.7725 1.62336V24.3653C11.7725 24.7098 12.0816 24.9891 12.4631 24.9891C12.8446 24.9891 13.1537 24.7098 13.1537 24.3653V1.62336C13.1537 1.27854 12.8443 0.999268 12.4631 0.999268Z" fill="#595A5A"/>
</g>
</svg>
