<svg width="316" height="80" viewBox="0 0 316 80" fill="none" xmlns="http://www.w3.org/2000/svg">
<g filter="url(#filter0_d_444_12)">
<rect x="15" width="286" height="50" rx="10" fill="url(#paint0_linear_444_12)"/>
<path d="M151.938 19.3359V30H149.748V19.3359H151.938ZM155.219 19.3359V21.0571H146.518V19.3359H155.219ZM159.298 30.1465C158.683 30.1465 158.131 30.0488 157.643 29.8535C157.155 29.6533 156.74 29.3774 156.398 29.0259C156.061 28.6743 155.802 28.2666 155.622 27.8027C155.441 27.334 155.351 26.8359 155.351 26.3086V26.0156C155.351 25.415 155.436 24.8657 155.607 24.3677C155.778 23.8696 156.022 23.4375 156.339 23.0713C156.662 22.7051 157.052 22.4243 157.511 22.229C157.97 22.0288 158.488 21.9287 159.064 21.9287C159.625 21.9287 160.124 22.0215 160.558 22.207C160.993 22.3926 161.356 22.6562 161.649 22.998C161.947 23.3398 162.172 23.75 162.323 24.2285C162.475 24.7021 162.55 25.2295 162.55 25.8105V26.6895H156.251V25.2832H160.478V25.1221C160.478 24.8291 160.424 24.5679 160.316 24.3384C160.214 24.104 160.058 23.9185 159.848 23.7817C159.638 23.645 159.369 23.5767 159.042 23.5767C158.764 23.5767 158.524 23.6377 158.324 23.7598C158.124 23.8818 157.96 24.0527 157.833 24.2725C157.711 24.4922 157.619 24.751 157.555 25.0488C157.497 25.3418 157.467 25.6641 157.467 26.0156V26.3086C157.467 26.626 157.511 26.9189 157.599 27.1875C157.692 27.4561 157.821 27.688 157.987 27.8833C158.158 28.0786 158.363 28.23 158.603 28.3374C158.847 28.4448 159.123 28.4985 159.43 28.4985C159.811 28.4985 160.165 28.4253 160.492 28.2788C160.824 28.1274 161.11 27.9004 161.349 27.5977L162.375 28.7109C162.208 28.9502 161.981 29.1797 161.693 29.3994C161.41 29.6191 161.068 29.7998 160.668 29.9414C160.268 30.0781 159.811 30.1465 159.298 30.1465ZM168.029 28.2129V24.6826C168.029 24.4287 167.987 24.2114 167.904 24.0308C167.821 23.8452 167.692 23.7012 167.516 23.5986C167.345 23.4961 167.123 23.4448 166.85 23.4448C166.615 23.4448 166.413 23.4863 166.242 23.5693C166.071 23.6475 165.939 23.7622 165.846 23.9136C165.753 24.0601 165.707 24.2334 165.707 24.4336H163.598C163.598 24.0967 163.676 23.7769 163.832 23.4741C163.988 23.1714 164.215 22.9053 164.513 22.6758C164.811 22.4414 165.165 22.2583 165.575 22.1265C165.99 21.9946 166.454 21.9287 166.967 21.9287C167.582 21.9287 168.129 22.0312 168.607 22.2363C169.086 22.4414 169.462 22.749 169.735 23.1592C170.014 23.5693 170.153 24.082 170.153 24.6973V28.0884C170.153 28.5229 170.18 28.8794 170.233 29.1577C170.287 29.4312 170.365 29.6704 170.468 29.8755V30H168.336C168.234 29.7852 168.156 29.5166 168.102 29.1943C168.053 28.8672 168.029 28.54 168.029 28.2129ZM168.307 25.1733L168.322 26.3672H167.143C166.864 26.3672 166.623 26.3989 166.417 26.4624C166.212 26.5259 166.044 26.6162 165.912 26.7334C165.78 26.8457 165.683 26.9775 165.619 27.1289C165.561 27.2803 165.531 27.4463 165.531 27.627C165.531 27.8076 165.573 27.9712 165.656 28.1177C165.739 28.2593 165.858 28.3716 166.015 28.4546C166.171 28.5327 166.354 28.5718 166.564 28.5718C166.881 28.5718 167.157 28.5083 167.392 28.3813C167.626 28.2544 167.807 28.0981 167.934 27.9126C168.065 27.7271 168.134 27.5513 168.139 27.3853L168.695 28.2788C168.617 28.479 168.51 28.6865 168.373 28.9014C168.241 29.1162 168.073 29.3188 167.868 29.5093C167.663 29.6948 167.416 29.8486 167.128 29.9707C166.84 30.0879 166.498 30.1465 166.103 30.1465C165.6 30.1465 165.143 30.0464 164.733 29.8462C164.328 29.6411 164.005 29.3604 163.766 29.0039C163.532 28.6426 163.415 28.2324 163.415 27.7734C163.415 27.3584 163.493 26.9897 163.649 26.6675C163.805 26.3452 164.035 26.0742 164.337 25.8545C164.645 25.6299 165.028 25.4614 165.487 25.3491C165.946 25.2319 166.479 25.1733 167.084 25.1733H168.307ZM175.053 28.4985C175.312 28.4985 175.541 28.4497 175.741 28.3521C175.941 28.2495 176.098 28.1079 176.21 27.9272C176.327 27.7417 176.388 27.5244 176.393 27.2754H178.378C178.373 27.832 178.224 28.3276 177.931 28.7622C177.638 29.1919 177.245 29.5312 176.752 29.7803C176.259 30.0244 175.707 30.1465 175.097 30.1465C174.481 30.1465 173.944 30.0439 173.485 29.8389C173.031 29.6338 172.653 29.3506 172.35 28.9893C172.047 28.623 171.82 28.1982 171.669 27.7148C171.518 27.2266 171.442 26.7041 171.442 26.1475V25.9351C171.442 25.3735 171.518 24.8511 171.669 24.3677C171.82 23.8794 172.047 23.4546 172.35 23.0933C172.653 22.7271 173.031 22.4414 173.485 22.2363C173.939 22.0312 174.472 21.9287 175.082 21.9287C175.731 21.9287 176.3 22.0532 176.789 22.3022C177.282 22.5513 177.667 22.9077 177.946 23.3716C178.229 23.8306 178.373 24.375 178.378 25.0049H176.393C176.388 24.7412 176.332 24.502 176.225 24.2871C176.122 24.0723 175.971 23.9014 175.771 23.7744C175.575 23.6426 175.333 23.5767 175.045 23.5767C174.738 23.5767 174.486 23.6426 174.291 23.7744C174.096 23.9014 173.944 24.0771 173.837 24.3018C173.729 24.5215 173.654 24.7729 173.61 25.0562C173.571 25.3345 173.551 25.6274 173.551 25.9351V26.1475C173.551 26.4551 173.571 26.7505 173.61 27.0337C173.649 27.3169 173.722 27.5684 173.83 27.7881C173.942 28.0078 174.096 28.1812 174.291 28.3081C174.486 28.4351 174.74 28.4985 175.053 28.4985ZM181.659 18.75V30H179.55V18.75H181.659ZM181.359 25.7593H180.78C180.785 25.2075 180.858 24.6997 181 24.2358C181.142 23.7671 181.344 23.3618 181.608 23.02C181.872 22.6733 182.187 22.4048 182.553 22.2144C182.924 22.0239 183.334 21.9287 183.783 21.9287C184.174 21.9287 184.528 21.9849 184.845 22.0972C185.167 22.2046 185.443 22.3804 185.673 22.6245C185.907 22.8638 186.088 23.1787 186.215 23.5693C186.342 23.96 186.405 24.4336 186.405 24.9902V30H184.281V24.9756C184.281 24.624 184.23 24.3481 184.127 24.1479C184.03 23.9429 183.886 23.7988 183.695 23.7158C183.51 23.6279 183.28 23.584 183.007 23.584C182.704 23.584 182.445 23.6401 182.23 23.7524C182.021 23.8647 181.852 24.021 181.725 24.2212C181.598 24.4165 181.505 24.646 181.447 24.9097C181.388 25.1733 181.359 25.4565 181.359 25.7593ZM191.657 30.1465C191.042 30.1465 190.49 30.0488 190.001 29.8535C189.513 29.6533 189.098 29.3774 188.756 29.0259C188.419 28.6743 188.161 28.2666 187.98 27.8027C187.799 27.334 187.709 26.8359 187.709 26.3086V26.0156C187.709 25.415 187.794 24.8657 187.965 24.3677C188.136 23.8696 188.38 23.4375 188.698 23.0713C189.02 22.7051 189.411 22.4243 189.87 22.229C190.329 22.0288 190.846 21.9287 191.422 21.9287C191.984 21.9287 192.482 22.0215 192.917 22.207C193.351 22.3926 193.715 22.6562 194.008 22.998C194.306 23.3398 194.53 23.75 194.682 24.2285C194.833 24.7021 194.909 25.2295 194.909 25.8105V26.6895H188.61V25.2832H192.836V25.1221C192.836 24.8291 192.782 24.5679 192.675 24.3384C192.572 24.104 192.416 23.9185 192.206 23.7817C191.996 23.645 191.728 23.5767 191.4 23.5767C191.122 23.5767 190.883 23.6377 190.683 23.7598C190.482 23.8818 190.319 24.0527 190.192 24.2725C190.07 24.4922 189.977 24.751 189.914 25.0488C189.855 25.3418 189.826 25.6641 189.826 26.0156V26.3086C189.826 26.626 189.87 26.9189 189.958 27.1875C190.05 27.4561 190.18 27.688 190.346 27.8833C190.517 28.0786 190.722 28.23 190.961 28.3374C191.205 28.4448 191.481 28.4985 191.789 28.4985C192.169 28.4985 192.523 28.4253 192.851 28.2788C193.183 28.1274 193.468 27.9004 193.708 27.5977L194.733 28.7109C194.567 28.9502 194.34 29.1797 194.052 29.3994C193.769 29.6191 193.427 29.7998 193.026 29.9414C192.626 30.0781 192.169 30.1465 191.657 30.1465ZM198.219 23.8037V30H196.11V22.0752H198.095L198.219 23.8037ZM200.607 22.0239L200.57 23.9795C200.468 23.9648 200.343 23.9526 200.197 23.9429C200.055 23.9282 199.926 23.9209 199.809 23.9209C199.511 23.9209 199.252 23.96 199.032 24.0381C198.817 24.1113 198.637 24.2212 198.49 24.3677C198.349 24.5142 198.241 24.6924 198.168 24.9023C198.1 25.1123 198.061 25.3516 198.051 25.6201L197.626 25.4883C197.626 24.9756 197.677 24.5044 197.78 24.0747C197.882 23.6401 198.031 23.2617 198.227 22.9395C198.427 22.6172 198.671 22.3682 198.959 22.1924C199.247 22.0166 199.577 21.9287 199.948 21.9287C200.065 21.9287 200.185 21.9385 200.307 21.958C200.429 21.9727 200.529 21.9946 200.607 22.0239Z" fill="#697BEE"/>
<g clip-path="url(#clip0_444_12)">
<path d="M135.653 31.1035C135.404 30.2595 135.477 30.032 134.822 29.2677C134.639 29.0781 134.418 28.928 134.173 28.8271C133.928 28.7263 133.664 28.6767 133.399 28.6816C133.15 28.6816 131.285 27.8352 130.121 27.2983L131.224 30.5971L129.089 32.9018L130.095 30.7331L129.181 26.8669V26.8481L129.361 26.1448C129.43 25.7813 129.525 25.4232 129.646 25.0733C130.189 24.1073 131.001 23.8096 131.373 23.8377C132.237 23.9057 132.751 23.8189 132.982 23.6759C133.28 23.4907 133.231 22.9069 133.219 22.6068C133.197 22.2434 133.551 22.3184 133.598 22.0136C133.639 21.7604 133.458 21.7229 133.515 21.7018C133.662 21.6549 133.942 21.4228 133.786 21.1837C133.477 20.7147 133.707 20.3865 133.814 20.3912C134.085 20.4053 134.656 20.0208 134.372 19.6573C134.149 19.2283 133.603 18.2506 133.62 17.9036C133.67 17.5291 133.753 17.1596 133.869 16.7993C133.869 16.7993 133.613 15.5098 133.492 15.0925C133.242 14.2555 133.057 14.0257 132.932 13.8897C132.932 13.8897 132.889 12.1477 129.786 12.0141C128.517 11.9648 124.914 12.0539 123.78 14.0515C123.606 14.3522 123.456 14.6658 123.331 14.9893C121.967 13.3974 119.374 14.4923 119 16.7266C118.665 18.7312 118.35 21.6244 121.298 25.7602C121.545 26.1761 121.706 26.6357 121.773 27.1131C120.489 27.6078 119.275 28.2853 118.985 28.2267C118.191 28.0509 117.344 28.1869 116.713 29.7108C116.549 30.4494 115.645 34.8689 114.998 39.0141H136.998C136.957 37.8652 136.165 32.8479 135.653 31.1035ZM123.912 25.2562C123.504 22.1942 122.577 20.4897 123.246 19.2259C123.258 19.2002 123.27 19.1814 123.281 19.1556C123.699 21.397 125.11 21.9409 125.151 22.8155C125.231 24.4567 124.676 24.9818 124.202 25.8446L123.981 25.9314C123.97 25.7053 123.947 25.4799 123.912 25.2562ZM124.109 26.6488L125.243 24.5786L129.812 30.6745L126.816 33.4293L124.109 26.6488Z" fill="#697BEE"/>
</g>
<rect x="15.5" y="0.5" width="285" height="49" rx="9.5" stroke="#DBE5FF"/>
</g>
<defs>
<filter id="filter0_d_444_12" x="0" y="0" width="316" height="80" filterUnits="userSpaceOnUse" color-interpolation-filters="sRGB">
<feFlood flood-opacity="0" result="BackgroundImageFix"/>
<feColorMatrix in="SourceAlpha" type="matrix" values="0 0 0 0 0 0 0 0 0 0 0 0 0 0 0 0 0 0 127 0" result="hardAlpha"/>
<feMorphology radius="9" operator="erode" in="SourceAlpha" result="effect1_dropShadow_444_12"/>
<feOffset dy="15"/>
<feGaussianBlur stdDeviation="12"/>
<feColorMatrix type="matrix" values="0 0 0 0 0.19566 0 0 0 0 0.300198 0 0 0 0 0.670833 0 0 0 0.12 0"/>
<feBlend mode="normal" in2="BackgroundImageFix" result="effect1_dropShadow_444_12"/>
<feBlend mode="normal" in="SourceGraphic" in2="effect1_dropShadow_444_12" result="shape"/>
</filter>
<linearGradient id="paint0_linear_444_12" x1="158.313" y1="2.032e-08" x2="158.255" y2="50.0003" gradientUnits="userSpaceOnUse">
<stop stop-color="white"/>
<stop offset="1" stop-color="#F8F9FF"/>
</linearGradient>
<clipPath id="clip0_444_12">
<rect width="22" height="27" fill="white" transform="translate(115 12)"/>
</clipPath>
</defs>
</svg>
