<svg width="27" height="27" viewBox="0 0 27 27" fill="none" xmlns="http://www.w3.org/2000/svg">
<g clip-path="url(#clip0_47_7769)">
<path d="M20.9079 26.6113H5.72669C2.73708 26.6113 0.304836 24.1791 0.304836 21.1895V11.1308C0.304836 9.32536 1.19836 7.64459 2.69479 6.63612L10.2843 1.51356C12.1266 0.270871 14.5079 0.270871 16.3503 1.51356L23.9409 6.63612C25.4362 7.64459 26.3297 9.32428 26.3297 11.1308V21.1895C26.3297 24.1791 23.8975 26.6113 20.9079 26.6113ZM13.3173 2.75191C12.684 2.75191 12.0507 2.93842 11.4977 3.31253L3.90711 8.43401C3.00926 9.03909 2.47358 10.0465 2.47358 11.1298V21.1884C2.47358 22.9819 3.93314 24.4415 5.72669 24.4415H20.9079C22.7014 24.4415 24.161 22.9819 24.161 21.1884V11.1308C24.161 10.0476 23.6253 9.03909 22.7285 8.43509L15.1369 3.31253C14.5838 2.93842 13.9506 2.75191 13.3173 2.75191Z" fill="#484C52"/>
</g>
<defs>
<clipPath id="clip0_47_7769">
<rect width="26.0249" height="26.0249" fill="white" transform="translate(0.304836 0.586426)"/>
</clipPath>
</defs>
</svg>
