<svg width="30" height="30" viewBox="0 0 30 30" fill="none" xmlns="http://www.w3.org/2000/svg">
<path d="M12.272 10.5111H19.5553V12.1296H12.272V10.5111Z" fill="white"/>
<path d="M12.272 13.7481H19.5553V15.3666H12.272V13.7481Z" fill="white"/>
<path d="M12.272 16.9852H19.5553V18.6037H12.272V16.9852Z" fill="white"/>
<path d="M12.272 20.2222H19.5553V21.8407H12.272V20.2222Z" fill="white"/>
<path d="M9.03516 7.27408H10.6537V8.8926H9.03516V7.27408Z" fill="white"/>
<path d="M9.03516 10.5111H10.6537V12.1296H9.03516V10.5111Z" fill="white"/>
<path d="M9.03516 13.7481H10.6537V15.3666H9.03516V13.7481Z" fill="white"/>
<path d="M9.03516 16.9852H10.6537V18.6037H9.03516V16.9852Z" fill="white"/>
<path d="M9.03516 20.2222H10.6537V21.8407H9.03516V20.2222Z" fill="white"/>
<path d="M12.272 7.27408V8.8926H19.2802C18.9617 8.3915 18.719 7.84611 18.5599 7.27408H12.272Z" fill="white"/>
<path d="M22.7925 11.4984V26.6963H6.60729V4.03707H18.5681C18.7247 3.46549 18.9646 2.92012 19.2803 2.41855H6.60729C6.17803 2.41855 5.76635 2.58907 5.46282 2.8926C5.15929 3.19613 4.98877 3.60781 4.98877 4.03707V26.6963C4.98877 27.1256 5.15929 27.5373 5.46282 27.8408C5.76635 28.1443 6.17803 28.3148 6.60729 28.3148H22.7925C23.2217 28.3148 23.6334 28.1443 23.9369 27.8408C24.2405 27.5373 24.411 27.1256 24.411 26.6963V11.725C23.8637 11.7229 23.3193 11.6467 22.7925 11.4984Z" fill="white"/>
<path d="M24.411 9.70185C26.6458 9.70185 28.4573 7.89026 28.4573 5.65555C28.4573 3.42084 26.6458 1.60925 24.411 1.60925C22.1763 1.60925 20.3647 3.42084 20.3647 5.65555C20.3647 7.89026 22.1763 9.70185 24.411 9.70185Z" fill="white"/>
</svg>
