<svg width="30" height="30" viewBox="0 0 30 30" fill="none" xmlns="http://www.w3.org/2000/svg">
<path d="M15.4801 2.72241C13.1468 2.72241 10.8659 3.41432 8.92579 4.71065C6.9857 6.00698 5.47358 7.8495 4.58065 10.0052C3.68773 12.1609 3.4541 14.533 3.90931 16.8215C4.36452 19.11 5.48812 21.2121 7.13803 22.862C8.78795 24.5119 10.8901 25.6355 13.1786 26.0908C15.4671 26.546 17.8391 26.3123 19.9949 25.4194C22.1506 24.5265 23.9931 23.0144 25.2894 21.0743C26.5857 19.1342 27.2777 16.8533 27.2777 14.5199C27.2744 11.392 26.0303 8.39322 23.8186 6.18147C21.6068 3.96972 18.608 2.72572 15.4801 2.72241ZM15.4801 24.5024C13.5058 24.5024 11.5758 23.917 9.93415 22.8201C8.29253 21.7232 7.01305 20.1641 6.2575 18.3401C5.50195 16.516 5.30426 14.5089 5.68944 12.5724C6.07461 10.636 7.02536 8.8573 8.42144 7.46123C9.81751 6.06515 11.5962 5.1144 13.5326 4.72923C15.4691 4.34405 17.4762 4.54174 19.3003 5.29729C21.1243 6.05284 22.6834 7.33232 23.7803 8.97394C24.8772 10.6156 25.4627 12.5456 25.4627 14.5199C25.4597 17.1665 24.407 19.7039 22.5355 21.5753C20.6641 23.4467 18.1267 24.4994 15.4801 24.5024ZM17.2951 19.9649C17.2951 20.2056 17.1995 20.4364 17.0293 20.6066C16.8592 20.7768 16.6283 20.8724 16.3876 20.8724C15.9063 20.8724 15.4446 20.6812 15.1042 20.3408C14.7639 20.0005 14.5726 19.5388 14.5726 19.0574V14.5199C14.332 14.5199 14.1011 14.4243 13.9309 14.2541C13.7607 14.0839 13.6651 13.8531 13.6651 13.6124C13.6651 13.3717 13.7607 13.1409 13.9309 12.9707C14.1011 12.8005 14.332 12.7049 14.5726 12.7049C15.054 12.7049 15.5157 12.8961 15.856 13.2365C16.1964 13.5769 16.3876 14.0386 16.3876 14.5199V19.0574C16.6283 19.0574 16.8592 19.153 17.0293 19.3232C17.1995 19.4934 17.2951 19.7243 17.2951 19.9649ZM13.6651 9.52867C13.6651 9.25944 13.745 8.99626 13.8945 8.7724C14.0441 8.54854 14.2567 8.37407 14.5055 8.27104C14.7542 8.16801 15.0279 8.14105 15.292 8.19358C15.556 8.2461 15.7986 8.37575 15.9889 8.56612C16.1793 8.75649 16.309 8.99905 16.3615 9.2631C16.414 9.52716 16.387 9.80086 16.284 10.0496C16.181 10.2983 16.0065 10.5109 15.7827 10.6605C15.5588 10.8101 15.2956 10.8899 15.0264 10.8899C14.6654 10.8899 14.3191 10.7465 14.0638 10.4912C13.8086 10.2359 13.6651 9.8897 13.6651 9.52867Z" fill="black"/>
</svg>
