<?xml version="1.0" encoding="utf-8"?>
<!-- Svg Vector Icons : http://www.onlinewebfonts.com/icon -->
<!DOCTYPE svg PUBLIC "-//W3C//DTD SVG 1.1//EN" "http://www.w3.org/Graphics/SVG/1.1/DTD/svg11.dtd">
<svg version="1.1" xmlns="http://www.w3.org/2000/svg" xmlns:xlink="http://www.w3.org/1999/xlink" x="0px" y="0px" viewBox="0 0 256 256" enable-background="new 0 0 256 256" xml:space="preserve">
<metadata> Svg Vector Icons : http://www.onlinewebfonts.com/icon </metadata>
<g><g><path fill="#000000" d="M173.9,76.5l9.7-9.7l-9.7-9.7l-9.7,9.7L173.9,76.5z"/><path fill="#000000" d="M24,120.8c0-54,43.8-97.8,97.8-97.8c53.4,0,96.8,42.8,97.8,96c4.9,2.8,9.5,6.1,13.7,9.9c0.2-2.7,0.3-5.4,0.3-8.1C233.6,59.1,183.6,9,121.8,9C60.1,9,10,59.1,10,120.8c0,61.7,50.1,111.8,111.8,111.8c1.5,0,3,0,4.5-0.1c-3.7-4.3-6.9-9-9.5-14C65.1,215.9,24,173.2,24,120.8z"/><path fill="#000000" d="M128.8,121v-77c0-3.9-3.1-7-7-7s-7,3.1-7,7v70H58.9c-3.9,0-7,3.1-7,7c0,3.9,3.1,7,7,7h62.9C125.7,128,128.8,124.8,128.8,121z"/><path fill="#000000" d="M77.7,67.1l-9.9-9.9L58,67.1l9.9,9.9L77.7,67.1z"/><path fill="#000000" d="M66.7,178.2l9.7-9.7l-9.7-9.7l-9.7,9.7L66.7,178.2z"/><path fill="#000000" d="M173.2,197L155,178.9l-6.8,6.8l21.6,21.6c1.9,1.9,4.9,1.9,6.8,0l41.1-41.1l-6.8-6.8L173.2,197z"/><path fill="#000000" d="M183,121c-34.8,0-63,28.2-63,63c0,34.8,28.2,63,63,63c34.8,0,63-28.2,63-63C246,149.2,217.8,121,183,121z M183,237.3c-29.5,0-53.3-23.9-53.3-53.3s23.9-53.3,53.3-53.3s53.3,23.9,53.3,53.3C236.3,213.4,212.4,237.3,183,237.3z"/></g></g>
</svg>