<svg width="35" height="30" viewBox="0 0 35 30" fill="none" xmlns="http://www.w3.org/2000/svg">
<g opacity="0.6" clip-path="url(#clip0_47_9953)">
<path d="M19.5066 18.454C19.1883 18.454 18.883 18.5805 18.6579 18.8056C18.4329 19.0306 18.3064 19.3359 18.3064 19.6542V23.2547C18.3064 24.2096 17.9271 25.1255 17.2519 25.8007C16.5766 26.4759 15.6608 26.8552 14.7059 26.8552H11.7343C10.7794 26.8552 9.86354 26.4759 9.18832 25.8007C8.51309 25.1255 8.13375 24.2096 8.13375 23.2547V6.45229C8.13375 5.49737 8.51309 4.58156 9.18832 3.90633C9.86354 3.2311 10.7794 2.85176 11.7343 2.85176H14.7059C15.6608 2.85176 16.5766 3.2311 17.2519 3.90633C17.9271 4.58156 18.3064 5.49737 18.3064 6.45229V10.0528C18.3064 10.3711 18.4329 10.6764 18.6579 10.9015C18.883 11.1265 19.1883 11.253 19.5066 11.253C19.8249 11.253 20.1302 11.1265 20.3552 10.9015C20.5803 10.6764 20.7068 10.3711 20.7068 10.0528V6.45229C20.7049 4.86134 20.072 3.3361 18.9471 2.21114C17.8221 1.08617 16.2968 0.453322 14.7059 0.451416H11.7343C10.1433 0.453322 8.61809 1.08617 7.49312 2.21114C6.36815 3.3361 5.7353 4.86134 5.7334 6.45229L5.7334 23.2547C5.7353 24.8457 6.36815 26.3709 7.49312 27.4959C8.61809 28.6208 10.1433 29.2537 11.7343 29.2556H14.7059C16.2968 29.2537 17.8221 28.6208 18.9471 27.4959C20.072 26.3709 20.7049 24.8457 20.7068 23.2547V19.6542C20.7068 19.3359 20.5803 19.0306 20.3552 18.8056C20.1302 18.5805 19.8249 18.454 19.5066 18.454Z" fill="white"/>
<path d="M33.1777 12.3079L27.6737 6.8039C27.563 6.68927 27.4306 6.59784 27.2841 6.53494C27.1377 6.47204 26.9802 6.43893 26.8209 6.43755C26.6615 6.43616 26.5035 6.46653 26.356 6.52687C26.2085 6.58722 26.0745 6.67634 25.9618 6.78902C25.8491 6.90171 25.76 7.03571 25.6996 7.18321C25.6393 7.33071 25.6089 7.48874 25.6103 7.6481C25.6117 7.80746 25.6448 7.96495 25.7077 8.11137C25.7706 8.2578 25.862 8.39023 25.9767 8.50094L31.0918 13.6173L12.9344 13.6533C12.6161 13.6533 12.3108 13.7797 12.0857 14.0048C11.8606 14.2299 11.7342 14.5352 11.7342 14.8535C11.7342 15.1718 11.8606 15.477 12.0857 15.7021C12.3108 15.9272 12.6161 16.0536 12.9344 16.0536L31.1626 16.0164L25.9743 21.206C25.8596 21.3167 25.7682 21.4491 25.7053 21.5956C25.6424 21.742 25.6093 21.8995 25.6079 22.0588C25.6065 22.2182 25.6369 22.3762 25.6972 22.5237C25.7576 22.6712 25.8467 22.8052 25.9594 22.9179C26.0721 23.0306 26.2061 23.1197 26.3536 23.1801C26.5011 23.2404 26.6591 23.2708 26.8185 23.2694C26.9778 23.268 27.1353 23.2349 27.2817 23.172C27.4282 23.1091 27.5606 23.0177 27.6713 22.903L33.1753 17.399C33.8506 16.7242 34.2302 15.8087 34.2307 14.854C34.2311 13.8992 33.8524 12.9834 33.1777 12.3079Z" fill="white"/>
</g>
<defs>
<clipPath id="clip0_47_9953">
<rect width="28.8042" height="28.8042" fill="white" transform="translate(5.7334 0.451416)"/>
</clipPath>
</defs>
</svg>
