<svg width="28" height="28" viewBox="0 0 28 28" fill="none" xmlns="http://www.w3.org/2000/svg">
<path d="M24.8847 23.4563L19.4963 18.2168C21.0581 16.3932 21.8369 14.0543 21.6706 11.6865C21.5044 9.31874 20.406 7.10444 18.6039 5.50425C16.8018 3.90406 14.4347 3.04117 11.9951 3.0951C9.55555 3.14902 7.23125 4.1156 5.50575 5.79376C3.78025 7.47192 2.78641 9.73246 2.73097 12.1051C2.67552 14.4778 3.56275 16.7799 5.20808 18.5326C6.8534 20.2853 9.13016 21.3535 11.5647 21.5152C13.9993 21.6768 16.4042 20.9194 18.2792 19.4005L23.6664 24.6411C23.7464 24.7188 23.8414 24.7806 23.9459 24.8227C24.0504 24.8648 24.1624 24.8864 24.2756 24.8864C24.3887 24.8864 24.5007 24.8648 24.6052 24.8227C24.7097 24.7806 24.8047 24.7188 24.8847 24.6411C24.9647 24.5633 25.0281 24.4709 25.0714 24.3693C25.1147 24.2676 25.137 24.1587 25.137 24.0487C25.137 23.9386 25.1147 23.8297 25.0714 23.728C25.0281 23.6264 24.9647 23.534 24.8847 23.4563ZM4.47416 12.3263C4.47416 10.8358 4.9286 9.37887 5.78 8.13961C6.6314 6.90035 7.84153 5.93447 9.25736 5.3641C10.6732 4.79373 12.2311 4.6445 13.7342 4.93527C15.2372 5.22604 16.6178 5.94376 17.7015 6.99766C18.7851 8.05156 19.5231 9.39431 19.822 10.8561C20.121 12.3179 19.9676 13.8331 19.3811 15.2101C18.7946 16.5871 17.8015 17.764 16.5273 18.5921C15.2531 19.4201 13.755 19.8621 12.2225 19.8621C10.1682 19.8599 8.19873 19.0652 6.74612 17.6525C5.29352 16.2397 4.47644 14.3242 4.47416 12.3263Z" fill="#118376"/>
</svg>
