<svg width="28" height="28" viewBox="0 0 28 28" fill="none" xmlns="http://www.w3.org/2000/svg">
<path d="M24.7224 23.6711L19.4007 18.3505C20.9431 16.4987 21.7123 14.1235 21.5481 11.7191C21.384 9.31464 20.2991 7.06605 18.5193 5.44108C16.7395 3.8161 14.4017 2.93985 11.9923 2.99461C9.58289 3.04937 7.28734 4.03092 5.58318 5.73507C3.87903 7.43923 2.89748 9.73478 2.84272 12.1442C2.78796 14.5536 3.66421 16.8914 5.28919 18.6712C6.91417 20.451 9.16276 21.5358 11.5672 21.7C13.9716 21.8642 16.3468 21.095 18.1986 19.5526L23.5192 24.8743C23.5982 24.9533 23.692 25.0159 23.7952 25.0587C23.8985 25.1014 24.0091 25.1235 24.1208 25.1235C24.2325 25.1235 24.3432 25.1014 24.4464 25.0587C24.5496 25.0159 24.6434 24.9533 24.7224 24.8743C24.8014 24.7953 24.8641 24.7015 24.9068 24.5983C24.9496 24.495 24.9716 24.3844 24.9716 24.2727C24.9716 24.161 24.9496 24.0503 24.9068 23.9471C24.8641 23.8439 24.8014 23.7501 24.7224 23.6711ZM4.56436 12.3688C4.56436 10.8552 5.01317 9.3757 5.85404 8.11725C6.69491 6.8588 7.89007 5.87796 9.28839 5.29876C10.6867 4.71955 12.2254 4.56801 13.7098 4.86328C15.1943 5.15856 16.5578 5.88739 17.628 6.95761C18.6983 8.02784 19.4271 9.39139 19.7224 10.8758C20.0176 12.3603 19.8661 13.8989 19.2869 15.2973C18.7077 16.6956 17.7268 17.8907 16.4684 18.7316C15.2099 19.5725 13.7304 20.0213 12.2169 20.0213C10.188 20.019 8.24285 19.2121 6.80821 17.7774C5.37357 16.3428 4.56661 14.3977 4.56436 12.3688Z" fill="white"/>
</svg>
