<svg xmlns="http://www.w3.org/2000/svg" fill="none" viewBox="163.17945967741935 16.660175 10.11491935483871 19.89622641509434" style="max-height: 500px" width="10.11491935483871" height="19.89622641509434">
<path fill="#D7CEFF" d="M163.937 15.7114C163.937 20.8859 166.573 24.5042 171.846 26.566L172.202 26.7011C172.75 26.9038 173.03 27.5125 172.827 28.0607C172.751 28.2663 172.613 28.4432 172.432 28.567C170.569 29.8425 167.563 30.5814 163.415 30.7836C162.221 34.0141 159.114 36.3165 155.47 36.3165H9.42351C4.74761 36.3165 0.957031 32.5259 0.957031 27.85V8.80046C0.957031 4.12455 4.7476 0.333984 9.42351 0.333984L155.231 0.333984C159.795 0.333984 163.538 3.95177 163.692 8.51326L163.937 15.7114Z" clip-rule="evenodd" fill-rule="evenodd"/>
</svg>