<svg xmlns="http://www.w3.org/2000/svg" fill="none" viewBox="269.58677685950414 37.01960784313725 13.884297520661157 21.401960784313726" style="max-height: 500px" width="13.884297520661157" height="21.401960784313726">
<g filter="url(#filter0_f_47_8185)">
<path fill-opacity="0.4" fill="black" d="M265.79 36.6517C265.79 41.7476 269.271 45.3108 276.233 47.3413L276.703 47.4744C277.427 47.674 277.797 48.2734 277.529 48.8133C277.429 49.0157 277.246 49.19 277.008 49.3119C274.547 50.568 275.164 50.7745 269.686 50.9737C267.78 57.4646 259.842 56.9435 255.031 56.9435H10.922C6.24614 56.9435 2.45557 53.153 2.45557 48.4771V30.4958C2.45557 25.8199 6.24614 22.0293 10.922 22.0293H257.024C261.545 22.0293 265.268 25.5813 265.481 30.0972L265.79 36.6517Z" clip-rule="evenodd" fill-rule="evenodd"/>
</g>
<path fill="#B7DCD8" d="M270.208 36.3481C270.208 41.5227 272.845 45.1409 278.117 47.2027L278.473 47.3379C279.021 47.5405 279.301 48.1492 279.099 48.6974C279.023 48.903 278.885 49.0799 278.704 49.2037C276.841 50.4793 273.835 51.2181 269.686 51.4203C268.492 54.6508 265.386 56.9532 261.742 56.9532H9.86393C5.18802 56.9532 1.39746 53.1627 1.39746 48.4867V9.43718C1.39746 4.76127 5.18803 0.970703 9.86394 0.970703H261.344C265.971 0.970703 269.741 4.68558 269.809 9.31228L270.208 36.3481Z" clip-rule="evenodd" fill-rule="evenodd"/>
<path fill="#118376" d="M261.213 39.0771L261.741 39.5923L256.027 47.4283L253.71 45.1406L254.691 43.7946L256.027 44.5734L261.213 39.0771ZM256.576 38.9609L257.104 39.4761L251.39 47.3121L247.454 43.4414L248.333 42.5841L251.39 44.4572L256.576 38.9609Z" clip-rule="evenodd" fill-rule="evenodd"/>
<path fill="black" d="M14.9966 23.1113C12.5278 23.1113 10.9341 21.8145 10.77 19.9785L10.7622 19.8926H12.1685L12.1763 19.9785C12.2778 21.1035 13.4497 21.8145 15.0747 21.8145C16.606 21.8145 17.7231 21.0254 17.7231 19.877V19.8691C17.7231 18.9316 17.0747 18.291 15.5278 17.9473L14.2778 17.6738C12.02 17.1738 11.0435 16.1348 11.0435 14.502V14.4941C11.0513 12.627 12.6841 11.3066 15.0122 11.3066C17.2622 11.3066 18.8325 12.6348 18.9497 14.3145L18.9575 14.4238H17.5513L17.5356 14.3223C17.3794 13.3301 16.4419 12.5957 14.9731 12.6035C13.5669 12.6113 12.481 13.2754 12.481 14.4551V14.4629C12.481 15.3613 13.0981 15.9707 14.6294 16.3066L15.8794 16.5879C18.231 17.1113 19.1606 18.0566 19.1606 19.6816V19.6895C19.1606 21.7988 17.5122 23.1113 14.9966 23.1113ZM23.8353 22.9941C21.9213 22.9941 20.9369 21.8691 20.9369 19.877V14.4238H22.2963V19.5488C22.2963 21.0645 22.8432 21.791 24.1869 21.791C25.6713 21.791 26.4603 20.8848 26.4603 19.4082V14.4238H27.8197V22.8457H26.4603V21.5879H26.3353C25.9213 22.4863 25.0697 22.9941 23.8353 22.9941ZM30.0413 22.8457V14.4238H31.4007V15.6738H31.5257C31.846 14.791 32.635 14.2754 33.7757 14.2754C34.0335 14.2754 34.3225 14.3066 34.4553 14.3301V15.6504C34.1741 15.6035 33.9163 15.5723 33.6194 15.5723C32.3225 15.5723 31.4007 16.3926 31.4007 17.627V22.8457H30.0413ZM39.0207 22.9941C36.6144 22.9941 35.1613 21.3066 35.1613 18.666V18.6582C35.1613 16.0566 36.6457 14.2754 38.9347 14.2754C41.2238 14.2754 42.6144 15.9785 42.6144 18.4941V19.0254H36.5519C36.591 20.7676 37.5519 21.7832 39.0519 21.7832C40.1925 21.7832 40.8957 21.2441 41.1222 20.7363L41.1535 20.666H42.5129L42.4972 20.7285C42.2082 21.8691 41.005 22.9941 39.0207 22.9941ZM38.9269 15.4863C37.6769 15.4863 36.7238 16.3379 36.5754 17.9395H41.2316C41.091 16.2754 40.1691 15.4863 38.9269 15.4863ZM44.9766 19.0957L44.8438 11.5645H46.4063L46.2735 19.0957H44.9766ZM45.6329 22.9863C45 22.9863 44.5469 22.5332 44.5469 21.9004C44.5469 21.2598 45 20.8066 45.6329 20.8066C46.2657 20.8066 46.711 21.2598 46.711 21.9004C46.711 22.5332 46.2657 22.9863 45.6329 22.9863ZM55.7635 22.8457L52.6932 11.5723H54.1619L56.4041 20.7363H56.4979L59.0213 11.5723H60.4432L62.9666 20.7363H63.0604L65.3026 11.5723H66.7713L63.701 22.8457H62.3729L59.7791 13.9473H59.6854L57.0916 22.8457H55.7635ZM68.5007 22.8457V11.0801H69.8601V15.6895H69.9851C70.4069 14.7988 71.196 14.2754 72.4382 14.2754C74.3288 14.2754 75.3835 15.3926 75.3835 17.3926V22.8457H74.0241V17.7207C74.0241 16.2051 73.3991 15.4785 72.0554 15.4785C70.7116 15.4785 69.8601 16.3848 69.8601 17.8613V22.8457H68.5007ZM79.8395 22.9941C78.2379 22.9941 77.027 22.0254 77.027 20.4941V20.4785C77.027 18.9785 78.1363 18.1113 80.0973 17.9941L82.5113 17.8457V17.0801C82.5113 16.041 81.8785 15.4785 80.6207 15.4785C79.6129 15.4785 78.9488 15.8535 78.7301 16.5098L78.7223 16.5332H77.3629L77.3707 16.4863C77.5895 15.166 78.8707 14.2754 80.6676 14.2754C82.7223 14.2754 83.8707 15.3301 83.8707 17.0801V22.8457H82.5113V21.6035H82.3863C81.8551 22.502 80.9723 22.9941 79.8395 22.9941ZM78.4176 20.4629C78.4176 21.3145 79.1441 21.8145 80.1207 21.8145C81.5035 21.8145 82.5113 20.9082 82.5113 19.7051V18.9395L80.2613 19.0801C78.9801 19.1582 78.4176 19.6113 78.4176 20.4473V20.4629ZM89.0298 22.9082C87.2954 22.9082 86.5688 22.2676 86.5688 20.6582V15.5488H85.2407V14.4238H86.5688V12.2441H87.9751V14.4238H89.8188V15.5488H87.9751V20.3145C87.9751 21.3066 88.3188 21.7051 89.1938 21.7051C89.436 21.7051 89.5688 21.6973 89.8188 21.6738V22.8301C89.5532 22.877 89.2954 22.9082 89.0298 22.9082ZM98.6057 22.9941C96.7307 22.9941 95.4417 22.0879 95.2854 20.6973H96.676C96.9026 21.4004 97.5745 21.8613 98.6526 21.8613C99.7854 21.8613 100.59 21.3223 100.59 20.5566V20.541C100.59 19.9707 100.16 19.5723 99.1213 19.3223L97.8167 19.0098C96.2385 18.6348 95.5276 17.9473 95.5276 16.7363V16.7285C95.5276 15.3301 96.8713 14.2754 98.6604 14.2754C100.426 14.2754 101.653 15.1582 101.84 16.5332H100.504C100.324 15.8691 99.6682 15.4082 98.6526 15.4082C97.6526 15.4082 96.9182 15.9238 96.9182 16.666V16.6816C96.9182 17.252 97.3401 17.6113 98.3323 17.8535L99.6292 18.166C101.215 18.5488 101.981 19.2363 101.981 20.4395V20.4551C101.981 21.9551 100.52 22.9941 98.6057 22.9941ZM107.21 22.9941C104.804 22.9941 103.351 21.3066 103.351 18.666V18.6582C103.351 16.0566 104.835 14.2754 107.124 14.2754C109.413 14.2754 110.804 15.9785 110.804 18.4941V19.0254H104.741C104.78 20.7676 105.741 21.7832 107.241 21.7832C108.382 21.7832 109.085 21.2441 109.312 20.7363L109.343 20.666H110.702L110.687 20.7285C110.398 21.8691 109.194 22.9941 107.21 22.9941ZM107.116 15.4863C105.866 15.4863 104.913 16.3379 104.765 17.9395H109.421C109.28 16.2754 108.359 15.4863 107.116 15.4863ZM116.033 22.9941C113.627 22.9941 112.174 21.3066 112.174 18.666V18.6582C112.174 16.0566 113.658 14.2754 115.947 14.2754C118.236 14.2754 119.627 15.9785 119.627 18.4941V19.0254H113.564C113.604 20.7676 114.564 21.7832 116.064 21.7832C117.205 21.7832 117.908 21.2441 118.135 20.7363L118.166 20.666H119.525L119.51 20.7285C119.221 21.8691 118.018 22.9941 116.033 22.9941ZM115.939 15.4863C114.689 15.4863 113.736 16.3379 113.588 17.9395H118.244C118.104 16.2754 117.182 15.4863 115.939 15.4863ZM121.419 22.8457V14.4238H122.778V15.7051H122.903C123.278 14.7988 124.075 14.2754 125.177 14.2754C126.317 14.2754 127.114 14.877 127.505 15.752H127.63C128.083 14.8613 129.044 14.2754 130.208 14.2754C131.927 14.2754 132.888 15.2598 132.888 17.0254V22.8457H131.528V17.3379C131.528 16.0957 130.958 15.4785 129.77 15.4785C128.599 15.4785 127.825 16.3613 127.825 17.4316V22.8457H126.466V17.127C126.466 16.127 125.778 15.4785 124.716 15.4785C123.614 15.4785 122.778 16.4395 122.778 17.627V22.8457H121.419ZM137.914 22.9941C136.039 22.9941 134.75 22.0879 134.594 20.6973H135.984C136.211 21.4004 136.883 21.8613 137.961 21.8613C139.094 21.8613 139.898 21.3223 139.898 20.5566V20.541C139.898 19.9707 139.469 19.5723 138.43 19.3223L137.125 19.0098C135.547 18.6348 134.836 17.9473 134.836 16.7363V16.7285C134.836 15.3301 136.18 14.2754 137.969 14.2754C139.734 14.2754 140.961 15.1582 141.148 16.5332H139.812C139.633 15.8691 138.976 15.4082 137.961 15.4082C136.961 15.4082 136.226 15.9238 136.226 16.666V16.6816C136.226 17.252 136.648 17.6113 137.64 17.8535L138.937 18.166C140.523 18.5488 141.289 19.2363 141.289 20.4395V20.4551C141.289 21.9551 139.828 22.9941 137.914 22.9941ZM150.255 22.9082C148.521 22.9082 147.795 22.2676 147.795 20.6582V15.5488H146.466V14.4238H147.795V12.2441H149.201V14.4238H151.045V15.5488H149.201V20.3145C149.201 21.3066 149.545 21.7051 150.42 21.7051C150.662 21.7051 150.795 21.6973 151.045 21.6738V22.8301C150.779 22.877 150.521 22.9082 150.255 22.9082ZM156.094 22.9941C153.696 22.9941 152.211 21.3379 152.211 18.6426V18.627C152.211 15.9238 153.696 14.2754 156.094 14.2754C158.493 14.2754 159.977 15.9238 159.977 18.627V18.6426C159.977 21.3379 158.493 22.9941 156.094 22.9941ZM156.094 21.791C157.688 21.791 158.586 20.627 158.586 18.6426V18.627C158.586 16.6348 157.688 15.4785 156.094 15.4785C154.5 15.4785 153.602 16.6348 153.602 18.627V18.6426C153.602 20.627 154.5 21.791 156.094 21.791ZM170.139 22.9941C168.967 22.9941 168.03 22.4395 167.514 21.502H167.389V22.8457H166.03V11.0801H167.389V15.752H167.514C167.975 14.8535 168.983 14.2754 170.139 14.2754C172.28 14.2754 173.67 15.9863 173.67 18.627V18.6426C173.67 21.2676 172.272 22.9941 170.139 22.9941ZM169.826 21.791C171.365 21.791 172.28 20.6035 172.28 18.6426V18.627C172.28 16.666 171.365 15.4785 169.826 15.4785C168.295 15.4785 167.358 16.6816 167.358 18.627V18.6426C167.358 20.5879 168.295 21.791 169.826 21.791ZM178.9 22.9941C176.493 22.9941 175.04 21.3066 175.04 18.666V18.6582C175.04 16.0566 176.525 14.2754 178.814 14.2754C181.103 14.2754 182.493 15.9785 182.493 18.4941V19.0254H176.431C176.47 20.7676 177.431 21.7832 178.931 21.7832C180.071 21.7832 180.775 21.2441 181.001 20.7363L181.032 20.666H182.392L182.376 20.7285C182.087 21.8691 180.884 22.9941 178.9 22.9941ZM178.806 15.4863C177.556 15.4863 176.603 16.3379 176.454 17.9395H181.11C180.97 16.2754 180.048 15.4863 178.806 15.4863ZM14.1216 41.9082C12.3872 41.9082 11.6606 41.2676 11.6606 39.6582V34.5488H10.3325V33.4238H11.6606V31.2441H13.0669V33.4238H14.9106V34.5488H13.0669V39.3145C13.0669 40.3066 13.4106 40.7051 14.2856 40.7051C14.5278 40.7051 14.6606 40.6973 14.9106 40.6738V41.8301C14.645 41.877 14.3872 41.9082 14.1216 41.9082ZM16.7025 41.8457V30.0801H18.0619V34.6895H18.1869C18.6088 33.7988 19.3978 33.2754 20.64 33.2754C22.5307 33.2754 23.5853 34.3926 23.5853 36.3926V41.8457H22.226V36.7207C22.226 35.2051 21.601 34.4785 20.2572 34.4785C18.9135 34.4785 18.0619 35.3848 18.0619 36.8613V41.8457H16.7025ZM29.1663 41.9941C26.76 41.9941 25.3069 40.3066 25.3069 37.666V37.6582C25.3069 35.0566 26.7913 33.2754 29.0803 33.2754C31.3694 33.2754 32.76 34.9785 32.76 37.4941V38.0254H26.6975C26.7366 39.7676 27.6975 40.7832 29.1975 40.7832C30.3382 40.7832 31.0413 40.2441 31.2678 39.7363L31.2991 39.666H32.6585L32.6428 39.7285C32.3538 40.8691 31.1507 41.9941 29.1663 41.9941ZM29.0725 34.4863C27.8225 34.4863 26.8694 35.3379 26.721 36.9395H31.3772C31.2366 35.2754 30.3147 34.4863 29.0725 34.4863ZM38.7344 44.6582V33.4238H40.0938V34.7676H40.2188C40.7344 33.8301 41.6719 33.2754 42.8438 33.2754C44.9766 33.2754 46.375 35.002 46.375 37.627V37.6426C46.375 40.2832 44.9844 41.9941 42.8438 41.9941C41.6875 41.9941 40.6797 41.416 40.2188 40.5176H40.0938V44.6582H38.7344ZM42.5313 40.791C44.0704 40.791 44.9844 39.6035 44.9844 37.6426V37.627C44.9844 35.666 44.0704 34.4785 42.5313 34.4785C41 34.4785 40.0625 35.6816 40.0625 37.627V37.6426C40.0625 39.5879 41 40.791 42.5313 40.791ZM48.1826 41.8457V33.4238H49.5419V34.6738H49.6669C49.9872 33.791 50.7763 33.2754 51.9169 33.2754C52.1747 33.2754 52.4638 33.3066 52.5966 33.3301V34.6504C52.3154 34.6035 52.0576 34.5723 51.7607 34.5723C50.4638 34.5723 49.5419 35.3926 49.5419 36.627V41.8457H48.1826ZM57.1854 41.9941C54.7869 41.9941 53.3026 40.3379 53.3026 37.6426V37.627C53.3026 34.9238 54.7869 33.2754 57.1854 33.2754C59.5838 33.2754 61.0682 34.9238 61.0682 37.627V37.6426C61.0682 40.3379 59.5838 41.9941 57.1854 41.9941ZM57.1854 40.791C58.7791 40.791 59.6776 39.627 59.6776 37.6426V37.627C59.6776 35.6348 58.7791 34.4785 57.1854 34.4785C55.5916 34.4785 54.6932 35.6348 54.6932 37.627V37.6426C54.6932 39.627 55.5916 40.791 57.1854 40.791ZM67.0476 41.9941C65.8757 41.9941 64.9382 41.4395 64.4226 40.502H64.2976V41.8457H62.9382V30.0801H64.2976V34.752H64.4226C64.8835 33.8535 65.8913 33.2754 67.0476 33.2754C69.1882 33.2754 70.5788 34.9863 70.5788 37.627V37.6426C70.5788 40.2676 69.1804 41.9941 67.0476 41.9941ZM66.7351 40.791C68.2741 40.791 69.1882 39.6035 69.1882 37.6426V37.627C69.1882 35.666 68.2741 34.4785 66.7351 34.4785C65.2038 34.4785 64.2663 35.6816 64.2663 37.627V37.6426C64.2663 39.5879 65.2038 40.791 66.7351 40.791ZM72.4488 41.8457V30.0801H73.8082V41.8457H72.4488ZM79.5376 41.9941C77.1313 41.9941 75.6782 40.3066 75.6782 37.666V37.6582C75.6782 35.0566 77.1626 33.2754 79.4516 33.2754C81.7407 33.2754 83.1313 34.9785 83.1313 37.4941V38.0254H77.0688C77.1079 39.7676 78.0688 40.7832 79.5688 40.7832C80.7095 40.7832 81.4126 40.2441 81.6391 39.7363L81.6704 39.666H83.0298L83.0141 39.7285C82.7251 40.8691 81.522 41.9941 79.5376 41.9941ZM79.4438 34.4863C78.1938 34.4863 77.2407 35.3379 77.0923 36.9395H81.7485C81.6079 35.2754 80.686 34.4863 79.4438 34.4863ZM84.9232 41.8457V33.4238H86.2826V34.7051H86.4076C86.7826 33.7988 87.5795 33.2754 88.681 33.2754C89.8217 33.2754 90.6185 33.877 91.0092 34.752H91.1342C91.5873 33.8613 92.5482 33.2754 93.7123 33.2754C95.431 33.2754 96.392 34.2598 96.392 36.0254V41.8457H95.0326V36.3379C95.0326 35.0957 94.4623 34.4785 93.2748 34.4785C92.1029 34.4785 91.3295 35.3613 91.3295 36.4316V41.8457H89.9701V36.127C89.9701 35.127 89.2826 34.4785 88.2201 34.4785C87.1185 34.4785 86.2826 35.4395 86.2826 36.627V41.8457H84.9232ZM100.332 38.3613V37.6426C100.324 36.6113 100.824 35.9082 101.895 35.2676C102.801 34.7129 103.153 34.2207 103.153 33.3926V33.377C103.153 32.416 102.403 31.7051 101.239 31.7051C100.059 31.7051 99.3088 32.4004 99.2307 33.5098L99.2151 33.5176L97.887 33.5254V33.5098C97.9729 31.8301 99.0979 30.4863 101.293 30.4863C103.262 30.4863 104.606 31.7051 104.606 33.3066V33.3223C104.606 34.541 103.973 35.4082 102.973 36.0098C101.981 36.5957 101.699 37.0332 101.699 37.8535V38.3613H100.332ZM101.121 41.9863C100.489 41.9863 100.035 41.5332 100.035 40.9004C100.035 40.2598 100.489 39.8066 101.121 39.8066C101.754 39.8066 102.199 40.2598 102.199 40.9004C102.199 41.5332 101.754 41.9863 101.121 41.9863Z"/>
<path fill-opacity="0.25" fill="black" d="M216.818 47.8457V40.7801H216.727L214.641 42.2922V41.2121L216.824 39.6433H217.841V47.8457H216.818ZM222.747 47.8457V40.7801H222.656L220.57 42.2922V41.2121L222.753 39.6433H223.77V47.8457H222.747ZM227.483 42.2808C227.079 42.2808 226.744 41.9454 226.744 41.5418C226.744 41.1326 227.079 40.8029 227.483 40.8029C227.892 40.8029 228.222 41.1326 228.222 41.5418C228.222 41.9454 227.892 42.2808 227.483 42.2808ZM227.483 46.6804C227.079 46.6804 226.744 46.3451 226.744 45.9415C226.744 45.5322 227.079 45.2025 227.483 45.2025C227.892 45.2025 228.222 45.5322 228.222 45.9415C228.222 46.3451 227.892 46.6804 227.483 46.6804ZM234.401 47.8457V46.1461H230.405V45.2139C231.513 43.3551 232.77 41.3543 233.918 39.6433H235.401V45.2309H236.567V46.1461H235.401V47.8457H234.401ZM231.451 45.2366H234.407V40.5926H234.339C233.418 41.9682 232.343 43.6621 231.451 45.1684V45.2366ZM241.467 47.9821C239.773 47.9821 238.676 47.0385 238.568 45.7425L238.562 45.6743H239.546L239.552 45.7312C239.631 46.5383 240.376 47.0954 241.467 47.0954C242.541 47.0954 243.275 46.4928 243.275 45.6231V45.6118C243.275 44.6057 242.553 44.0429 241.405 44.0429H240.376V43.1789H241.359C242.337 43.1789 243.019 42.5764 243.019 41.7578V41.7465C243.019 40.8881 242.456 40.3936 241.456 40.3936C240.489 40.3936 239.802 40.9052 239.716 41.7351L239.711 41.7919H238.727L238.733 41.7351C238.864 40.3993 239.921 39.5069 241.456 39.5069C243.019 39.5069 244.048 40.3766 244.048 41.6214V41.6328C244.048 42.6446 243.332 43.3381 242.308 43.5541V43.5768C243.502 43.6791 244.315 44.4238 244.315 45.589V45.6004C244.315 46.9703 243.11 47.9821 241.467 47.9821Z"/>
<defs>
<filter color-interpolation-filters="sRGB" filterUnits="userSpaceOnUse" height="38.3765" width="278.613" y="20.3032" x="0.729496" id="filter0_f_47_8185">
<feFlood result="BackgroundImageFix" flood-opacity="0"/>
<feBlend result="shape" in2="BackgroundImageFix" in="SourceGraphic" mode="normal"/>
<feGaussianBlur result="effect1_foregroundBlur_47_8185" stdDeviation="0.863035"/>
</filter>
</defs>
</svg>