<svg width="19" height="27" viewBox="0 0 19 27" fill="none" xmlns="http://www.w3.org/2000/svg">
<path fill-rule="evenodd" clip-rule="evenodd" d="M9.51601 0.136475C12.3865 0.136475 14.7134 2.46343 14.7134 5.33388V13.4187C14.7134 16.2892 12.3865 18.6161 9.51601 18.6161C6.64556 18.6161 4.3186 16.2892 4.3186 13.4187V5.33388C4.3186 2.46343 6.64556 0.136475 9.51601 0.136475ZM1.14196 12.0653C1.48642 12.0653 1.77217 12.3167 1.82588 12.6459L1.83495 12.7583V12.9107C1.83495 17.2304 5.27621 20.7277 9.51556 20.7277C13.6647 20.7277 17.0494 17.3776 17.1915 13.1853L17.1962 12.9107V12.7704C17.1962 12.3876 17.5064 12.0774 17.8892 12.0774C18.2336 12.0774 18.5194 12.3287 18.5731 12.6579L18.5822 12.7704L18.5778 13.1972C18.4358 17.9103 14.8014 21.735 10.2084 22.0872L10.2086 26.1233C10.2086 26.5061 9.89829 26.8163 9.51556 26.8163C9.17111 26.8163 8.88535 26.565 8.83165 26.2357L8.82258 26.1233L8.82312 22.0872C4.23279 21.7355 0.599928 17.9153 0.45356 13.2062L0.448975 12.7583C0.448975 12.3756 0.759236 12.0653 1.14196 12.0653ZM5.70406 5.33384C5.70406 3.22885 7.41049 1.52241 9.51549 1.52241C11.6205 1.52241 13.3269 3.22885 13.3269 5.33384V13.4187C13.3269 15.5237 11.6205 17.2301 9.51549 17.2301C7.41049 17.2301 5.70406 15.5237 5.70406 13.4187V5.33384Z" fill="#118376"/>
</svg>
