<svg width="44" height="44" viewBox="0 0 44 44" fill="none" xmlns="http://www.w3.org/2000/svg">
<rect x="0.5" y="0.5" width="43" height="43" rx="7.5" fill="white"/>
<rect x="0.5" y="0.5" width="43" height="43" rx="7.5" stroke="#E4E4E7"/>
<path opacity="0.5" d="M31.8392 27.223C33.4178 26.9183 34.5596 25.5379 34.5596 23.9335V22.6277C34.5596 20.9052 34.1915 19.2076 33.4926 17.6281C33.0995 16.7451 32.2198 16.1917 31.2776 16.1917C31.1528 16.1917 31.0218 16.2041 30.897 16.2227C29.8674 16.3906 29.0563 17.1866 28.8816 18.2126L28.4011 20.9176L26.8724 24.2382L28.8379 24.145L29.8175 22.3043L30.5788 19.2387C30.6661 18.9028 31.003 18.7039 31.34 18.7847C31.6707 18.8655 31.8766 19.2076 31.7955 19.5371L31.0093 22.6774C30.9968 22.7272 30.9781 22.7707 30.9594 22.8142L30.2917 24.0703H30.3292C30.6661 24.0454 30.9656 24.3191 30.9781 24.6611C30.9968 25.0031 30.7347 25.2953 30.3916 25.314L26.1798 25.5192L26.0238 25.5503C24.9382 25.743 24.1582 26.682 24.1582 27.7765V33.5533C24.1582 33.9016 24.3017 34.2249 24.5326 34.4488C24.7572 34.6789 25.0754 34.8219 25.4248 34.8219C26.1299 34.8219 26.6977 34.256 26.6977 33.5533V28.218L29.1561 27.7392L31.8392 27.223Z" fill="#595A5A"/>
<path opacity="0.5" d="M30.2266 15.4432C31.7637 15.4432 33.0098 14.2014 33.0098 12.6695C33.0098 11.1376 31.7637 9.89575 30.2266 9.89575C28.6894 9.89575 27.4434 11.1376 27.4434 12.6695C27.4434 14.2014 28.6894 15.4432 30.2266 15.4432Z" fill="#595A5A"/>
<path opacity="0.5" d="M36.7075 18.2651C36.0556 18.2651 35.527 18.7919 35.527 19.4416V27.8101H30.8303C29.7094 27.8101 28.8008 28.7157 28.8008 29.8328V30.0667H29.9583V34.8227C29.9583 35.1664 30.2374 35.4445 30.5823 35.4445C30.9271 35.4445 31.2062 35.1664 31.2062 34.8227V30.0667H36.0127V34.8227C36.0127 35.1664 36.2917 35.4445 36.6366 35.4445C36.9815 35.4445 37.2606 35.1664 37.2606 34.8227V30.0667H37.888V19.4416C37.888 18.7919 37.3595 18.2651 36.7075 18.2651Z" fill="#595A5A"/>
<path opacity="0.5" d="M19.635 18.6232L16.615 19.444L13.5264 16.6892C13.0772 16.285 12.4969 16.0674 11.8916 16.0674C10.5376 16.0674 9.43945 17.1556 9.43945 18.505V23.9336C9.43945 25.538 10.5813 26.9184 12.1599 27.2231L14.843 27.7393L17.3014 28.2181V33.5534C17.3014 33.9017 17.4449 34.225 17.6758 34.4489C17.9066 34.679 18.2186 34.822 18.5743 34.822C19.2731 34.822 19.8409 34.2561 19.8409 33.5534V27.7766C19.8409 26.6821 19.0609 25.7432 17.9752 25.5504L14.0505 24.8353L13.9132 20.6068L16.2094 22.2111L20.3089 20.8555C20.8018 20.6877 21.1138 20.2337 21.1138 19.7487C21.1138 19.5994 21.0826 19.444 21.0202 19.2947C20.7893 18.7537 20.1965 18.4677 19.635 18.6232Z" fill="#595A5A"/>
<path opacity="0.5" d="M11.1992 15.4432C12.7363 15.4432 13.9824 14.2014 13.9824 12.6695C13.9824 11.1376 12.7363 9.89575 11.1992 9.89575C9.6621 9.89575 8.41602 11.1376 8.41602 12.6695C8.41602 14.2014 9.6621 15.4432 11.1992 15.4432Z" fill="#595A5A"/>
<path opacity="0.5" d="M13.169 27.8101H8.47232V19.4416C8.47232 18.7919 7.9438 18.2651 7.29184 18.2651C6.63989 18.2651 6.11133 18.7919 6.11133 19.4416V30.0667H6.73906V34.8227C6.73906 35.1664 7.01844 35.4445 7.36302 35.4445C7.7076 35.4445 7.98698 35.1664 7.98698 34.8227V30.0667H12.7931V34.8227C12.7931 35.1664 13.0725 35.4445 13.4171 35.4445C13.7617 35.4445 14.0411 35.1664 14.0411 34.8227V30.0667H15.1986V29.8328C15.1986 28.7157 14.2899 27.8101 13.169 27.8101Z" fill="#595A5A"/>
<path opacity="0.5" d="M24.3209 9.66251C24.3209 9.05313 23.8218 8.55566 23.2103 8.55566H19.0173C18.3996 8.55566 17.9004 9.05313 17.9004 9.66251V14.0527L19.7036 12.809H23.2103C23.8218 12.809 24.3209 12.3115 24.3209 11.6959V9.66251ZM22.4304 11.5529H19.9719C19.7785 11.5529 19.6225 11.3975 19.6225 11.2047C19.6225 11.0057 19.7785 10.8502 19.9719 10.8502H22.4304C22.6238 10.8502 22.7798 11.0057 22.7798 11.2047C22.7798 11.3975 22.6238 11.5529 22.4304 11.5529ZM22.4304 10.3279H19.9719C19.7785 10.3279 19.6225 10.1724 19.6225 9.97966C19.6225 9.78689 19.7785 9.6252 19.9719 9.6252H22.4304C22.6238 9.6252 22.7798 9.78689 22.7798 9.97966C22.7798 10.1724 22.6238 10.3279 22.4304 10.3279Z" fill="#595A5A"/>
</svg>
