<svg width="198" height="215" viewBox="0 0 198 215" fill="none" xmlns="http://www.w3.org/2000/svg">
<path d="M-337.921 366.723C-320.853 374.019 -308.585 365.028 -309.289 355.042C-294.95 358.261 -286.01 349.49 -286.785 341.12C-270.546 344.639 -261.017 332.603 -265.596 323.501C11.4428 150.869 66.1326 157.25 117.389 110.997C118.937 111.586 120.348 110.618 120.665 109.253C120.776 108.754 120.809 108.245 120.893 107.741C141.524 88.0733 162.148 59.0875 197.354 5.33023C198.405 3.73024 197.317 1.57992 195.402 1.48445C158.433 -0.367709 70.0454 0.805246 67.3979 2.15246C64.6024 3.56481 -212.365 143.824 -337.507 221.649C-346.803 212.446 -363.539 218.044 -363.425 232.973C-373.246 227.825 -385.722 234.025 -385.7 246.798C-395.389 241.469 -408.014 247.473 -408.236 260.054C-457.463 279.832 -450.981 316.484 -422.071 360.629C-399.74 394.725 -372.939 398.553 -337.921 366.723ZM-269.942 320.345C-271.601 318.031 -288.032 314.954 -305.828 292.055C-164.366 203.889 73.2118 88.2301 83.1279 78.0644C83.2354 78.0479 83.3376 78.1072 83.4449 78.0762C101.42 72.859 117.605 89.0838 116.262 105.163C64.8839 153.174 11.5383 144.775 -269.942 320.345ZM-335.088 226.002C-216.279 152.081 40.3308 21.4607 67.3331 7.75904C70.6395 11.0911 74.8713 17.8478 74.2249 24.6384C73.708 30.115 70.0753 34.8404 63.4386 38.6851C-34.9339 95.5312 -193.057 170.282 -326.541 253.554C-330.111 244.026 -332.87 234.613 -335.088 226.002ZM-324.77 258.162C-316.008 255.424 -311.4 243.351 -76.4023 119.73C-75.8129 119.42 63.3571 46.2104 65.874 43.2404C86.8912 41.2357 96.7266 55.5966 80.9844 73.9213C78.803 74.2688 81.634 74.8363 -61.3387 150.044C-143.572 193.299 -228.589 238.031 -308.794 288.04C-315.393 278.71 -320.615 268.467 -324.77 258.162ZM166.716 42.2904C166.664 42.2756 166.625 42.2382 166.571 42.2258C149.784 38.4987 138.777 22.19 141.126 5.34797C157.568 5.32313 174.871 5.54887 190.808 6.24545C181.903 19.8134 173.962 31.7307 166.716 42.2904ZM136.011 5.36901C133.786 23.8935 145.654 41.6461 163.739 46.5964C146.897 70.9097 133.83 87.6585 121.121 100.451C119.531 84.7169 105.329 71.1858 88.5351 72.1807C100.146 54.5224 91.1322 39.6359 72.4824 38.1765C82.0606 29.1032 80.8262 16.7225 72.9932 6.68322C82.648 6.32187 107.585 5.50145 136.011 5.36901ZM-357.572 227.959C-354.431 221.454 -345.42 219.961 -340.44 225.642C-337.593 228.891 -327.837 301.1 -272.884 324.063C-272.526 324.212 -272.157 324.251 -271.794 324.232C-271.476 324.843 -270.963 325.33 -270.102 325.501C-264.28 335.829 -293.239 356.36 -332.165 290.204C-339.656 277.562 -363.432 240.085 -357.572 227.959ZM-379.851 241.926C-376.702 235.405 -367.689 233.939 -362.719 239.608C-362.684 239.648 -362.635 239.664 -362.597 239.7C-359.742 252.614 -350.018 269.89 -339.256 287.989C-328.408 306.287 -312.744 331.1 -292.433 339.352C-286.342 349.594 -315.426 370.476 -354.441 304.168C-361.949 291.498 -385.71 254.051 -379.851 241.926ZM-402.395 255.614C-399.241 249.095 -390.236 247.621 -385.261 253.294C-385.155 253.415 -385.015 253.479 -384.893 253.576C-382.061 266.498 -372.32 283.811 -361.535 301.951C-350.628 320.34 -335.058 344.946 -314.874 353.254C-309.192 363.874 -338.399 383.436 -376.986 317.856C-384.494 305.186 -408.254 267.74 -402.395 255.614ZM-417.912 357.903C-444.53 317.262 -452.438 283.94 -407.828 265.267C-405.184 281.037 -390.278 305.188 -381.269 320.376C-366.324 345.78 -353.111 358.296 -342.711 364.289C-375.088 392.982 -397.816 388.59 -417.912 357.903Z" fill="white"/>
</svg>
