<svg width="427" height="403" viewBox="0 0 427 403" fill="none" xmlns="http://www.w3.org/2000/svg">
<g opacity="0.05" clip-path="url(#clip0_47_9559)">
<path d="M-313.24 -248.095C-315.666 -229.692 -303.702 -220.302 -294.275 -223.671C-293.51 -208.994 -282.654 -202.749 -274.802 -205.752C-273.814 -189.166 -259.655 -183.233 -252.124 -190.096C-11.2103 30.1604 -2.61489 84.5462 55.7413 121.439C55.5915 123.089 56.9038 124.186 58.3035 124.124C58.8148 124.096 59.3137 123.991 59.8218 123.935C84.3219 138.502 117.794 150.55 179.051 169.964C180.875 170.545 182.652 168.918 182.228 167.048C174.047 130.948 149.095 46.1476 147.084 43.9611C144.97 41.6498 -64.749 -187.263 -173.424 -286.798C-167.067 -298.23 -176.969 -312.838 -191.314 -308.705C-189.004 -319.55 -198.337 -329.892 -210.632 -326.429C-208.111 -337.195 -217.296 -347.735 -229.471 -344.558C-261.785 -386.632 -295.334 -370.512 -330.053 -330.773C-356.868 -300.079 -353.331 -273.237 -313.24 -248.095ZM-250.256 -195.132C-248.475 -197.353 -249.94 -214.005 -232.686 -237.315C-109.654 -124.852 65.7588 72.7605 78.2209 79.5696C78.2658 79.6687 78.2362 79.7831 78.295 79.8781C88.1638 95.7813 76.9021 115.741 61.0564 118.782C0.973781 82.2451 -5.31633 28.6099 -250.256 -195.132ZM-176.963 -283.295C-73.7553 -188.807 121.195 23.0999 141.667 45.4099C139.35 49.4921 133.984 55.3884 127.27 56.5962C121.857 57.5745 116.327 55.3498 110.836 49.995C29.5793 -29.4151 -85.0245 -161.539 -201.193 -267.638C-192.98 -273.644 -184.658 -278.839 -176.963 -283.295ZM-205.153 -264.691C-200.154 -256.991 -187.286 -255.808 -4.90132 -62.8264C-4.44398 -62.3423 103.567 51.9449 107.106 53.5681C114.701 73.2672 103.522 86.6093 81.633 76.3887C80.7104 74.3817 80.927 77.261 -30.033 -40.1498C-93.8514 -107.681 -159.843 -177.496 -229.619 -241.253C-222.413 -250.122 -213.956 -257.912 -205.153 -264.691ZM135.201 150.422C135.201 150.368 135.226 150.32 135.224 150.265C134.288 133.095 147.027 118.099 163.879 115.822C168.334 131.648 172.78 148.372 176.405 163.907C160.939 158.989 147.322 154.553 135.201 150.422ZM162.48 110.902C144.041 113.752 130.144 129.966 130.252 148.716C102.299 139.05 82.6476 130.981 66.9027 122.19C81.6263 116.418 90.829 99.0953 85.3443 83.1908C105.479 89.6124 117.385 76.92 113.763 58.5671C125.082 65.3452 136.672 60.8196 144.229 50.5706C147.179 59.7706 154.691 83.564 162.48 110.902ZM-184.909 -304.42C-177.798 -303.148 -173.931 -294.873 -178.059 -288.546C-180.421 -284.929 -247.328 -256.072 -254.629 -196.963C-254.677 -196.578 -254.615 -196.212 -254.498 -195.867C-255.001 -195.397 -255.332 -194.771 -255.265 -193.896C-263.641 -185.506 -291.217 -207.859 -238.002 -263.176C-227.846 -273.797 -198.165 -306.795 -184.909 -304.42ZM-204.363 -322.11C-197.235 -320.835 -193.394 -312.551 -197.513 -306.236C-197.542 -306.191 -197.544 -306.14 -197.57 -306.094C-209.236 -299.864 -223.252 -285.843 -237.781 -270.601C-252.477 -255.223 -272.15 -233.451 -274.622 -211.668C-282.843 -203.041 -310.792 -225.421 -257.453 -280.864C-247.276 -291.509 -217.619 -324.483 -204.363 -322.11ZM-223.621 -340.13C-216.493 -338.85 -212.647 -330.575 -216.768 -324.255C-216.857 -324.121 -216.881 -323.969 -216.941 -323.825C-228.622 -317.614 -242.669 -303.568 -257.23 -288.293C-271.999 -272.833 -291.498 -251.207 -294.059 -229.531C-302.754 -221.197 -329.464 -244.05 -276.711 -298.885C-266.534 -309.53 -236.878 -342.503 -223.621 -340.13ZM-326.306 -327.502C-294.344 -364.089 -264.387 -380.686 -234.381 -342.76C-248.855 -335.963 -268.094 -315.099 -280.293 -302.331C-300.728 -281.091 -309.22 -264.994 -312.188 -253.363C-348.545 -276.809 -350.442 -299.88 -326.306 -327.502Z" fill="white"/>
</g>
<defs>
<clipPath id="clip0_47_9559">
<rect width="806.281" height="767.443" fill="white" transform="translate(239.024 402.893) rotate(-165.831)"/>
</clipPath>
</defs>
</svg>
