<svg width="152" height="304" viewBox="0 0 152 304" fill="none" xmlns="http://www.w3.org/2000/svg">
<path d="M62.0345 258.287C69.77 261.594 75.3298 257.519 75.0109 252.993C81.5098 254.452 85.5615 250.477 85.2099 246.683C92.5696 248.278 96.8884 242.823 94.8133 238.698C220.37 160.459 245.157 163.351 268.387 142.389C269.088 142.656 269.727 142.217 269.871 141.599C269.922 141.372 269.937 141.142 269.974 140.913C279.325 132 288.672 118.863 304.628 94.4994C305.104 93.7742 304.611 92.7997 303.743 92.7564C286.988 91.917 246.93 92.4486 245.73 93.0592C244.463 93.6993 118.938 157.266 62.222 192.538C58.0093 188.367 50.4242 190.904 50.4759 197.67C46.025 195.337 40.3708 198.147 40.3804 203.935C35.9896 201.52 30.2676 204.241 30.1671 209.943C7.85681 218.907 10.7943 235.518 23.8968 255.525C34.0174 270.978 46.1641 272.713 62.0345 258.287ZM92.8435 237.268C92.0918 236.219 84.6449 234.825 76.5794 224.447C140.692 184.489 248.365 132.071 252.859 127.463C252.908 127.456 252.954 127.483 253.003 127.469C261.149 125.104 268.485 132.457 267.876 139.745C244.591 161.504 220.414 157.697 92.8435 237.268ZM63.3185 194.51C117.164 161.008 233.463 101.81 245.701 95.6001C247.199 97.1103 249.117 100.172 248.824 103.25C248.59 105.732 246.943 107.874 243.936 109.616C199.352 135.38 127.689 169.258 67.1923 206.998C65.574 202.679 64.3236 198.413 63.3185 194.51ZM67.9949 209.086C71.9658 207.845 74.054 202.373 180.558 146.347C180.825 146.206 243.899 113.027 245.039 111.681C254.565 110.772 259.022 117.281 251.888 125.586C250.899 125.743 252.182 126 187.385 160.085C150.116 179.689 111.585 199.962 75.2354 222.627C72.2447 218.399 69.878 213.756 67.9949 209.086ZM290.742 111.25C290.718 111.243 290.701 111.227 290.676 111.221C283.068 109.532 278.08 102.14 279.145 94.5074C286.596 94.4962 294.438 94.5985 301.661 94.9142C297.625 101.063 294.026 106.464 290.742 111.25ZM276.826 94.5169C275.818 102.912 281.197 110.958 289.393 113.202C281.76 124.221 275.838 131.812 270.078 137.609C269.357 130.478 262.921 124.346 255.31 124.797C260.572 116.794 256.487 110.047 248.034 109.386C252.375 105.274 251.816 99.6625 248.266 95.1126C252.642 94.9488 263.943 94.577 276.826 94.5169ZM53.1285 195.398C54.5521 192.449 58.6359 191.773 60.893 194.347C62.183 195.82 66.6047 228.546 91.5102 238.953C91.6724 239.02 91.8396 239.038 92.0043 239.029C92.1481 239.306 92.3809 239.527 92.7711 239.605C95.4098 244.285 82.2852 253.59 64.6434 223.608C61.2484 217.878 50.4726 200.893 53.1285 195.398ZM43.0314 201.727C44.4586 198.772 48.5432 198.108 50.796 200.677C50.8119 200.695 50.834 200.702 50.8511 200.719C52.1452 206.572 56.5522 214.401 61.4296 222.604C66.3461 230.897 73.4452 242.142 82.6502 245.882C85.4109 250.524 72.2295 259.988 54.5473 229.936C51.1447 224.194 40.3762 207.223 43.0314 201.727ZM32.8142 207.931C34.2436 204.976 38.3249 204.309 40.5796 206.879C40.6275 206.934 40.691 206.964 40.7465 207.007C42.0299 212.864 46.4446 220.71 51.3325 228.931C56.2756 237.266 63.3322 248.418 72.4795 252.183C75.0547 256.996 61.8182 265.862 44.3299 236.14C40.9273 230.398 30.1589 213.427 32.8142 207.931ZM25.7818 254.289C13.7183 235.871 10.1342 220.769 30.3519 212.306C31.5504 219.453 38.3059 230.398 42.3886 237.282C49.1622 248.795 55.1502 254.468 59.8639 257.184C45.1901 270.188 34.8893 268.197 25.7818 254.289Z" fill="white"/>
</svg>
