<svg width="25" height="24" viewBox="0 0 25 24" fill="none" xmlns="http://www.w3.org/2000/svg">
<path d="M16.7501 3.8115C16.7501 3.56843 16.8466 3.33531 17.0185 3.16344C17.1904 2.99156 17.4235 2.895 17.6666 2.895H19.4995V1.06202C19.4995 0.818946 19.5961 0.585832 19.768 0.413956C19.9399 0.24208 20.173 0.145521 20.416 0.145521C20.6591 0.145521 20.8922 0.24208 21.0641 0.413956C21.236 0.585832 21.3325 0.818946 21.3325 1.06202V2.895H23.1655C23.4086 2.895 23.6417 2.99156 23.8136 3.16344C23.9855 3.33531 24.082 3.56843 24.082 3.8115C24.082 4.05457 23.9855 4.28768 23.8136 4.45956C23.6417 4.63143 23.4086 4.72799 23.1655 4.72799H21.3325V6.56098C21.3325 6.80405 21.236 7.03716 21.0641 7.20904C20.8922 7.38092 20.6591 7.47747 20.416 7.47747C20.173 7.47747 19.9399 7.38092 19.768 7.20904C19.5961 7.03716 19.4995 6.80405 19.4995 6.56098V4.72799H17.6666C17.4235 4.72799 17.1904 4.63143 17.0185 4.45956C16.8466 4.28768 16.7501 4.05457 16.7501 3.8115ZM23.917 10.0757C24.3358 12.5647 23.9526 15.1222 22.823 17.3792C21.6934 19.6362 19.8757 21.4758 17.6324 22.6324C15.3891 23.789 12.8363 24.2027 10.3426 23.8139C7.84879 23.425 5.54313 22.2537 3.75847 20.4691C1.9738 18.6844 0.802489 16.3787 0.413641 13.885C0.0247926 11.3912 0.438533 8.8384 1.59513 6.59512C2.75172 4.35183 4.59131 2.53415 6.8483 1.40453C9.10529 0.274901 11.6629 -0.108216 14.1518 0.31049C14.3897 0.352562 14.6014 0.486872 14.7408 0.684203C14.8802 0.881534 14.936 1.12592 14.8961 1.36421C14.8563 1.60249 14.7239 1.8154 14.5279 1.95662C14.3319 2.09783 14.088 2.15593 13.8494 2.11827C12.4037 1.87509 10.9225 1.94984 9.5087 2.33732C8.09491 2.72481 6.78254 3.41572 5.66291 4.36197C4.54329 5.30822 3.64331 6.48708 3.0256 7.81651C2.4079 9.14595 2.08732 10.594 2.08616 12.0599C2.08398 14.5278 2.99102 16.91 4.63401 18.7515C5.65617 17.2703 7.09344 16.1244 8.76511 15.4578C7.86715 14.7506 7.21191 13.7811 6.8905 12.6842C6.56909 11.5873 6.59749 10.4175 6.97174 9.33744C7.346 8.25741 8.04751 7.32085 8.97872 6.658C9.90993 5.99515 11.0246 5.63896 12.1676 5.63896C13.3106 5.63896 14.4252 5.99515 15.3565 6.658C16.2877 7.32085 16.9892 8.25741 17.3634 9.33744C17.7377 10.4175 17.7661 11.5873 17.4447 12.6842C17.1233 13.7811 16.468 14.7506 15.5701 15.4578C17.2417 16.1244 18.679 17.2703 19.7012 18.7515C21.3442 16.91 22.2512 14.5278 22.249 12.0599C22.2491 11.4965 22.2023 10.9339 22.1093 10.3782C22.0882 10.259 22.0909 10.1367 22.1173 10.0186C22.1438 9.90044 22.1933 9.78869 22.2632 9.6898C22.333 9.59091 22.4218 9.50685 22.5243 9.44245C22.6268 9.37806 22.7411 9.33462 22.8605 9.31465C22.9799 9.29467 23.1021 9.29855 23.22 9.32606C23.3379 9.35358 23.4492 9.40418 23.5474 9.47494C23.6457 9.54571 23.7289 9.63524 23.7924 9.73836C23.8558 9.84148 23.8982 9.95615 23.917 10.0757ZM12.1676 14.8094C12.8927 14.8094 13.6014 14.5944 14.2043 14.1916C14.8072 13.7888 15.277 13.2162 15.5545 12.5464C15.832 11.8765 15.9046 11.1394 15.7631 10.4283C15.6217 9.71713 15.2725 9.06391 14.7598 8.55121C14.2471 8.03852 13.5939 7.68937 12.8828 7.54792C12.1717 7.40646 11.4346 7.47906 10.7647 7.75653C10.0948 8.034 9.52227 8.50388 9.11944 9.10674C8.71662 9.70961 8.50162 10.4184 8.50162 11.1435C8.50162 12.1157 8.88785 13.0482 9.57536 13.7357C10.2629 14.4232 11.1953 14.8094 12.1676 14.8094ZM12.1676 22.1414C14.4054 22.1436 16.5797 21.3976 18.3448 20.022C17.6818 18.9851 16.7684 18.1317 15.6889 17.5406C14.6093 16.9496 13.3984 16.6397 12.1676 16.6397C10.9368 16.6397 9.72587 16.9496 8.64633 17.5406C7.5668 18.1317 6.65343 18.9851 5.99042 20.022C7.75547 21.3976 9.92979 22.1436 12.1676 22.1414Z" fill="#118376"/>
</svg>
