<svg width="36" height="41" viewBox="0 0 36 41" fill="none" xmlns="http://www.w3.org/2000/svg">
<g clip-path="url(#clip0_402_556)">
<path d="M31.69 24.6166C32.5432 24.7539 28.3174 22.6333 27.2701 22.2756C28.8447 21.3941 30.1996 19.8515 30.2875 16.8566C27.1382 19.8226 26.0323 14.671 25.4611 7.39149C25.1205 3.05631 22.1398 1.21747 20.0049 0.559965C18.4949 -0.00376138 16.8567 -0.146254 15.2701 0.148122C12.8935 0.639443 9.84681 1.74492 9.30119 5.67909C8.935 7.43123 8.935 9.55186 8.79219 10.5309C7.77052 18.4787 6.379 19.0459 4.83735 17.6514C4.83735 18.7822 4.94721 19.9997 7.03448 21.6253C7.58809 22.0364 8.25394 22.2743 8.94598 22.3081C7.11504 23.1354 4.86298 25.0068 4.18553 25.0068C3.05401 25.0068 1.77235 25.5234 1.40616 28.4099C1.22307 29.855 0.413793 35.1909 -0.00732422 41.0108L35.9927 40.8844C35.1944 33.1425 34.0958 25.8991 33.8798 25.5776C33.1364 24.4577 31.5874 24.6022 31.69 24.6166ZM10.6817 27.6802L9.03753 27.7416L10.3192 26.0183C10.3192 26.0183 9.89075 25.5379 7.8108 26.6036C8.44431 25.7654 10.1324 22.1203 10.3192 21.5459C12.022 20.1297 12.2051 19.6312 12.9997 18.4823C12.9997 18.4823 12.011 21.1954 11.7986 22.8681C11.5862 24.5408 14.9258 35.563 14.5999 36.4445C14.3766 34.1287 10.6817 27.6802 10.6817 27.6802ZM22.982 26.3001C21.151 25.2597 20.1404 25.9786 20.1404 25.9786L21.3598 27.7849C21.3598 27.7849 19.1626 27.3839 17.8663 29.696C16.6302 31.8667 15.545 34.1178 14.6182 36.4336C14.6182 36.4336 16.9838 28.9157 18.2032 26.6036C19.7559 23.6593 21.173 21.5459 21.0339 20.4151C20.8933 19.554 20.6726 18.7075 20.3747 17.8862C20.3747 17.8862 22.3521 20.8089 24.0366 21.647C23.0735 22.0769 22.495 22.9367 22.982 26.3001Z" fill="#FF88B3"/>
</g>
<defs>
<clipPath id="clip0_402_556">
<rect width="36" height="41" fill="white"/>
</clipPath>
</defs>
</svg>
