<svg width="38" height="41" viewBox="0 0 38 41" fill="none" xmlns="http://www.w3.org/2000/svg">
<g clip-path="url(#clip0_402_545)">
<path d="M25.9261 11.6306C25.5309 13.6278 25.2447 15.8272 24.4816 17.3311C23.3846 19.4757 20.9828 20.798 19.0307 20.798C16.9593 20.798 14.6631 19.3763 13.5797 16.9954C12.9324 15.5703 12.452 12.028 12.2715 10.1849C11.7604 4.90575 13.8046 3.02156 19.0341 2.91194C24.8223 2.78861 26.9277 6.60152 25.9261 11.6306Z" fill="#88A9FF"/>
<path d="M12.6973 9.54429C11.8831 9.09551 11.1404 9.17087 11.2903 10.1404C11.4402 11.1099 11.6616 13.7169 12.1795 14.1657C12.6973 14.6145 13.2015 14.7618 13.5116 14.2376C13.8216 13.7135 12.6973 9.54429 12.6973 9.54429Z" fill="#88A9FF"/>
<path d="M25.5514 9.54429C26.3656 9.09551 27.1049 9.17087 26.9584 10.1404C26.8119 11.1099 26.5871 13.7169 26.0692 14.1657C25.5514 14.6145 25.0472 14.7618 24.7337 14.2376C24.4203 13.7135 25.5514 9.54429 25.5514 9.54429Z" fill="#88A9FF"/>
<path d="M22.3966 2.48029C22.1207 1.36005 22.5397 0.85988 20.3525 0.332307C18.0291 -0.229525 16.2643 -0.229527 14.0362 1.54504C12.2817 2.94277 11.5288 4.25485 11.6208 6.77624C11.633 7.99901 11.7573 9.21805 11.9921 10.4179L13.4775 11.2606C13.4775 11.2606 13.6649 6.58782 14.2202 5.656C14.7755 4.72418 18.3084 5.00167 19.8858 4.62826C21.4632 4.25485 22.3966 2.48029 22.3966 2.48029Z" fill="#88A9FF"/>
<path d="M21.5619 2.57277C22.1207 3.88143 23.9774 5.28258 24.6281 6.40282C25.2788 7.52306 24.9995 11.634 24.9995 11.634L26.2055 10.6063C26.2055 10.6063 27.4149 6.40282 26.2055 3.78893C24.9961 1.17505 23.0473 0.239799 21.8413 0.890702C20.6353 1.5416 21.5619 2.57277 21.5619 2.57277Z" fill="#88A9FF"/>
<path d="M35.3188 25.2105C35.2132 25.0732 35.0788 24.9612 34.925 24.8824C34.7713 24.8036 34.6021 24.7601 34.4296 24.7548L25.6468 21.2297L23.6027 20.0135C23.5114 18.9313 23.5618 17.8417 23.7526 16.7727C24.2193 14.6419 14.3428 16.55 14.3428 16.55C14.4564 17.7191 14.4906 18.8946 14.445 20.0683L12.4827 21.2297L3.69984 24.9981C3.5266 25.0037 3.35674 25.0477 3.20242 25.1271C3.04811 25.2065 2.91316 25.3192 2.80724 25.4571C2.49041 25.9162 0.395193 32.5622 0.0136261 41.0034H37.9932C37.6184 32.552 35.639 25.6695 35.3188 25.2105ZM24.9245 27.797L24.2431 27.3619C23.9536 28.6465 23.5277 30.0271 23.1087 31.5756C21.9605 35.7962 20.315 39.9483 20.0016 40.3388H18.6252C18.3118 39.9483 16.6799 36.0292 15.5318 31.8086C15.0957 30.2053 14.6665 28.7836 14.3224 27.3756L13.5967 27.797L13.0142 21.3701L14.4382 20.4726L18.6491 24.8953L18.4583 25.0049C18.6707 25.1547 18.9163 25.25 19.1737 25.2824C19.565 25.1919 19.9285 25.0073 20.2333 24.7446L19.9267 24.5459L23.7457 20.4897L25.2175 21.329L24.9245 27.797Z" fill="#88A9FF"/>
<path d="M19.6882 24.0971H18.8297L17.6815 25.2379C17.6815 25.2379 18.3834 25.4674 18.5196 27.0604C19.0118 27.097 19.506 27.097 19.9982 27.0604C20.1379 25.4674 20.9589 25.2002 20.9589 25.2002L19.6882 24.0971Z" fill="#88A9FF"/>
<path d="M19.9369 26.8617L19.402 26.6219V26.5157L19.2555 26.5671L19.109 26.5157V26.6082L18.5775 26.848C17.8962 27.4612 17.92 29.7942 17.92 30.4108V40.9966H20.5944V30.4245C20.5978 29.8079 20.6182 27.4749 19.9369 26.8617Z" fill="#88A9FF"/>
<path d="M19.6916 24.0937L24.2874 27.3585L19.7938 24.5219L19.6916 24.0937Z" fill="#88A9FF"/>
<path d="M18.8297 24.0937L14.4961 27.2386L18.8262 24.5219L18.8297 24.0937Z" fill="#88A9FF"/>
</g>
<defs>
<clipPath id="clip0_402_545">
<rect width="38" height="41" fill="white"/>
</clipPath>
</defs>
</svg>
