<svg width="19" height="27" viewBox="0 0 19 27" fill="none" xmlns="http://www.w3.org/2000/svg">
<path fill-rule="evenodd" clip-rule="evenodd" d="M9.7438 0.136475C12.6142 0.136475 14.9412 2.46343 14.9412 5.33388V13.4187C14.9412 16.2892 12.6142 18.6161 9.7438 18.6161C6.87335 18.6161 4.54639 16.2892 4.54639 13.4187V5.33388C4.54639 2.46343 6.87335 0.136475 9.7438 0.136475ZM1.36975 12.0653C1.7142 12.0653 1.99996 12.3167 2.05366 12.6459L2.06273 12.7583V12.9107C2.06273 17.2304 5.50399 20.7277 9.74335 20.7277C13.8925 20.7277 17.2772 17.3776 17.4193 13.1853L17.424 12.9107V12.7704C17.424 12.3876 17.7342 12.0774 18.1169 12.0774C18.4614 12.0774 18.7472 12.3287 18.8009 12.6579L18.8099 12.7704L18.8056 13.1972C18.6636 17.9103 15.0292 21.735 10.4362 22.0872L10.4363 26.1233C10.4363 26.5061 10.1261 26.8163 9.74335 26.8163C9.39889 26.8163 9.11314 26.565 9.05943 26.2357L9.05036 26.1233L9.0509 22.0872C4.46058 21.7355 0.827712 17.9153 0.681343 13.2062L0.676758 12.7583C0.676758 12.3756 0.987019 12.0653 1.36975 12.0653ZM5.93184 5.33384C5.93184 3.22885 7.63828 1.52241 9.74327 1.52241C11.8483 1.52241 13.5547 3.22885 13.5547 5.33384V13.4187C13.5547 15.5237 11.8483 17.2301 9.74327 17.2301C7.63828 17.2301 5.93184 15.5237 5.93184 13.4187V5.33384Z" fill="#118376"/>
</svg>
