<svg width="42" height="42" viewBox="0 0 42 42" fill="none" xmlns="http://www.w3.org/2000/svg">
<circle opacity="0.5" cx="8.75" cy="8.75" r="5.25" fill="white"/>
<circle opacity="0.5" cx="33.25" cy="33.25" r="5.25" fill="white"/>
<path fill-rule="evenodd" clip-rule="evenodd" d="M17.9377 8.75C17.9377 8.02513 18.5253 7.4375 19.2502 7.4375H28.231C33.0456 7.4375 34.8766 13.7253 30.8147 16.3101L12.595 27.9045C10.7486 29.0794 11.5809 31.9375 13.7694 31.9375H19.5815L19.1971 31.5531C18.6845 31.0405 18.6845 30.2095 19.1971 29.6969C19.7097 29.1844 20.5407 29.1844 21.0533 29.6969L23.6783 32.3219C24.1908 32.8345 24.1908 33.6655 23.6783 34.1781L21.0533 36.8031C20.5407 37.3156 19.7097 37.3156 19.1971 36.8031C18.6845 36.2905 18.6845 35.4595 19.1971 34.9469L19.5815 34.5625H13.7694C8.95471 34.5625 7.12375 28.2747 11.1857 25.6899L29.4054 14.0955C31.2517 12.9206 30.4194 10.0625 28.231 10.0625H19.2502C18.5253 10.0625 17.9377 9.47487 17.9377 8.75Z" fill="white"/>
</svg>
