<svg width="142" height="130" viewBox="0 0 142 130" fill="none" xmlns="http://www.w3.org/2000/svg">
<g clip-path="url(#clip0_1120_50)">
<path d="M7.92548 98.2023C8.86453 98.1822 9.79702 98.3634 10.6606 98.7337C11.5241 99.1041 12.2988 99.6551 12.9328 100.35C14.2263 101.802 14.9414 103.681 14.9414 105.628C14.9414 107.575 14.2263 109.454 12.9328 110.906C12.2917 111.588 11.5145 112.127 10.6517 112.488C9.78898 112.849 8.86004 113.023 7.92548 113C7.08192 113.015 6.24635 112.834 5.48448 112.47C4.7226 112.107 4.05518 111.571 3.53469 110.906V112.662H-0.0134277V93H3.62783V100.194C4.15056 99.5619 4.80784 99.0547 5.55148 98.71C6.29512 98.3653 7.10628 98.1919 7.92548 98.2023ZM3.49034 105.601C3.47084 106.67 3.85773 107.707 4.57252 108.5C4.93803 108.868 5.37242 109.16 5.85077 109.359C6.32913 109.559 6.84201 109.661 7.36 109.661C7.87799 109.661 8.39087 109.559 8.86922 109.359C9.34758 109.16 9.78198 108.868 10.1475 108.5C10.8678 107.71 11.2555 106.671 11.2297 105.601C11.2589 104.538 10.8702 103.507 10.1475 102.729C9.78296 102.358 9.34804 102.063 8.86835 101.863C8.38866 101.663 7.87391 101.562 7.3544 101.564C6.83488 101.567 6.32111 101.673 5.84335 101.878C5.36559 102.083 4.9335 102.381 4.57252 102.755C3.85017 103.523 3.45962 104.546 3.4859 105.601H3.49034Z" fill="white"/>
<path d="M30.1191 105.29C30.1101 105.827 30.0672 106.363 29.9905 106.895H19.4348C19.9493 108.896 21.3168 109.896 23.5373 109.896C25.1608 109.9 26.7461 109.403 28.0789 108.474L29.5248 111.035C27.7389 112.327 25.5845 113.007 23.3821 112.973C20.9191 112.973 19.0268 112.257 17.7051 110.826C16.3959 109.408 15.6923 107.533 15.7448 105.601C15.7093 104.625 15.8714 103.652 16.2213 102.74C16.5711 101.828 17.1015 100.997 17.7805 100.297C19.1756 98.9834 21.008 98.2375 22.9213 98.2038C24.8345 98.1701 26.6919 98.8511 28.1321 100.114C29.4597 101.392 30.122 103.117 30.1191 105.29ZM23.0716 101.226C22.2252 101.205 21.3989 101.486 20.7388 102.017C20.0739 102.57 19.6144 103.331 19.4348 104.178H26.5843C26.455 103.34 26.0339 102.574 25.3957 102.017C24.7425 101.479 23.9165 101.198 23.0716 101.226Z" fill="white"/>
<path d="M35.2284 112.662H31.5916V98.5625H35.1397V100.528C35.5415 99.7969 36.1514 99.2024 36.8915 98.8204C37.71 98.3836 38.6255 98.1618 39.5526 98.1756C40.27 98.1595 40.9835 98.2859 41.6518 98.5477C42.3202 98.8094 42.9302 99.2013 43.4467 99.7008C44.517 100.72 45.0507 102.17 45.0478 104.049V112.662H41.411V105.032C41.4738 104.106 41.1943 103.19 40.6259 102.458C40.3567 102.152 40.0225 101.91 39.6479 101.751C39.2734 101.592 38.868 101.519 38.4616 101.537C38.023 101.521 37.5863 101.602 37.1824 101.774C36.7784 101.946 36.4172 102.205 36.1243 102.533C35.5143 103.248 35.1974 104.168 35.2372 105.108L35.2284 112.662Z" fill="white"/>
<path d="M53.8647 112.973C52.877 113.007 51.8926 112.841 50.97 112.486C50.0474 112.131 49.2053 111.593 48.4937 110.906C47.7957 110.216 47.2483 109.388 46.8864 108.475C46.5245 107.562 46.356 106.583 46.3915 105.601C46.3544 104.618 46.5235 103.638 46.8879 102.724C47.2523 101.81 47.8039 100.983 48.507 100.297C49.2286 99.5994 50.0825 99.0548 51.0181 98.6951C51.9537 98.3353 52.9519 98.1677 53.9534 98.2023C55.3455 98.1781 56.7178 98.5347 57.9229 99.2339C59.0786 99.9002 59.9957 100.915 60.544 102.133L57.6257 103.738C56.7653 102.306 55.5708 101.59 54.0421 101.59C53.5096 101.571 52.9789 101.665 52.4851 101.865C51.9913 102.066 51.5455 102.369 51.177 102.755C50.8035 103.127 50.51 103.571 50.3147 104.06C50.1194 104.55 50.0265 105.074 50.0416 105.601C50.023 106.134 50.1115 106.666 50.302 107.164C50.4925 107.662 50.781 108.116 51.1504 108.5C51.517 108.872 51.9556 109.165 52.4391 109.36C52.9226 109.556 53.441 109.651 53.9623 109.639C54.7084 109.636 55.4397 109.43 56.0778 109.043C56.7077 108.689 57.2197 108.157 57.5503 107.513L60.4908 109.247C59.8847 110.392 58.9603 111.336 57.8297 111.964C56.6214 112.649 55.2525 112.997 53.8647 112.973Z" fill="white"/>
<path d="M65.3209 112.662H61.6841V93H65.2322V100.399C65.6562 99.703 66.2725 99.1455 67.0063 98.7937C67.8311 98.3769 68.7437 98.165 69.6673 98.1756C70.3811 98.1614 71.0907 98.2888 71.7552 98.5506C72.4197 98.8123 73.026 99.2032 73.5392 99.7008C74.6036 100.72 75.1373 102.17 75.1403 104.049V112.662H71.499V105.032C71.5557 104.107 71.2769 103.193 70.714 102.458C70.4469 102.151 70.1144 101.91 69.7412 101.75C69.368 101.591 68.9638 101.518 68.5586 101.537C68.12 101.521 67.6832 101.602 67.2793 101.774C66.8754 101.946 66.5142 102.205 66.2212 102.533C65.6113 103.248 65.2943 104.168 65.3342 105.108L65.3209 112.662Z" fill="white"/>
<path d="M94.2289 98.1756C94.984 98.1445 95.7374 98.2685 96.4429 98.54C97.1483 98.8114 97.791 99.2246 98.3314 99.7541C99.4136 100.803 99.9562 102.269 99.9591 104.152V112.662H96.3179V104.823C96.3756 103.945 96.1034 103.078 95.5551 102.391C95.2971 102.106 94.9798 101.882 94.6256 101.735C94.2714 101.587 93.8892 101.52 93.506 101.537C93.088 101.52 92.6711 101.593 92.2839 101.752C91.8966 101.911 91.5481 102.152 91.2618 102.458C90.6659 103.138 90.3587 104.025 90.4058 104.93V112.662H86.7513V104.85C86.8055 103.972 86.5338 103.106 85.9885 102.418C85.7314 102.122 85.4113 101.889 85.052 101.735C84.6926 101.581 84.3032 101.51 83.9128 101.528C83.4979 101.515 83.085 101.591 82.7023 101.752C82.3195 101.913 81.976 102.155 81.6952 102.462C81.0879 103.141 80.7696 104.032 80.8082 104.943V112.653H77.1714V98.5625H80.7195V100.581C81.1251 99.8275 81.7418 99.2092 82.4936 98.8026C83.2595 98.3838 84.1181 98.1644 84.9905 98.1644C85.863 98.1644 86.7215 98.3838 87.4875 98.8026C88.2219 99.2227 88.8043 99.8657 89.1507 100.639C89.6797 99.8518 90.4105 99.222 91.2663 98.8159C92.1901 98.3726 93.205 98.1533 94.2289 98.1756Z" fill="white"/>
<path d="M112.759 100.243V98.5625H116.218V112.662H112.759V111.035C112.196 111.668 111.503 112.172 110.727 112.511C109.952 112.85 109.112 113.017 108.266 113C107.329 113.028 106.396 112.853 105.532 112.487C104.668 112.121 103.893 111.572 103.259 110.879C101.938 109.424 101.234 107.51 101.299 105.543C101.265 104.58 101.424 103.619 101.765 102.717C102.106 101.816 102.623 100.991 103.286 100.292C103.921 99.6102 104.694 99.071 105.552 98.71C106.411 98.349 107.336 98.1745 108.266 98.1979C109.118 98.191 109.962 98.3704 110.738 98.7237C111.514 99.0769 112.203 99.5954 112.759 100.243ZM112.808 105.579C112.822 104.509 112.414 103.476 111.672 102.707C111.316 102.318 110.88 102.011 110.395 101.805C109.91 101.6 109.387 101.501 108.861 101.515C108.33 101.499 107.802 101.597 107.313 101.803C106.823 102.008 106.383 102.316 106.022 102.707C105.317 103.505 104.931 104.536 104.936 105.602C104.941 106.668 105.337 107.695 106.049 108.487C106.415 108.863 106.852 109.162 107.335 109.365C107.818 109.569 108.337 109.675 108.861 109.675C109.385 109.675 109.903 109.569 110.386 109.365C110.869 109.162 111.306 108.863 111.672 108.487C112.413 107.711 112.821 106.675 112.808 105.601V105.579Z" fill="white"/>
<path d="M122.099 112.662H118.463V98.5625H121.944V100.457C122.304 99.745 122.86 99.1521 123.547 98.7485C124.233 98.3449 125.021 98.1476 125.816 98.1801C126.398 98.1819 126.974 98.2873 127.519 98.4913L127.213 101.982C126.669 101.806 126.103 101.71 125.532 101.697C125.059 101.675 124.587 101.76 124.152 101.946C123.716 102.133 123.329 102.415 123.018 102.773C122.405 103.491 122.099 104.555 122.099 105.966V112.662Z" fill="white"/>
<path d="M142 112.662H137.534L132.877 106.637L131.919 107.491V112.662H128.282V93H131.919V103.373L137.046 98.5625H141.636L135.365 104.343L142 112.662Z" fill="white"/>
</g>
<path d="M4.14551 118.075V118.793H0.175781V118.075H4.14551ZM1.6333 116.039H2.50488V124.074C2.50488 124.44 2.55371 124.716 2.65137 124.901C2.74902 125.087 2.87598 125.211 3.03223 125.275C3.18848 125.338 3.35693 125.37 3.5376 125.37C3.66943 125.37 3.79639 125.363 3.91846 125.348C4.04053 125.329 4.15039 125.309 4.24805 125.29L4.28467 126.029C4.17725 126.063 4.03809 126.09 3.86719 126.11C3.69629 126.134 3.52539 126.146 3.35449 126.146C3.01758 126.146 2.71973 126.085 2.46094 125.963C2.20215 125.836 1.99951 125.622 1.85303 125.319C1.70654 125.011 1.6333 124.594 1.6333 124.066V116.039ZM9.04541 126.146C8.52783 126.146 8.05176 126.051 7.61719 125.861C7.1875 125.67 6.81152 125.402 6.48926 125.055C6.17188 124.708 5.92529 124.298 5.74951 123.825C5.57861 123.346 5.49316 122.824 5.49316 122.257V121.942C5.49316 121.332 5.5835 120.78 5.76416 120.287C5.94482 119.794 6.19385 119.372 6.51123 119.02C6.82861 118.668 7.18994 118.4 7.59521 118.214C8.00537 118.024 8.43506 117.929 8.88428 117.929C9.38721 117.929 9.83398 118.019 10.2246 118.2C10.6152 118.375 10.9424 118.627 11.2061 118.954C11.4746 119.276 11.6772 119.66 11.814 120.104C11.9507 120.543 12.019 121.029 12.019 121.562V122.096H6.02051V121.349H11.1475V121.247C11.1377 120.802 11.0474 120.387 10.8765 120.001C10.7104 119.611 10.4614 119.293 10.1294 119.049C9.79736 118.805 9.38232 118.683 8.88428 118.683C8.51318 118.683 8.17139 118.761 7.85889 118.917C7.55127 119.074 7.28516 119.298 7.06055 119.591C6.84082 119.879 6.66992 120.224 6.54785 120.624C6.43066 121.02 6.37207 121.459 6.37207 121.942V122.257C6.37207 122.697 6.43555 123.107 6.5625 123.488C6.69434 123.864 6.87988 124.196 7.11914 124.484C7.36328 124.772 7.65137 124.997 7.9834 125.158C8.31543 125.319 8.68164 125.399 9.08203 125.399C9.55078 125.399 9.96582 125.314 10.3271 125.143C10.6885 124.967 11.0132 124.691 11.3013 124.315L11.8506 124.74C11.6797 124.994 11.4648 125.229 11.2061 125.443C10.9521 125.658 10.647 125.829 10.2905 125.956C9.93408 126.083 9.51904 126.146 9.04541 126.146ZM18.5669 124.579V120.492C18.5669 120.116 18.4888 119.792 18.3325 119.518C18.1763 119.245 17.9468 119.035 17.644 118.888C17.3413 118.742 16.9678 118.668 16.5234 118.668C16.1133 118.668 15.7471 118.742 15.4248 118.888C15.1074 119.03 14.856 119.223 14.6704 119.467C14.4897 119.706 14.3994 119.972 14.3994 120.265L13.5205 120.258C13.5205 119.96 13.5938 119.672 13.7402 119.394C13.8867 119.115 14.0942 118.866 14.3628 118.646C14.6313 118.427 14.9512 118.253 15.3223 118.126C15.6982 117.995 16.1108 117.929 16.5601 117.929C17.1265 117.929 17.6245 118.024 18.0542 118.214C18.4888 118.405 18.8281 118.69 19.0723 119.071C19.3164 119.452 19.4385 119.931 19.4385 120.507V124.337C19.4385 124.611 19.458 124.894 19.4971 125.187C19.541 125.48 19.6021 125.722 19.6802 125.912V126H18.75C18.6914 125.824 18.645 125.604 18.6108 125.341C18.5815 125.072 18.5669 124.818 18.5669 124.579ZM18.772 121.386L18.7866 122.06H17.0654C16.6162 122.06 16.2134 122.101 15.8569 122.184C15.5054 122.262 15.2075 122.379 14.9634 122.536C14.7192 122.687 14.5312 122.87 14.3994 123.085C14.2725 123.3 14.209 123.544 14.209 123.817C14.209 124.101 14.2798 124.359 14.4214 124.594C14.5679 124.828 14.7729 125.016 15.0366 125.158C15.3052 125.294 15.6226 125.363 15.9888 125.363C16.4771 125.363 16.9067 125.272 17.2778 125.092C17.6538 124.911 17.9639 124.674 18.208 124.381C18.4521 124.088 18.6157 123.769 18.6987 123.422L19.0796 123.927C19.0161 124.171 18.8989 124.423 18.728 124.682C18.562 124.936 18.3447 125.175 18.0762 125.399C17.8076 125.619 17.4902 125.8 17.124 125.941C16.7627 126.078 16.3525 126.146 15.8936 126.146C15.376 126.146 14.9243 126.049 14.5386 125.854C14.1577 125.658 13.8599 125.392 13.645 125.055C13.4351 124.713 13.3301 124.328 13.3301 123.898C13.3301 123.507 13.4131 123.158 13.5791 122.851C13.7451 122.538 13.9844 122.274 14.2969 122.06C14.6143 121.84 14.9951 121.674 15.4395 121.562C15.8887 121.444 16.3916 121.386 16.9482 121.386H18.772ZM24.7119 125.392C25.083 125.392 25.4297 125.324 25.752 125.187C26.0791 125.045 26.3477 124.838 26.5576 124.564C26.7725 124.286 26.8945 123.947 26.9238 123.546H27.7588C27.7344 124.049 27.5806 124.499 27.2974 124.894C27.019 125.285 26.6528 125.592 26.1987 125.817C25.7495 126.037 25.2539 126.146 24.7119 126.146C24.1602 126.146 23.6719 126.046 23.2471 125.846C22.8271 125.646 22.4756 125.368 22.1924 125.011C21.9092 124.65 21.6943 124.23 21.5479 123.751C21.4062 123.268 21.3354 122.748 21.3354 122.191V121.884C21.3354 121.327 21.4062 120.81 21.5479 120.331C21.6943 119.848 21.9092 119.428 22.1924 119.071C22.4756 118.71 22.8271 118.429 23.2471 118.229C23.667 118.029 24.1528 117.929 24.7046 117.929C25.271 117.929 25.7788 118.043 26.228 118.273C26.6821 118.502 27.0435 118.827 27.312 119.247C27.5854 119.667 27.7344 120.165 27.7588 120.741H26.9238C26.8994 120.316 26.7871 119.95 26.5869 119.643C26.3867 119.335 26.123 119.098 25.7959 118.932C25.4688 118.766 25.105 118.683 24.7046 118.683C24.2554 118.683 23.8721 118.771 23.5547 118.947C23.2373 119.118 22.9785 119.354 22.7783 119.657C22.583 119.955 22.439 120.297 22.3462 120.683C22.2534 121.063 22.207 121.464 22.207 121.884V122.191C22.207 122.616 22.251 123.021 22.3389 123.407C22.4316 123.788 22.5757 124.127 22.771 124.425C22.9712 124.723 23.23 124.96 23.5474 125.136C23.8696 125.307 24.2578 125.392 24.7119 125.392ZM30.3955 114.75V126H29.5239V114.75H30.3955ZM30.1978 121.547L29.8096 121.327C29.8389 120.858 29.9341 120.419 30.0952 120.009C30.2563 119.599 30.4736 119.237 30.7471 118.925C31.0254 118.612 31.3501 118.368 31.7212 118.192C32.0972 118.017 32.5122 117.929 32.9663 117.929C33.3618 117.929 33.7158 117.982 34.0283 118.09C34.3408 118.197 34.6069 118.368 34.8267 118.603C35.0464 118.837 35.2124 119.137 35.3247 119.503C35.4419 119.87 35.5005 120.316 35.5005 120.844V126H34.6216V120.836C34.6216 120.29 34.5459 119.862 34.3945 119.555C34.2432 119.242 34.0283 119.02 33.75 118.888C33.4717 118.756 33.1421 118.69 32.7612 118.69C32.3413 118.69 31.9727 118.783 31.6553 118.969C31.3428 119.149 31.0791 119.386 30.8643 119.679C30.6543 119.967 30.4932 120.277 30.3809 120.609C30.2686 120.937 30.2075 121.249 30.1978 121.547ZM40.8179 126.146C40.3003 126.146 39.8242 126.051 39.3896 125.861C38.96 125.67 38.584 125.402 38.2617 125.055C37.9443 124.708 37.6978 124.298 37.522 123.825C37.3511 123.346 37.2656 122.824 37.2656 122.257V121.942C37.2656 121.332 37.356 120.78 37.5366 120.287C37.7173 119.794 37.9663 119.372 38.2837 119.02C38.6011 118.668 38.9624 118.4 39.3677 118.214C39.7778 118.024 40.2075 117.929 40.6567 117.929C41.1597 117.929 41.6064 118.019 41.9971 118.2C42.3877 118.375 42.7148 118.627 42.9785 118.954C43.2471 119.276 43.4497 119.66 43.5864 120.104C43.7231 120.543 43.7915 121.029 43.7915 121.562V122.096H37.793V121.349H42.9199V121.247C42.9102 120.802 42.8198 120.387 42.6489 120.001C42.4829 119.611 42.2339 119.293 41.9019 119.049C41.5698 118.805 41.1548 118.683 40.6567 118.683C40.2856 118.683 39.9438 118.761 39.6313 118.917C39.3237 119.074 39.0576 119.298 38.833 119.591C38.6133 119.879 38.4424 120.224 38.3203 120.624C38.2031 121.02 38.1445 121.459 38.1445 121.942V122.257C38.1445 122.697 38.208 123.107 38.335 123.488C38.4668 123.864 38.6523 124.196 38.8916 124.484C39.1357 124.772 39.4238 124.997 39.7559 125.158C40.0879 125.319 40.4541 125.399 40.8545 125.399C41.3232 125.399 41.7383 125.314 42.0996 125.143C42.4609 124.967 42.7856 124.691 43.0737 124.315L43.623 124.74C43.4521 124.994 43.2373 125.229 42.9785 125.443C42.7246 125.658 42.4194 125.829 42.063 125.956C41.7065 126.083 41.2915 126.146 40.8179 126.146ZM46.3916 119.386V126H45.52V118.075H46.3696L46.3916 119.386ZM49.1968 118.017L49.1748 118.822C49.0771 118.808 48.9819 118.795 48.8892 118.786C48.7964 118.776 48.6963 118.771 48.5889 118.771C48.208 118.771 47.8735 118.842 47.5854 118.983C47.3022 119.12 47.063 119.313 46.8677 119.562C46.6724 119.806 46.5234 120.094 46.4209 120.426C46.3184 120.753 46.2598 121.105 46.2451 121.481L45.9229 121.605C45.9229 121.088 45.9766 120.607 46.084 120.163C46.1914 119.718 46.355 119.33 46.5747 118.998C46.7993 118.661 47.0801 118.4 47.417 118.214C47.7588 118.024 48.1592 117.929 48.6182 117.929C48.7305 117.929 48.8403 117.938 48.9478 117.958C49.0601 117.973 49.1431 117.992 49.1968 118.017Z" fill="url(#paint0_linear_1120_50)"/>
<g clip-path="url(#clip1_1120_50)">
<path d="M76.6498 79.9634C76.235 79.9855 75.8227 80.0412 75.4169 80.1301C67.7727 82.7104 67.7603 82.7227 63.3773 76.0622C60.0977 71.0868 56.8859 66.0683 53.6002 61.0991C52.2625 59.0744 51.7508 57.0497 52.9221 54.7411C53.0283 54.4515 53.0738 54.143 53.0557 53.8351C53.0377 53.5271 52.9565 53.2261 52.8173 52.9509C48.2061 44.0126 43.5087 35.1175 38.953 26.1483C38.4784 25.2162 38.7866 23.889 38.7311 22.7409C39.6127 23.531 40.8086 24.1483 41.3264 25.1236C45.6416 33.2965 49.8336 41.5373 54.0379 49.7657C54.8084 51.2842 55.6407 52.2843 57.6195 52.6052C59.1052 52.846 60.745 54.167 61.6636 55.4633C64.7459 59.8152 67.6494 64.3214 70.4358 68.8769C71.4653 70.5683 72.5072 70.8461 74.1839 70.056C79.5472 67.5374 84.9596 65.1177 90.2982 62.5621C92.6777 61.4201 94.8847 60.6115 97.591 61.7905C101.123 63.3275 104.748 62.8399 108.391 61.7288C109.91 61.2567 111.54 61.287 113.039 61.8152C122.539 65.8769 127.65 73.3338 129.141 83.4511C129.499 85.8524 128.58 86.7659 126.139 86.7536C110.522 86.6919 94.9052 86.6919 79.2881 86.7536C76.8223 86.7536 75.9161 85.8277 76.2675 83.4573C76.4463 82.3708 76.5203 81.2659 76.6498 79.9634Z" fill="white"/>
<path d="M102.159 3.91977H23.7942C23.7202 5.15435 23.5908 6.22225 23.5908 7.31485C23.5908 26.6483 23.6463 45.9879 23.5168 65.3399C23.5168 68.4263 24.5093 69.1362 27.4128 69.0745C36.0433 68.8955 44.6738 68.9448 53.3043 69.1053C54.5988 69.1053 55.8811 70.2473 57.1633 70.8584C57.0647 71.2782 56.9722 71.6918 56.8736 72.093C55.8577 72.3112 54.8277 72.4576 53.7913 72.5313C43.6197 72.5622 33.448 72.4757 23.2826 72.593C20.527 72.6239 19.7564 71.5128 19.7687 68.9263C19.8386 47.2266 19.8386 25.5248 19.7687 3.82101C19.7687 0.802476 20.8784 -0.0123454 23.7511 3.02505e-07C49.7411 0.0864206 75.725 0.0493837 101.715 0.0679023C105.759 0.0679023 105.771 0.067898 105.778 4.19138C105.778 11.6976 105.833 19.21 105.71 26.7162C105.71 27.6236 104.865 29.136 104.169 29.2965C102.227 29.7471 102.221 28.1113 102.221 26.7224C102.221 20.3479 102.221 13.9692 102.221 7.58646L102.159 3.91977Z" fill="white"/>
<path d="M102.615 61.5497C100.687 61.5672 98.7746 61.1988 96.9905 60.4663C95.2064 59.7337 93.5865 58.6518 92.2256 57.2839C90.8647 55.916 89.7904 54.2898 89.0656 52.5005C88.3408 50.7113 87.9801 48.7951 88.0049 46.8645C88.0049 38.8397 94.7858 32.0496 102.707 32.1113C110.629 32.173 117.466 39.0187 117.422 46.9262C117.372 50.8242 115.789 54.5453 113.018 57.2828C110.246 60.0202 106.508 61.5533 102.615 61.5497Z" fill="white"/>
<path d="M63.2292 81.0931C61.3367 81.1795 60.3319 81.2597 59.3332 81.2597C45.0806 81.2597 30.828 81.2968 16.5816 81.2289C15.3487 81.2289 13.2157 80.7412 13.1478 80.2597C12.9292 77.949 12.9789 75.6207 13.2958 73.3214C13.2958 73.0683 14.7445 72.8214 15.5212 72.8152C28.9539 72.8152 42.3805 72.7535 55.8132 72.877C57.059 73.0207 58.1989 73.6479 58.988 74.6239C60.4428 76.3955 61.5463 78.4634 63.2292 81.0931Z" fill="white"/>
<path d="M82.1485 15.389V19.426H51.4178C50.6657 15.5989 50.8014 15.4013 54.3707 15.3952C62.5696 15.3952 70.7685 15.3952 78.9675 15.3952L82.1485 15.389Z" fill="white"/>
<path d="M66.7123 24.6298C71.12 24.6298 75.5338 24.6298 79.9415 24.6298C81.2854 24.6298 82.3273 24.7285 82.352 26.5434C82.3766 28.3582 81.5074 28.815 79.8861 28.8088C71.0707 28.78 62.2511 28.78 53.4275 28.8088C51.8432 28.8088 50.5917 28.3088 51.1157 26.5681C51.3282 26.0932 51.6523 25.6768 52.0601 25.3544C52.468 25.0319 52.9477 24.813 53.4583 24.7162C57.8845 24.531 62.2984 24.6298 66.7123 24.6298Z" fill="white"/>
<path d="M81.976 34.0681C82.8082 36.7595 82.2718 38.0681 79.2881 38.0311C70.8919 37.9261 62.4896 38.0002 54.0872 37.9941C52.5337 37.9941 50.9309 38.1299 51.0049 35.7163C51.0789 33.3027 52.7926 33.9014 54.0872 33.8644C62.4896 33.8212 70.8919 33.8644 79.2881 33.8644C80.2005 33.8829 81.0944 34.0064 81.976 34.0681Z" fill="white"/>
</g>
<defs>
<linearGradient id="paint0_linear_1120_50" x1="25" y1="112" x2="25" y2="130" gradientUnits="userSpaceOnUse">
<stop stop-color="#F7993B"/>
<stop offset="1" stop-color="#FBBE3C"/>
</linearGradient>
<clipPath id="clip0_1120_50">
<rect width="142" height="20" fill="white" transform="translate(0 93)"/>
</clipPath>
<clipPath id="clip1_1120_50">
<rect width="116.203" height="86.7598" fill="white" transform="translate(13)"/>
</clipPath>
</defs>
</svg>
