<svg width="24" height="24" viewBox="0 0 24 24" fill="none" xmlns="http://www.w3.org/2000/svg">
<path fill-rule="evenodd" clip-rule="evenodd" d="M19.3334 22.6667C20.2174 22.6667 21.0653 22.3155 21.6904 21.6903C22.3155 21.0652 22.6667 20.2174 22.6667 19.3333C22.6667 18.4493 22.3155 17.6014 21.6904 16.9763C21.0653 16.3512 20.2174 16 19.3334 16C18.4493 16 17.6015 16.3512 16.9763 16.9763C16.3512 17.6014 16 18.4493 16 19.3333C16 20.2174 16.3512 21.0652 16.9763 21.6903C17.6015 22.3155 18.4493 22.6667 19.3334 22.6667ZM19.3334 24C20.571 24 21.758 23.5083 22.6332 22.6332C23.5084 21.758 24 20.571 24 19.3333C24 18.0956 23.5084 16.9087 22.6332 16.0335C21.758 15.1583 20.571 14.6667 19.3334 14.6667C18.0957 14.6667 16.9087 15.1583 16.0335 16.0335C15.1584 16.9087 14.6667 18.0956 14.6667 19.3333C14.6667 20.571 15.1584 21.758 16.0335 22.6332C16.9087 23.5083 18.0957 24 19.3334 24Z" fill="#A2ACDE"/>
<path fill-rule="evenodd" clip-rule="evenodd" d="M19.3334 17C19.5102 17 19.6797 17.0702 19.8048 17.1953C19.9298 17.3203 20 17.4899 20 17.6667V19.0573L20.4714 19.5287C20.5928 19.6544 20.66 19.8228 20.6585 19.9976C20.657 20.1724 20.5868 20.3396 20.4632 20.4632C20.3396 20.5868 20.1724 20.6569 19.9976 20.6584C19.8228 20.66 19.6544 20.5928 19.5287 20.4713L18.6667 19.6093V17.6667C18.6667 17.4899 18.7369 17.3203 18.8619 17.1953C18.987 17.0702 19.1565 17 19.3334 17Z" fill="#A2ACDE"/>
<path fill-rule="evenodd" clip-rule="evenodd" d="M5.33335 11.3333H4.00002V12.6667H5.33335V11.3333ZM4.00002 10C3.6464 10 3.30726 10.1405 3.05721 10.3905C2.80716 10.6406 2.66669 10.9797 2.66669 11.3333V12.6667C2.66669 13.0203 2.80716 13.3594 3.05721 13.6095C3.30726 13.8595 3.6464 14 4.00002 14H5.33335C5.68698 14 6.02611 13.8595 6.27616 13.6095C6.52621 13.3594 6.66669 13.0203 6.66669 12.6667V11.3333C6.66669 10.9797 6.52621 10.6406 6.27616 10.3905C6.02611 10.1405 5.68698 10 5.33335 10H4.00002Z" fill="#A2ACDE"/>
<path fill-rule="evenodd" clip-rule="evenodd" d="M10.6667 11.3333H9.33333V12.6667H10.6667V11.3333ZM9.33333 10C8.97971 10 8.64057 10.1405 8.39052 10.3905C8.14048 10.6406 8 10.9797 8 11.3333V12.6667C8 13.0203 8.14048 13.3594 8.39052 13.6095C8.64057 13.8595 8.97971 14 9.33333 14H10.6667C11.0203 14 11.3594 13.8595 11.6095 13.6095C11.8595 13.3594 12 13.0203 12 12.6667V11.3333C12 10.9797 11.8595 10.6406 11.6095 10.3905C11.3594 10.1405 11.0203 10 10.6667 10H9.33333Z" fill="#A2ACDE"/>
<path fill-rule="evenodd" clip-rule="evenodd" d="M16 11.3333H14.6666V12.6667H16V11.3333ZM14.6666 10C14.313 10 13.9739 10.1405 13.7238 10.3905C13.4738 10.6406 13.3333 10.9797 13.3333 11.3333V12.6667C13.3333 13.0203 13.4738 13.3594 13.7238 13.6095C13.9739 13.8595 14.313 14 14.6666 14H16C16.3536 14 16.6927 13.8595 16.9428 13.6095C17.1928 13.3594 17.3333 13.0203 17.3333 12.6667V11.3333C17.3333 10.9797 17.1928 10.6406 16.9428 10.3905C16.6927 10.1405 16.3536 10 16 10H14.6666Z" fill="#A2ACDE"/>
<path fill-rule="evenodd" clip-rule="evenodd" d="M5.33335 16.6667H4.00002V18H5.33335V16.6667ZM4.00002 15.3333C3.6464 15.3333 3.30726 15.4738 3.05721 15.7239C2.80716 15.9739 2.66669 16.3131 2.66669 16.6667V18C2.66669 18.3536 2.80716 18.6928 3.05721 18.9428C3.30726 19.1929 3.6464 19.3333 4.00002 19.3333H5.33335C5.68698 19.3333 6.02611 19.1929 6.27616 18.9428C6.52621 18.6928 6.66669 18.3536 6.66669 18V16.6667C6.66669 16.3131 6.52621 15.9739 6.27616 15.7239C6.02611 15.4738 5.68698 15.3333 5.33335 15.3333H4.00002Z" fill="#A2ACDE"/>
<path fill-rule="evenodd" clip-rule="evenodd" d="M10.6667 16.6667H9.33333V18H10.6667V16.6667ZM9.33333 15.3333C8.97971 15.3333 8.64057 15.4738 8.39052 15.7239C8.14048 15.9739 8 16.3131 8 16.6667V18C8 18.3536 8.14048 18.6928 8.39052 18.9428C8.64057 19.1929 8.97971 19.3333 9.33333 19.3333H10.6667C11.0203 19.3333 11.3594 19.1929 11.6095 18.9428C11.8595 18.6928 12 18.3536 12 18V16.6667C12 16.3131 11.8595 15.9739 11.6095 15.7239C11.3594 15.4738 11.0203 15.3333 10.6667 15.3333H9.33333Z" fill="#A2ACDE"/>
<path fill-rule="evenodd" clip-rule="evenodd" d="M1.33333 4C1.33333 3.82319 1.40357 3.65362 1.5286 3.5286C1.65362 3.40357 1.82319 3.33333 2 3.33333H5.33333V2H2C1.46957 2 0.960859 2.21071 0.585787 2.58579C0.210714 2.96086 0 3.46957 0 4V20C0 20.5304 0.210714 21.0391 0.585787 21.4142C0.960859 21.7893 1.46957 22 2 22H15.5033C15.219 21.5928 15.0018 21.1426 14.86 20.6667H2C1.82319 20.6667 1.65362 20.5964 1.5286 20.4714C1.40357 20.3464 1.33333 20.1768 1.33333 20V4ZM18.6667 14.7133C19.1089 14.6501 19.5578 14.6501 20 14.7133V4C20 3.46957 19.7893 2.96086 19.4142 2.58579C19.0391 2.21071 18.5304 2 18 2H16V3.33333H18C18.1768 3.33333 18.3464 3.40357 18.4714 3.5286C18.5964 3.65362 18.6667 3.82319 18.6667 4V14.7133ZM6.66667 3.33333H13.7087V2H6.66667V3.33333Z" fill="#A2ACDE"/>
<path fill-rule="evenodd" clip-rule="evenodd" d="M14.6667 2H6.66669V4C6.66669 4.17681 6.59645 4.34638 6.47142 4.4714C6.3464 4.59643 6.17683 4.66667 6.00002 4.66667C5.82321 4.66667 5.65364 4.59643 5.52862 4.4714C5.40359 4.34638 5.33335 4.17681 5.33335 4V2H2.00002C1.6464 2 1.30726 2.14048 1.05721 2.39052C0.807163 2.64057 0.666687 2.97971 0.666687 3.33333V6.66667C0.666687 7.02029 0.807163 7.35943 1.05721 7.60948C1.30726 7.85952 1.6464 8 2.00002 8H18C18.3536 8 18.6928 7.85952 18.9428 7.60948C19.1929 7.35943 19.3334 7.02029 19.3334 6.66667V3.33333C19.3334 2.97971 19.1929 2.64057 18.9428 2.39052C18.6928 2.14048 18.3536 2 18 2H16V4C16 4.17681 15.9298 4.34638 15.8048 4.4714C15.6797 4.59643 15.5102 4.66667 15.3334 4.66667C15.1565 4.66667 14.987 4.59643 14.8619 4.4714C14.7369 4.34638 14.6667 4.17681 14.6667 4V2Z" fill="#A2ACDE"/>
<path fill-rule="evenodd" clip-rule="evenodd" d="M20 7.99999H1.33331V6.66666H20V7.99999Z" fill="#A2ACDE"/>
<path d="M4 0.666667C4 0.489856 4.07024 0.320287 4.19526 0.195262C4.32029 0.070238 4.48986 0 4.66667 0C4.84348 0 5.01305 0.070238 5.13807 0.195262C5.2631 0.320287 5.33333 0.489856 5.33333 0.666667V3.33333C5.33333 3.51014 5.2631 3.67971 5.13807 3.80474C5.01305 3.92976 4.84348 4 4.66667 4C4.48986 4 4.32029 3.92976 4.19526 3.80474C4.07024 3.67971 4 3.51014 4 3.33333V0.666667Z" fill="#A2ACDE"/>
<path d="M13.3333 0.666667C13.3333 0.489856 13.4036 0.320287 13.5286 0.195262C13.6536 0.070238 13.8232 0 14 0C14.1768 0 14.3464 0.070238 14.4714 0.195262C14.5964 0.320287 14.6666 0.489856 14.6666 0.666667V3.33333C14.6666 3.51014 14.5964 3.67971 14.4714 3.80474C14.3464 3.92976 14.1768 4 14 4C13.8232 4 13.6536 3.92976 13.5286 3.80474C13.4036 3.67971 13.3333 3.51014 13.3333 3.33333V0.666667Z" fill="#A2ACDE"/>
</svg>
