<svg width="99" height="52" viewBox="0 0 99 52" fill="none" xmlns="http://www.w3.org/2000/svg">
<path d="M5.37908 36.1915C12.601 40.06 20.7114 42.0831 28.5733 44.2048C37.2229 46.5392 46.1302 47.5968 54.9684 48.9228C58.5387 49.4584 62.177 49.6124 65.7736 49.8984C68.7673 50.1365 71.7796 50.4807 74.7869 50.3533C77.6227 50.2332 81.298 49.5109 83.2845 47.2318C84.6651 45.6479 83.6044 44.0054 82.104 43.0496C74.3279 38.0961 65.8842 34.6768 57.2918 31.4158C46.5091 27.3235 35.3412 24.1421 23.879 22.7353C18.6934 22.0989 13.4736 21.5265 8.25191 21.2889C6.85775 21.2255 3.56138 20.5196 2.27713 21.4103C0.519369 22.6293 3.29573 24.8277 4.12204 25.4707C5.55869 26.5886 7.24121 27.2942 8.91201 27.9903C12.917 29.659 17.035 30.9857 21.2712 31.9267C28.0557 33.4337 34.8373 34.1715 41.7606 34.6182C46.7393 34.9394 51.7336 35.1859 56.7211 35.2987C62.466 35.4286 68.2733 36.0687 74.0131 35.5681C80.0024 35.0457 86.8043 33.2618 89.8359 27.6023C91.4872 24.5195 88.2304 22.6441 85.8808 20.988C83.2328 19.1217 80.2723 17.6993 77.2761 16.4918C72.8121 14.6928 68.3893 12.7895 63.9197 11.0067C52.9829 6.6444 41.9172 4.29642 30.3185 2.5004C23.0502 1.37493 15.7423 0.721781 8.38326 0.61051C7.0022 0.589628 3.64609 0.299038 3.62015 2.32679C3.58666 4.94569 7.3634 6.90034 9.25415 7.95432C13.6996 10.4324 18.7359 11.7983 23.5686 13.2828C34.6923 16.6998 45.9399 16.7482 57.4439 15.5985C60.7764 15.2654 64.0535 14.6504 67.4026 14.4118C70.8964 14.1628 74.3621 13.9211 77.8367 13.4666C78.8332 13.3362 86.3096 13.0344 86.4245 11.5889C86.6065 9.30139 83.5304 7.30128 81.9588 6.27248C73.686 0.856626 63.6765 -1.80011 54.3665 -4.79676C46.8854 -7.20475 39.1945 -8.94921 31.5002 -10.5289C26.969 -11.4592 22.3033 -12.1961 17.6633 -12.1676C16.9609 -12.1633 15.3239 -12.2466 14.6645 -11.7805C13.7227 -11.1146 14.8099 -8.78854 15.0392 -8.2589C17.032 -3.65616 21.2768 -1.81014 25.7337 -0.221155C31.3746 1.78995 37.3102 3.16125 43.1366 4.5091C49.9142 6.07701 56.7465 7.55029 63.6698 8.29528C71.3134 9.11777 79.7132 9.90691 87.3309 8.2419C91.0366 7.43193 94.2981 5.63621 96.4171 2.47558C97.6316 0.663911 98.3029 -1.90282 99.6671 -3.44933" stroke="#A35CFB" stroke-width="3" stroke-linecap="round"/>
</svg>
