<svg width="66" height="55" viewBox="0 0 66 55" fill="none" xmlns="http://www.w3.org/2000/svg">
<path d="M0.69573 47.7348C0.383132 48.3451 0.624463 49.0932 1.23476 49.4058L11.1801 54.4999C11.7904 54.8125 12.5385 54.5712 12.8511 53.9609C13.1637 53.3506 12.9224 52.6024 12.3121 52.2898L3.47181 47.7618L7.99989 38.9214C8.31249 38.3112 8.07116 37.563 7.46086 37.2504C6.85057 36.9378 6.10241 37.1791 5.78981 37.7894L0.69573 47.7348ZM28.5483 35.6352L29.3657 36.5698L28.5483 35.6352ZM41.6881 14.5537L42.9154 14.7419L41.6881 14.5537ZM22.3583 -3.26501L21.2924 -3.90158C21.2203 -3.7809 21.1692 -3.64885 21.1414 -3.51107L22.3583 -3.26501ZM25.0829 17.1528L24.0075 17.7733L25.0829 17.1528ZM44.9073 23.4881L44.3345 22.3865L44.9073 23.4881ZM62.9944 4.94645L64.2024 5.23344L62.9944 4.94645ZM57.3092 -8.61978L56.6909 -7.5431L57.3092 -8.61978ZM49.1705 -4.29233L50.3816 -4.01901L49.1705 -4.29233ZM57.3092 18.8855L57.63 17.6862L57.3092 18.8855ZM73.3104 12.9654L72.8006 11.8333L73.3104 12.9654ZM82.0481 1.44368C82.1443 0.764764 81.6719 0.136416 80.993 0.0402257C80.3141 -0.0559649 79.6858 0.416425 79.5896 1.09534L82.0481 1.44368ZM2.18192 49.4824C11.1112 46.6021 21.77 43.2128 29.3657 36.5698L27.731 34.7007C20.5928 40.9436 10.4691 44.2001 1.41962 47.1192L2.18192 49.4824ZM29.3657 36.5698C32.0754 34.1999 35.1729 30.527 37.7243 26.5991C40.2619 22.6923 42.357 18.3843 42.9154 14.7419L40.4609 14.3656C39.9822 17.4886 38.1124 21.4431 35.6419 25.2465C33.1851 29.0288 30.2312 32.514 27.731 34.7007L29.3657 36.5698ZM42.9154 14.7419C43.503 10.9087 43.1752 7.90259 42.1423 5.32539C41.1166 2.76598 39.4368 0.737432 37.5145 -1.19454L35.7543 0.556903C37.5861 2.39794 38.9944 4.1456 39.8374 6.24917C40.6734 8.33496 40.9955 10.8786 40.4609 14.3656L42.9154 14.7419ZM37.5145 -1.19454C35.5117 -3.20737 32.4503 -5.2038 29.4699 -6.10597C27.977 -6.55789 26.4111 -6.76362 24.9691 -6.47784C23.4825 -6.18324 22.1693 -5.36998 21.2924 -3.90158L23.4243 -2.62844C23.9096 -3.44119 24.5928 -3.87185 25.4518 -4.04209C26.3553 -4.22114 27.4843 -4.11263 28.7505 -3.72934C31.2885 -2.9611 34.0028 -1.20329 35.7543 0.556903L37.5145 -1.19454ZM21.1414 -3.51107C19.473 4.74021 20.0462 10.9074 24.0075 17.7733L26.1583 16.5324C22.5618 10.2988 21.9994 4.7748 23.5752 -3.01896L21.1414 -3.51107ZM24.0075 17.7733C25.9068 21.0654 29.3588 23.7374 33.2363 25.1125C37.1231 26.4909 41.5843 26.6153 45.4801 24.5896L44.3345 22.3865C41.1872 24.023 37.466 23.9779 34.0662 22.7722C30.6572 21.5632 27.7184 19.2365 26.1583 16.5324L24.0075 17.7733ZM45.4801 24.5896C49.0485 22.7341 53.198 20.0155 56.7103 16.7314C60.2046 13.4643 63.181 9.53214 64.2024 5.23344L61.7865 4.65945C60.9274 8.27515 58.3492 11.7997 55.0144 14.9176C51.6977 18.0187 47.7438 20.6137 44.3345 22.3865L45.4801 24.5896ZM64.2024 5.23344C65.0551 1.64436 65.1106 -1.24623 64.0359 -3.719C62.9606 -6.19328 60.8551 -8.01533 57.9274 -9.69646L56.6909 -7.5431C59.432 -5.96909 60.9953 -4.48556 61.7586 -2.72928C62.5225 -0.971497 62.5862 1.29345 61.7865 4.65945L64.2024 5.23344ZM57.9274 -9.69646C55.5399 -11.0674 53.2602 -11.2777 51.3777 -10.1491C49.5853 -9.07452 48.5049 -6.98287 47.9594 -4.56566L50.3816 -4.01901C50.8619 -6.14738 51.7063 -7.45093 52.6545 -8.0194C53.5126 -8.53387 54.7893 -8.63506 56.6909 -7.5431L57.9274 -9.69646ZM47.9594 -4.56566C47.111 -0.806228 47.5411 4.77324 48.9901 9.61024C49.719 12.0435 50.7269 14.3629 52.0199 16.2136C53.3057 18.054 54.9527 19.5404 56.9884 20.0849L57.63 17.6862C56.3729 17.3499 55.1593 16.3714 54.0555 14.7915C52.9589 13.222 52.0483 11.1661 51.3688 8.89768C50.0009 4.33141 49.6545 -0.797283 50.3816 -4.01901L47.9594 -4.56566ZM56.9884 20.0849C58.4198 20.4678 59.9796 20.3149 61.4861 19.9308C63.0038 19.5438 64.5725 18.8944 66.0727 18.1734C67.5757 17.4511 69.0534 16.6353 70.3782 15.9033C71.7243 15.1597 72.8842 14.5189 73.8201 14.0975L72.8006 11.8333C71.7511 12.3058 70.4897 13.0048 69.1774 13.7299C67.844 14.4666 66.4266 15.2483 64.9971 15.9354C63.5646 16.6238 62.1632 17.1956 60.8726 17.5247C59.5708 17.8566 58.4841 17.9146 57.63 17.6862L56.9884 20.0849ZM73.8201 14.0975C74.7468 13.6803 75.6718 12.7675 76.484 11.7974C77.3324 10.7842 78.1909 9.54343 78.9654 8.27884C79.7412 7.01206 80.4481 5.69628 80.988 4.52303C81.5114 3.3857 81.931 2.27052 82.0481 1.44368L79.5896 1.09534C79.5267 1.53896 79.2434 2.37437 78.7323 3.48494C78.2377 4.55958 77.5785 5.78902 76.8479 6.98197C76.1159 8.17711 75.3277 9.31056 74.5802 10.2033C73.7966 11.1391 73.1767 11.664 72.8006 11.8333L73.8201 14.0975Z" fill="#DE6A32"/>
</svg>
