<svg width="316" height="80" viewBox="0 0 316 80" fill="none" xmlns="http://www.w3.org/2000/svg">
<g filter="url(#filter0_d_444_14)">
<rect x="15" width="286" height="50" rx="10" fill="url(#paint0_linear_444_14)"/>
<path d="M160.163 28.2861V30H154.794V28.2861H160.163ZM155.505 19.3359V30H153.308V19.3359H155.505ZM164.938 30.1465C164.323 30.1465 163.771 30.0488 163.283 29.8535C162.795 29.6533 162.38 29.3774 162.038 29.0259C161.701 28.6743 161.442 28.2666 161.262 27.8027C161.081 27.334 160.991 26.8359 160.991 26.3086V26.0156C160.991 25.415 161.076 24.8657 161.247 24.3677C161.418 23.8696 161.662 23.4375 161.979 23.0713C162.302 22.7051 162.692 22.4243 163.151 22.229C163.61 22.0288 164.128 21.9287 164.704 21.9287C165.266 21.9287 165.764 22.0215 166.198 22.207C166.633 22.3926 166.997 22.6562 167.29 22.998C167.587 23.3398 167.812 23.75 167.963 24.2285C168.115 24.7021 168.19 25.2295 168.19 25.8105V26.6895H161.892V25.2832H166.118V25.1221C166.118 24.8291 166.064 24.5679 165.957 24.3384C165.854 24.104 165.698 23.9185 165.488 23.7817C165.278 23.645 165.009 23.5767 164.682 23.5767C164.404 23.5767 164.165 23.6377 163.964 23.7598C163.764 23.8818 163.601 24.0527 163.474 24.2725C163.352 24.4922 163.259 24.751 163.195 25.0488C163.137 25.3418 163.107 25.6641 163.107 26.0156V26.3086C163.107 26.626 163.151 26.9189 163.239 27.1875C163.332 27.4561 163.461 27.688 163.627 27.8833C163.798 28.0786 164.003 28.23 164.243 28.3374C164.487 28.4448 164.763 28.4985 165.07 28.4985C165.451 28.4985 165.805 28.4253 166.132 28.2788C166.464 28.1274 166.75 27.9004 166.989 27.5977L168.015 28.7109C167.849 28.9502 167.622 29.1797 167.333 29.3994C167.05 29.6191 166.708 29.7998 166.308 29.9414C165.908 30.0781 165.451 30.1465 164.938 30.1465ZM173.669 28.2129V24.6826C173.669 24.4287 173.627 24.2114 173.544 24.0308C173.461 23.8452 173.332 23.7012 173.156 23.5986C172.985 23.4961 172.763 23.4448 172.49 23.4448C172.255 23.4448 172.053 23.4863 171.882 23.5693C171.711 23.6475 171.579 23.7622 171.486 23.9136C171.394 24.0601 171.347 24.2334 171.347 24.4336H169.238C169.238 24.0967 169.316 23.7769 169.472 23.4741C169.628 23.1714 169.855 22.9053 170.153 22.6758C170.451 22.4414 170.805 22.2583 171.215 22.1265C171.63 21.9946 172.094 21.9287 172.607 21.9287C173.222 21.9287 173.769 22.0312 174.248 22.2363C174.726 22.4414 175.102 22.749 175.375 23.1592C175.654 23.5693 175.793 24.082 175.793 24.6973V28.0884C175.793 28.5229 175.82 28.8794 175.874 29.1577C175.927 29.4312 176.005 29.6704 176.108 29.8755V30H173.977C173.874 29.7852 173.796 29.5166 173.742 29.1943C173.693 28.8672 173.669 28.54 173.669 28.2129ZM173.947 25.1733L173.962 26.3672H172.783C172.504 26.3672 172.263 26.3989 172.058 26.4624C171.853 26.5259 171.684 26.6162 171.552 26.7334C171.42 26.8457 171.323 26.9775 171.259 27.1289C171.201 27.2803 171.171 27.4463 171.171 27.627C171.171 27.8076 171.213 27.9712 171.296 28.1177C171.379 28.2593 171.499 28.3716 171.655 28.4546C171.811 28.5327 171.994 28.5718 172.204 28.5718C172.521 28.5718 172.797 28.5083 173.032 28.3813C173.266 28.2544 173.447 28.0981 173.574 27.9126C173.706 27.7271 173.774 27.5513 173.779 27.3853L174.335 28.2788C174.257 28.479 174.15 28.6865 174.013 28.9014C173.881 29.1162 173.713 29.3188 173.508 29.5093C173.303 29.6948 173.056 29.8486 172.768 29.9707C172.48 30.0879 172.138 30.1465 171.743 30.1465C171.24 30.1465 170.783 30.0464 170.373 29.8462C169.968 29.6411 169.646 29.3604 169.406 29.0039C169.172 28.6426 169.055 28.2324 169.055 27.7734C169.055 27.3584 169.133 26.9897 169.289 26.6675C169.445 26.3452 169.675 26.0742 169.978 25.8545C170.285 25.6299 170.668 25.4614 171.127 25.3491C171.586 25.2319 172.119 25.1733 172.724 25.1733H173.947ZM182.099 28.2715V18.75H184.223V30H182.312L182.099 28.2715ZM177.089 26.1328V25.979C177.089 25.3735 177.158 24.8242 177.294 24.3311C177.431 23.833 177.631 23.4058 177.895 23.0493C178.159 22.6929 178.483 22.417 178.869 22.2217C179.255 22.0264 179.694 21.9287 180.188 21.9287C180.651 21.9287 181.057 22.0264 181.403 22.2217C181.755 22.417 182.053 22.6953 182.297 23.0566C182.546 23.4131 182.746 23.8354 182.897 24.3237C183.049 24.8071 183.159 25.3369 183.227 25.9131V26.25C183.159 26.8018 183.049 27.3145 182.897 27.7881C182.746 28.2617 182.546 28.6768 182.297 29.0332C182.053 29.3848 181.755 29.6582 181.403 29.8535C181.052 30.0488 180.642 30.1465 180.173 30.1465C179.68 30.1465 179.24 30.0464 178.854 29.8462C178.474 29.646 178.151 29.3652 177.888 29.0039C177.629 28.6426 177.431 28.2178 177.294 27.7295C177.158 27.2412 177.089 26.709 177.089 26.1328ZM179.199 25.979V26.1328C179.199 26.46 179.223 26.7651 179.272 27.0483C179.326 27.3315 179.411 27.583 179.528 27.8027C179.65 28.0176 179.807 28.186 179.997 28.3081C180.192 28.4253 180.429 28.4839 180.708 28.4839C181.069 28.4839 181.367 28.4033 181.601 28.2422C181.835 28.0762 182.014 27.8491 182.136 27.561C182.263 27.2729 182.336 26.9409 182.355 26.5649V25.6055C182.341 25.2979 182.297 25.022 182.224 24.7778C182.155 24.5288 182.053 24.3164 181.916 24.1406C181.784 23.9648 181.618 23.8281 181.418 23.7305C181.223 23.6328 180.991 23.584 180.722 23.584C180.449 23.584 180.214 23.6475 180.019 23.7744C179.824 23.8965 179.665 24.0649 179.543 24.2798C179.426 24.4946 179.338 24.7485 179.279 25.0415C179.226 25.3296 179.199 25.6421 179.199 25.979ZM189.519 30.1465C188.903 30.1465 188.352 30.0488 187.863 29.8535C187.375 29.6533 186.96 29.3774 186.618 29.0259C186.281 28.6743 186.022 28.2666 185.842 27.8027C185.661 27.334 185.571 26.8359 185.571 26.3086V26.0156C185.571 25.415 185.656 24.8657 185.827 24.3677C185.998 23.8696 186.242 23.4375 186.56 23.0713C186.882 22.7051 187.272 22.4243 187.731 22.229C188.19 22.0288 188.708 21.9287 189.284 21.9287C189.846 21.9287 190.344 22.0215 190.778 22.207C191.213 22.3926 191.577 22.6562 191.87 22.998C192.167 23.3398 192.392 23.75 192.543 24.2285C192.695 24.7021 192.771 25.2295 192.771 25.8105V26.6895H186.472V25.2832H190.698V25.1221C190.698 24.8291 190.644 24.5679 190.537 24.3384C190.434 24.104 190.278 23.9185 190.068 23.7817C189.858 23.645 189.589 23.5767 189.262 23.5767C188.984 23.5767 188.745 23.6377 188.544 23.7598C188.344 23.8818 188.181 24.0527 188.054 24.2725C187.932 24.4922 187.839 24.751 187.775 25.0488C187.717 25.3418 187.688 25.6641 187.688 26.0156V26.3086C187.688 26.626 187.731 26.9189 187.819 27.1875C187.912 27.4561 188.042 27.688 188.208 27.8833C188.378 28.0786 188.583 28.23 188.823 28.3374C189.067 28.4448 189.343 28.4985 189.65 28.4985C190.031 28.4985 190.385 28.4253 190.712 28.2788C191.044 28.1274 191.33 27.9004 191.569 27.5977L192.595 28.7109C192.429 28.9502 192.202 29.1797 191.914 29.3994C191.63 29.6191 191.289 29.7998 190.888 29.9414C190.488 30.0781 190.031 30.1465 189.519 30.1465ZM196.081 23.8037V30H193.972V22.0752H195.957L196.081 23.8037ZM198.469 22.0239L198.432 23.9795C198.33 23.9648 198.205 23.9526 198.059 23.9429C197.917 23.9282 197.788 23.9209 197.67 23.9209C197.373 23.9209 197.114 23.96 196.894 24.0381C196.679 24.1113 196.499 24.2212 196.352 24.3677C196.21 24.5142 196.103 24.6924 196.03 24.9023C195.961 25.1123 195.922 25.3516 195.913 25.6201L195.488 25.4883C195.488 24.9756 195.539 24.5044 195.642 24.0747C195.744 23.6401 195.893 23.2617 196.088 22.9395C196.289 22.6172 196.533 22.3682 196.821 22.1924C197.109 22.0166 197.438 21.9287 197.81 21.9287C197.927 21.9287 198.046 21.9385 198.168 21.958C198.291 21.9727 198.391 21.9946 198.469 22.0239Z" fill="#FF638B"/>
<path d="M133.4 14.7063C133.243 11.7229 129.378 11.0069 128.598 11.0069C127.817 11.0069 126.8 11.2364 126.565 11.716L126.618 11.7619C126.394 11.7017 126.159 11.6977 125.933 11.7501C125.708 11.8025 125.498 11.9098 125.323 12.0626C124.9 12.4275 123.448 14.19 124.308 17.0632C124.351 17.2589 124.44 17.4413 124.567 17.5957C124.736 18.8143 125.159 20.7214 125.516 21.5108C126.185 22.9888 127.631 23.8333 128.914 23.8333C130.12 23.8333 131.281 23.0003 131.959 21.6692C132.435 20.7351 132.722 19.3169 132.965 18.0776C133.036 17.7311 133.088 17.3753 133.127 17.0196L133.286 16.9049C133.286 16.9049 133.477 16.7488 133.4 14.7063Z" fill="#FF5984"/>
<path d="M133.345 20.9784C134.028 21.6095 135.223 21.0358 135.309 20.2326C135.176 20.3526 135.003 20.4189 134.825 20.4189C134.646 20.4189 134.473 20.3526 134.34 20.2326C134.654 20.4047 135.28 19.7736 135.478 19.3719C134.968 19.9181 134.085 19.8883 133.375 19.3444C134.217 20.0329 135.298 18.8372 135.298 18.8372C135.18 18.9667 135.041 19.076 134.888 19.1608C135.008 19.0614 135.119 18.9533 135.223 18.8372C134.597 19.1241 133.944 18.8648 133.914 18.3209C134.483 18.4356 135.223 17.7471 135.109 17.116C134.654 18.2635 133.687 17.575 133.744 17.1734C133.914 17.3455 134.313 17.1734 134.369 16.657C133.459 16.8292 133.459 15.3374 133.288 14.3621C133.288 14.3621 132.15 15.2801 132.037 16.0259C131.982 16.3816 132.123 17.038 132.358 17.676L130.671 17.9674L126.707 17.9193L125.02 17.6278C125.248 16.9898 125.396 16.3334 125.341 15.9777C125.227 15.2319 124.089 14.3139 124.089 14.3139C123.919 15.2893 123.768 17.1642 122.858 16.9921C122.915 17.5085 123.37 17.5842 123.541 17.4121C123.598 17.8137 122.63 17.7563 122.269 17.0678C122.155 17.6989 122.63 18.4081 123.199 18.2933C123.17 18.8372 122.781 19.0759 122.155 18.789C122.258 18.9051 122.37 19.0132 122.489 19.1126C122.336 19.0278 122.198 18.9185 122.08 18.789C122.08 18.789 123.161 19.9847 124.005 19.2962C123.293 19.8424 122.412 19.87 121.9 19.3261C122.098 19.7277 122.724 20.3588 123.038 20.1867C122.905 20.306 122.732 20.372 122.554 20.372C122.376 20.372 122.204 20.306 122.071 20.1867C122.155 20.9899 123.35 21.5636 124.032 20.9325C123.577 21.5636 122.553 21.5338 121.984 21.1322C122.098 21.878 123.375 23.1976 124.654 22.399C124.708 22.3646 124.681 22.0915 124.733 22.0479C124.654 22.7363 123.454 22.8993 123.313 22.9199C123.459 23.2573 124.224 23.1884 124.991 22.8671C125.072 22.9865 124.961 23.0966 125.084 23.2779C125.207 23.4592 132.171 23.4914 132.294 23.3147C132.417 23.138 132.305 23.0232 132.387 22.9062C132.81 23.0989 132.952 23.0232 133.097 22.6881C132.956 22.6652 132.781 22.3852 132.642 22.0846C132.693 22.1278 132.747 22.1677 132.804 22.2039C134.083 23.0071 135.278 21.917 135.391 21.1712C134.825 21.5912 133.8 21.6095 133.345 20.9784Z" fill="#FF5984"/>
<path d="M138.598 28.3199C138.446 27.7095 137.667 27.3652 137.667 27.3652L132.776 24.9188L132.647 24.8155L133.175 28.7055C133.175 28.7055 130.771 26.0938 128.837 27.3285C129.206 26.9935 131.818 24.9487 131.568 24.1523C131.55 24.0858 131.52 24.0582 131.443 24.0008L131.174 23.9871C131.033 23.3697 131.022 22.4127 131.491 21.0037C131.916 19.7185 125.662 20.8637 125.662 20.8637C126.358 22.6376 126.431 23.5625 126.297 24.1707H126.069L126.049 24.1822C125.883 24.9991 128.361 26.9682 128.812 27.3262C127.018 26.1214 124.515 28.6642 124.515 28.6642L124.909 24.7261L124.226 25.0542L119.406 27.5167C119.406 27.5167 118.871 27.6314 118.495 28.3589C118.327 28.6825 117.471 32.6046 117.002 37.9977H139.989C139.433 32.6436 138.685 28.6756 138.598 28.3199ZM131.334 23.4432L131.349 23.4592C131.334 23.4271 131.334 23.4432 131.334 23.4432Z" fill="#FF5984"/>
<rect x="15.5" y="0.5" width="285" height="49" rx="9.5" stroke="#DBE5FF"/>
</g>
<defs>
<filter id="filter0_d_444_14" x="0" y="0" width="316" height="80" filterUnits="userSpaceOnUse" color-interpolation-filters="sRGB">
<feFlood flood-opacity="0" result="BackgroundImageFix"/>
<feColorMatrix in="SourceAlpha" type="matrix" values="0 0 0 0 0 0 0 0 0 0 0 0 0 0 0 0 0 0 127 0" result="hardAlpha"/>
<feMorphology radius="9" operator="erode" in="SourceAlpha" result="effect1_dropShadow_444_14"/>
<feOffset dy="15"/>
<feGaussianBlur stdDeviation="12"/>
<feColorMatrix type="matrix" values="0 0 0 0 0.19566 0 0 0 0 0.300198 0 0 0 0 0.670833 0 0 0 0.12 0"/>
<feBlend mode="normal" in2="BackgroundImageFix" result="effect1_dropShadow_444_14"/>
<feBlend mode="normal" in="SourceGraphic" in2="effect1_dropShadow_444_14" result="shape"/>
</filter>
<linearGradient id="paint0_linear_444_14" x1="158.313" y1="2.032e-08" x2="158.255" y2="50.0003" gradientUnits="userSpaceOnUse">
<stop stop-color="white"/>
<stop offset="1" stop-color="#F8F9FF"/>
</linearGradient>
</defs>
</svg>
