<svg width="29" height="29" viewBox="0 0 29 29" fill="none" xmlns="http://www.w3.org/2000/svg">
<path d="M10.0302 14.181H7.70599C6.4242 14.181 5.3818 15.2234 5.3818 16.5052V18.8294C5.3818 20.1112 6.4242 21.1536 7.70599 21.1536H10.0302C11.312 21.1536 12.3544 20.1112 12.3544 18.8294V16.5052C12.3544 15.2234 11.312 14.181 10.0302 14.181ZM7.70599 18.8294V16.5052H10.0302V18.8294H7.70599ZM22.8133 2.56004H21.6512V1.39794C21.6512 0.75646 21.1317 0.23584 20.4891 0.23584C19.8464 0.23584 19.327 0.75646 19.327 1.39794V2.56004H10.0302V1.39794C10.0302 0.75646 9.51073 0.23584 8.86809 0.23584C8.22545 0.23584 7.70599 0.75646 7.70599 1.39794V2.56004H6.54389C3.33999 2.56004 0.733398 5.16663 0.733398 8.37053V22.3157C0.733398 25.5196 3.33999 28.1262 6.54389 28.1262H22.8133C26.0172 28.1262 28.6238 25.5196 28.6238 22.3157V8.37053C28.6238 5.16663 26.0172 2.56004 22.8133 2.56004ZM6.54389 4.88424H22.8133C24.7354 4.88424 26.2996 6.44842 26.2996 8.37053V9.53263H3.0576V8.37053C3.0576 6.44842 4.62178 4.88424 6.54389 4.88424ZM22.8133 25.802H6.54389C4.62178 25.802 3.0576 24.2378 3.0576 22.3157V11.8568H26.2996V22.3157C26.2996 24.2378 24.7354 25.802 22.8133 25.802Z" fill="white"/>
</svg>
