<svg width="27" height="27" viewBox="0 0 27 27" fill="none" xmlns="http://www.w3.org/2000/svg">
<path d="M22.8095 4.90478H18.7345V4.08978C18.7345 3.44132 18.4769 2.81943 18.0183 2.3609C17.5598 1.90237 16.9379 1.64478 16.2895 1.64478H11.3995C10.751 1.64478 10.1291 1.90237 9.67058 2.3609C9.21205 2.81943 8.95445 3.44132 8.95445 4.08978V4.90478H4.87945C4.6633 4.90478 4.456 4.99064 4.30316 5.14348C4.15032 5.29633 4.06445 5.50362 4.06445 5.71978C4.06445 5.93593 4.15032 6.14323 4.30316 6.29607C4.456 6.44891 4.6633 6.53478 4.87945 6.53478H5.69445V21.2048C5.69445 21.6371 5.86618 22.0517 6.17187 22.3574C6.47755 22.663 6.89215 22.8348 7.32445 22.8348H20.3645C20.7968 22.8348 21.2114 22.663 21.517 22.3574C21.8227 22.0517 21.9945 21.6371 21.9945 21.2048V6.53478H22.8095C23.0256 6.53478 23.2329 6.44891 23.3857 6.29607C23.5386 6.14323 23.6245 5.93593 23.6245 5.71978C23.6245 5.50362 23.5386 5.29633 23.3857 5.14348C23.2329 4.99064 23.0256 4.90478 22.8095 4.90478ZM10.5845 4.08978C10.5845 3.87362 10.6703 3.66633 10.8232 3.51348C10.976 3.36064 11.1833 3.27478 11.3995 3.27478H16.2895C16.5056 3.27478 16.7129 3.36064 16.8657 3.51348C17.0186 3.66633 17.1045 3.87362 17.1045 4.08978V4.90478H10.5845V4.08978ZM20.3645 21.2048H7.32445V6.53478H20.3645V21.2048ZM12.2145 10.6098V17.1298C12.2145 17.3459 12.1286 17.5532 11.9757 17.7061C11.8229 17.8589 11.6156 17.9448 11.3995 17.9448C11.1833 17.9448 10.976 17.8589 10.8232 17.7061C10.6703 17.5532 10.5845 17.3459 10.5845 17.1298V10.6098C10.5845 10.3936 10.6703 10.1863 10.8232 10.0335C10.976 9.88064 11.1833 9.79478 11.3995 9.79478C11.6156 9.79478 11.8229 9.88064 11.9757 10.0335C12.1286 10.1863 12.2145 10.3936 12.2145 10.6098ZM17.1045 10.6098V17.1298C17.1045 17.3459 17.0186 17.5532 16.8657 17.7061C16.7129 17.8589 16.5056 17.9448 16.2895 17.9448C16.0733 17.9448 15.866 17.8589 15.7132 17.7061C15.5603 17.5532 15.4745 17.3459 15.4745 17.1298V10.6098C15.4745 10.3936 15.5603 10.1863 15.7132 10.0335C15.866 9.88064 16.0733 9.79478 16.2895 9.79478C16.5056 9.79478 16.7129 9.88064 16.8657 10.0335C17.0186 10.1863 17.1045 10.3936 17.1045 10.6098Z" fill="#EF160A"/>
</svg>
