<svg width="93" height="77" viewBox="0 0 93 77" fill="none" xmlns="http://www.w3.org/2000/svg">
<path opacity="0.5" fill-rule="evenodd" clip-rule="evenodd" d="M23.25 30.5L31.62 30.5V-16H32.55V30.5H36.27V-16H37.2V30.5H40.92V-16H41.85V30.5H45.57V-16H46.5V30.5H93V31.43H46.5V35.15H93V36.08H46.5V39.8H93V40.73H46.5V44.45H93V45.38H46.5L46.5 53.75C46.5 66.5906 36.0906 77 23.25 77C10.4094 77 0 66.5906 0 53.75C0 40.9094 10.4094 30.5 23.25 30.5ZM41.85 35.15H45.57V31.43H41.85V35.15ZM40.92 35.15H37.2V31.43H40.92V35.15ZM36.27 35.15H32.55V31.43H36.27V35.15ZM31.62 35.15V31.43L23.25 31.43C10.923 31.43 0.93 41.423 0.93 53.75C0.93 66.077 10.923 76.07 23.25 76.07C35.577 76.07 45.57 66.077 45.57 53.75L45.57 45.38H41.85L41.85 53.75C41.85 64.0225 33.5225 72.35 23.25 72.35C12.9775 72.35 4.65 64.0225 4.65 53.75C4.65 43.4775 12.9775 35.15 23.25 35.15L31.62 35.15ZM41.85 44.45H45.57V40.73H41.85V44.45ZM40.92 45.38L40.92 53.75C40.92 63.5089 33.0089 71.42 23.25 71.42C13.4911 71.42 5.58 63.5089 5.58 53.75C5.58 43.9911 13.4911 36.08 23.25 36.08L31.62 36.08V39.8L23.25 39.8C15.5456 39.8 9.3 46.0456 9.3 53.75C9.3 61.4544 15.5456 67.7 23.25 67.7C30.9544 67.7 37.2 61.4544 37.2 53.75L37.2 45.38H40.92ZM36.27 39.8H32.55V36.08H36.27V39.8ZM37.2 36.08V39.8H40.92V36.08H37.2ZM37.2 40.73V44.45H40.92V40.73H37.2ZM36.27 53.75L36.27 45.38H32.55L32.55 53.75C32.55 58.8862 28.3862 63.05 23.25 63.05C18.1138 63.05 13.95 58.8862 13.95 53.75C13.95 48.6138 18.1138 44.45 23.25 44.45L31.62 44.45V40.73L23.25 40.73C16.0592 40.73 10.23 46.5593 10.23 53.75C10.23 60.9408 16.0592 66.77 23.25 66.77C30.4407 66.77 36.27 60.9408 36.27 53.75ZM31.62 53.75C31.62 58.3726 27.8726 62.12 23.25 62.12C18.6274 62.12 14.88 58.3726 14.88 53.75C14.88 49.1274 18.6274 45.38 23.25 45.38L31.62 45.38L31.62 53.75ZM32.55 44.45V40.73H36.27V44.45H32.55ZM41.85 39.8H45.57V36.08H41.85V39.8Z" fill="url(#paint0_linear_113_1115)"/>
<defs>
<linearGradient id="paint0_linear_113_1115" x1="8.37" y1="71.885" x2="93" y2="-17.86" gradientUnits="userSpaceOnUse">
<stop stop-color="white"/>
<stop offset="1" stop-color="white" stop-opacity="0"/>
</linearGradient>
</defs>
</svg>
