<svg width="30" height="30" viewBox="0 0 30 30" fill="none" xmlns="http://www.w3.org/2000/svg">
<path opacity="0.5" d="M23.6453 0.333252H6.35406C3.01932 0.333252 0.333008 3.01957 0.333008 6.3543V23.6455C0.333008 26.9494 3.01932 29.6666 6.35406 29.6666H23.6453C26.9491 29.6666 29.6663 26.9803 29.6663 23.6455V6.3543C29.6663 3.01957 26.98 0.333252 23.6453 0.333252ZM21.0207 17.1304H17.1611V20.9901C17.1611 22.1634 16.2039 23.1206 15.0306 23.1206C14.4439 23.1206 13.919 22.8736 13.5176 22.5031C13.1162 22.1017 12.9 21.5768 12.9 20.9901V17.1304H9.04038C8.45371 17.1304 7.9288 16.8834 7.52739 16.5129C7.12599 16.1424 6.90985 15.5866 6.90985 14.9999C6.90985 13.8266 7.86704 12.8694 9.04038 12.8694H12.9V9.00974C12.9 7.83641 13.8572 6.87922 15.0306 6.87922C16.2039 6.87922 17.1611 7.83641 17.1611 9.00974V12.8694H21.0207C22.1941 12.8694 23.1513 13.8266 23.1513 14.9999C23.1513 16.1733 22.1941 17.1304 21.0207 17.1304Z" fill="#595A5A"/>
</svg>
