<svg width="27" height="27" viewBox="0 0 27 27" fill="none" xmlns="http://www.w3.org/2000/svg">
<path d="M14.6993 13.6363C14.6993 13.8781 14.6276 14.1145 14.4933 14.3155C14.359 14.5165 14.168 14.6732 13.9447 14.7658C13.7213 14.8583 13.4755 14.8825 13.2383 14.8353C13.0012 14.7881 12.7834 14.6717 12.6124 14.5007C12.4414 14.3298 12.325 14.1119 12.2778 13.8748C12.2307 13.6377 12.2549 13.3919 12.3474 13.1685C12.4399 12.9451 12.5966 12.7542 12.7977 12.6198C12.9987 12.4855 13.235 12.4138 13.4768 12.4138C13.8011 12.4138 14.112 12.5426 14.3413 12.7719C14.5705 13.0011 14.6993 13.3121 14.6993 13.6363ZM8.99434 12.4138C8.75255 12.4138 8.51619 12.4855 8.31515 12.6198C8.11411 12.7542 7.95742 12.9451 7.86489 13.1685C7.77236 13.3919 7.74816 13.6377 7.79533 13.8748C7.8425 14.1119 7.95893 14.3298 8.1299 14.5007C8.30087 14.6717 8.5187 14.7881 8.75584 14.8353C8.99298 14.8825 9.23878 14.8583 9.46217 14.7658C9.68555 14.6732 9.87648 14.5165 10.0108 14.3155C10.1451 14.1145 10.2168 13.8781 10.2168 13.6363C10.2168 13.3121 10.088 13.0011 9.85877 12.7719C9.62951 12.5426 9.31856 12.4138 8.99434 12.4138ZM17.9593 12.4138C17.7175 12.4138 17.4812 12.4855 17.2802 12.6198C17.0791 12.7542 16.9224 12.9451 16.8299 13.1685C16.7374 13.3919 16.7132 13.6377 16.7603 13.8748C16.8075 14.1119 16.9239 14.3298 17.0949 14.5007C17.2659 14.6717 17.4837 14.7881 17.7208 14.8353C17.958 14.8825 18.2038 14.8583 18.4272 14.7658C18.6505 14.6732 18.8415 14.5165 18.9758 14.3155C19.1101 14.1145 19.1818 13.8781 19.1818 13.6363C19.1818 13.3121 19.053 13.0011 18.8238 12.7719C18.5945 12.5426 18.2836 12.4138 17.9593 12.4138ZM24.0718 13.6363C24.0722 15.4655 23.599 17.2637 22.6983 18.8557C21.7976 20.4478 20.5 21.7795 18.9319 22.7213C17.3638 23.6632 15.5786 24.1829 13.75 24.2301C11.9214 24.2773 10.1118 23.8502 8.49719 22.9905L5.02834 24.1468C4.74114 24.2425 4.43294 24.2564 4.13829 24.1869C3.84363 24.1174 3.57417 23.9671 3.36009 23.7531C3.14601 23.539 2.99579 23.2695 2.92625 22.9749C2.85671 22.6802 2.87061 22.372 2.96639 22.0848L4.12267 18.616C3.36691 17.195 2.94479 15.6206 2.88835 14.0122C2.83191 12.4038 3.14264 10.8036 3.79695 9.33325C4.45125 7.86285 5.43194 6.56083 6.66457 5.52603C7.89721 4.49123 9.34938 3.75084 10.9109 3.36107C12.4724 2.97129 14.1021 2.94237 15.6765 3.27651C17.2508 3.61064 18.7284 4.29904 19.9969 5.28946C21.2655 6.27987 22.2918 7.54628 22.9978 8.99254C23.7039 10.4388 24.0712 12.0269 24.0718 13.6363ZM22.4418 13.6363C22.4414 12.2611 22.1247 10.9045 21.5161 9.67128C20.9075 8.4381 20.0233 7.36146 18.9321 6.52465C17.8408 5.68785 16.5716 5.11332 15.2227 4.8455C13.8739 4.57769 12.4815 4.62377 11.1533 4.98019C9.82511 5.33661 8.59671 5.99381 7.56315 6.90094C6.52958 7.80807 5.71856 8.94081 5.19283 10.2115C4.6671 11.4823 4.44075 12.8569 4.53129 14.2291C4.62183 15.6013 5.02684 16.9343 5.71498 18.1249C5.77274 18.2249 5.8086 18.336 5.82019 18.4508C5.83178 18.5657 5.81884 18.6817 5.78222 18.7912L4.51184 22.6013L8.32196 21.3309C8.40495 21.3026 8.49202 21.2882 8.5797 21.2881C8.72284 21.2884 8.86339 21.3263 8.9872 21.3982C10.3501 22.1867 11.8966 22.6024 13.4712 22.6034C15.0457 22.6044 16.5928 22.1906 17.9567 21.4038C19.3205 20.617 20.4531 19.4849 21.2405 18.1213C22.0279 16.7578 22.4422 15.2109 22.4418 13.6363Z" fill="black"/>
</svg>
